<?xml version="1.0" encoding="UTF-8"?>
<svg version="1.1" xmlns="http://www.w3.org/2000/svg" width="1000" height="390">
<path d="M0 0 C330 0 660 0 1000 0 C1000 128.7 1000 257.4 1000 390 C670 390 340 390 0 390 C0 261.3 0 132.6 0 0 Z " fill="#FEFEFE" transform="translate(0,0)"/>
<path d="M0 0 C24.23492624 -0.97809119 47.94925102 5.15630822 70 15 C70.72896484 15.32339355 71.45792969 15.64678711 72.20898438 15.97998047 C96.13918982 26.70059256 118.38171718 40.56152638 138 58 C139.04607422 58.88171875 139.04607422 58.88171875 140.11328125 59.78125 C142.12071563 61.47697097 144.06574861 63.22105347 146 65 C146.46341797 65.42410156 146.92683594 65.84820312 147.40429688 66.28515625 C156.73079175 74.9177505 164.07494283 84.36691144 171 95 C171.65613281 95.99386719 172.31226563 96.98773438 172.98828125 98.01171875 C185.33879217 117.91449611 192.04756871 141.08071856 196 164 C196.16846436 164.81235107 196.33692871 165.62470215 196.51049805 166.46166992 C198.14630815 174.92343504 198.33945735 183.20589689 198.31567383 191.79174805 C198.31249099 194.19430032 198.33614263 196.59564376 198.36132812 198.99804688 C198.39341783 206.77693313 198.34511448 213.81329419 195 221 C191.85658007 222.57170996 188.44228549 222.23175783 185 222 C184.01 221.67 183.02 221.34 182 221 C182.01571045 219.72882324 182.0314209 218.45764648 182.04760742 217.14794922 C182.1020325 212.41803356 182.13639592 207.68814544 182.16479492 202.95800781 C182.17985288 200.91336406 182.20030357 198.86875245 182.22631836 196.82421875 C182.26283311 193.88012748 182.27975651 190.93646443 182.29296875 187.9921875 C182.31619453 186.6277803 182.31619453 186.6277803 182.33988953 185.23580933 C182.34125642 180.0453071 181.86029307 176.51587139 179 172 C177.88980653 170.66076565 177.88980653 170.66076565 175.06689453 170.91821289 C173.76864746 170.9361792 172.47040039 170.95414551 171.1328125 170.97265625 C169.68473927 170.98751478 168.23665934 171.00173096 166.78857422 171.01538086 C166.02704041 171.02374969 165.26550659 171.03211853 164.480896 171.04074097 C120.63209648 171.44572807 83.91374473 160.26787679 51.91845703 129.15234375 C45.8191274 123.11191897 40.31454293 116.74538141 35 110 C34.3709375 109.27296875 33.741875 108.5459375 33.09375 107.796875 C23.2611314 96.27175648 15.53823935 82.52019941 9.98828125 68.45703125 C9.22415276 66.09343399 9.22415276 66.09343399 8 65 C7.00856573 61.02829042 6.2224754 57.01351436 5.41162109 53.00146484 C5.0285875 51.13900376 4.61886716 49.28208597 4.20703125 47.42578125 C0.9621332 31.92603982 -0.21629624 15.82290182 0 0 Z " fill="#A6CE3B" transform="translate(38,134)"/>
<path d="M0 0 C0.66370605 0.31646484 1.32741211 0.63292969 2.01123047 0.95898438 C14.64082552 7.10203757 24.26270316 14.94983458 34 25 C34.78761719 25.77988281 35.57523438 26.55976562 36.38671875 27.36328125 C55.94381279 47.79310565 64.43878248 75.51937393 64.3125 103.3125 C64.30512817 105.23280029 64.30512817 105.23280029 64.29760742 107.19189453 C64.18610055 116.17534566 63.57906852 124.3513164 61 133 C60.64808594 134.23105469 60.29617188 135.46210938 59.93359375 136.73046875 C50.9406615 166.60787687 31.01698502 189.34788701 4.203125 204.58984375 C-3.38234525 208.61834349 -14.17711015 214 -23 214 C-23.36351562 212.80246094 -23.72703125 211.60492188 -24.1015625 210.37109375 C-33.96719628 178.23143484 -49.62752248 149.4216846 -76.953125 128.76953125 C-79 127 -79 127 -80 124 C-79.14728516 123.94392578 -79.14728516 123.94392578 -78.27734375 123.88671875 C-71.48395005 123.30831628 -66.24376023 121.35325229 -60.375 117.875 C-55.36363636 115.09090909 -55.36363636 115.09090909 -52 115 C-51.43152344 115.47953125 -50.86304688 115.9590625 -50.27734375 116.453125 C-47.23976783 118.51638411 -44.89028519 118.50548574 -41.25 118.6875 C-39.49429688 118.78611328 -39.49429688 118.78611328 -37.703125 118.88671875 C-36.81109375 118.92410156 -35.9190625 118.96148437 -35 119 C-35.12181641 120.21236328 -35.12181641 120.21236328 -35.24609375 121.44921875 C-35.87513331 127.40693903 -35.87513331 127.40693903 -33.65234375 132.62890625 C-32.44310895 133.39165435 -31.20638432 134.11211032 -29.94921875 134.79296875 C-25.47834607 137.56150514 -21.90500067 143.1404844 -20 148 C-19.76953125 151.0234375 -19.76953125 151.0234375 -19.8125 154.375 C-19.82216797 156.02628906 -19.82216797 156.02628906 -19.83203125 157.7109375 C-20 161 -20 161 -20.609375 164.30078125 C-20.80273438 165.63689453 -20.80273438 165.63689453 -21 167 C-19.37791979 168.95955036 -19.37791979 168.95955036 -17 171 C-16.05696507 172.39925242 -15.14320495 173.81842494 -14.25 175.25 C-11.08554006 180.14274191 -7.24953601 184.04167585 -3 188 C6.32454016 185.28890022 15.9637522 178.44461752 21 170 C22.4536842 166.49944057 23.62864946 162.90839627 24.79101562 159.30249023 C26.46883093 154.17916134 28.5175471 149.99000355 31.80078125 145.6640625 C34.23624122 142.2845643 34.06724837 139.3290529 33.921875 135.328125 C33.57809652 121.9398103 33.90648748 111.39646259 39 99 C41.19476161 90.23640961 41.15863632 79.48883511 38 71 C37.4225 71.825 36.845 72.65 36.25 73.5 C35.13625 74.7375 35.13625 74.7375 34 76 C30 76 30 76 27.625 73.75 C26.75875 72.8425 25.8925 71.935 25 71 C24.0925 70.443125 23.185 69.88625 22.25 69.3125 C13.68746825 63.21992933 4.37622796 52.63209973 0 43 C3.08425655 44.41390637 5.55301139 46.11937533 8.1875 48.25 C11.29442568 50.73143899 14.42533815 52.92075213 17.8125 55 C23.02939063 58.40824736 24.86444457 62.09802501 27.125 67.875 C27.79931699 70.17331714 27.79931699 70.17331714 30 71 C34.62228418 66.86427205 36.5975236 63.79566208 37.25390625 57.60546875 C37.57373605 50.72396951 35.89238578 47.3373682 31.375 42.125 C30.03811153 40.78892074 30.03811153 40.78892074 28 41 C27.01 41.99 27.01 41.99 26 43 C24.67968405 42.43457996 23.3688699 41.84693528 22.0625 41.25 C21.33160156 40.92515625 20.60070312 40.6003125 19.84765625 40.265625 C18 39 18 39 17.24609375 36.859375 C17.16488281 36.24578125 17.08367187 35.6321875 17 35 C19.96175123 35.61277612 21.38058783 36.25372522 24 38 C26.27912938 38.45394552 26.27912938 38.45394552 28.6875 38.625 C29.49574219 38.69976562 30.30398438 38.77453125 31.13671875 38.8515625 C31.75160156 38.90054688 32.36648438 38.94953125 33 39 C20.66068759 18.23384009 -0.88390616 5.09662089 -23.7109375 -1.23828125 C-30.96932232 -2.91926111 -37.95997574 -3.18270993 -45.375 -3.1875 C-46.365 -3.19974609 -47.355 -3.21199219 -48.375 -3.22460938 C-55.65461207 -3.23901494 -62.09960386 -2.30013205 -69 0 C-69 0.66 -69 1.32 -69 2 C-67.35 2 -65.7 2 -64 2 C-65.72743854 5.61939504 -67.47650757 8.87567603 -70 12 C-77.63076923 10.52307692 -77.63076923 10.52307692 -79.5 7.875 C-79.665 7.25625 -79.83 6.6375 -80 6 C-83.26008643 9.16952847 -86.22237877 12.39937989 -89 16 C-88.38125 15.690625 -87.7625 15.38125 -87.125 15.0625 C-85.75 14.375 -84.375 13.6875 -83 13 C-82.505 14.98 -82.505 14.98 -82 17 C-80.35 16.34 -78.7 15.68 -77 15 C-77 15.66 -77 16.32 -77 17 C-77.99 17.66 -78.98 18.32 -80 19 C-79.67 19.33 -79.34 19.66 -79 20 C-78.95907063 22.33297433 -78.95758277 24.66705225 -79 27 C-79.61488281 27.10957031 -80.22976562 27.21914062 -80.86328125 27.33203125 C-81.67152344 27.49058594 -82.47976562 27.64914063 -83.3125 27.8125 C-84.11300781 27.96332031 -84.91351563 28.11414063 -85.73828125 28.26953125 C-88.34528595 29.11151722 -89.43454539 29.75216774 -91 32 C-91.36213568 34.51289675 -91.36213568 34.51289675 -91.1875 37.1875 C-91.16042969 38.08855469 -91.13335937 38.98960938 -91.10546875 39.91796875 C-91.05326172 40.94857422 -91.05326172 40.94857422 -91 42 C-89.68 42.66 -88.36 43.32 -87 44 C-88.49930384 48.946157 -90.55188265 53.40558204 -92.875 58 C-93.38353516 59.02867188 -93.38353516 59.02867188 -93.90234375 60.078125 C-95.49530737 63.25193845 -97.12525333 66.18556905 -99.1171875 69.13671875 C-103.58031354 75.92400379 -106.53772482 84.86451567 -105 93 C-102.81061355 100.08738144 -99.94347087 106.7196575 -96 113 C-99.6142408 111.69785701 -102.3820996 110.12655541 -105.4375 107.8125 C-111.0280388 103.81807657 -116.97779248 100.8054136 -123.16894531 97.875 C-124.9540251 97.02196987 -126.72342141 96.13636153 -128.4921875 95.25 C-138.98142966 90.10866467 -149.8692527 86.50117568 -161 83 C-158.84096466 56.77624734 -142.79218209 31.83461196 -123 15 C-88.65416846 -12.56296129 -39.93575127 -19.23008762 0 0 Z " fill="#A7D0E4" transform="translate(257,56)"/>
<path d="M0 0 C-0.5765169 7.06233202 -2.3711151 13.7126427 -4.30175781 20.50537109 C-4.80020919 22.28620192 -5.28505169 24.0708649 -5.76074219 25.85791016 C-15.23684583 61.44656686 -31.04622845 95.41224319 -57 122 C-57.68964844 122.75152344 -58.37929688 123.50304687 -59.08984375 124.27734375 C-68.60174292 134.37346705 -80.67251139 143.6206145 -93 150 C-93.57588867 150.30212402 -94.15177734 150.60424805 -94.74511719 150.91552734 C-111.60655042 159.65266072 -130.80185589 166.62944735 -150 166 C-151.10228696 161.59085217 -151.07654536 157.51617599 -151 153 C-149.65421875 152.5978125 -149.65421875 152.5978125 -148.28125 152.1875 C-113.90094935 141.39038079 -87.6775241 118.86651656 -70.83349609 87.2355957 C-63.64222862 73.25028285 -59.25215111 58.53822243 -57 43 C-56.90356201 42.36731201 -56.80712402 41.73462402 -56.70776367 41.08276367 C-55.70028606 33.56515856 -55.89010785 26.00504195 -55.9375 18.4375 C-55.94252634 17.03320473 -55.94708724 15.6289077 -55.95117188 14.22460938 C-55.96288407 10.81636097 -55.97928628 7.4082036 -56 4 C-37.3679544 0.88486304 -18.87854609 -0.1170319 0 0 Z " fill="#A6CE3B" transform="translate(387,123)"/>
<path d="M0 0 C11.18087677 7.56116846 18.43089001 17.31720449 21.1875 30.6875 C22.87077385 46.0921135 19.6422017 58.24301584 10.1875 70.6875 C2.34137875 79.51650469 -10.13603708 85.50006309 -21.8125 86.6875 C-34.6273512 87.31773858 -46.37529906 83.5333348 -56.49609375 75.578125 C-64.51133049 67.95486442 -69.2077224 59.36896211 -71.8125 48.6875 C-71.99683594 48.03652344 -72.18117188 47.38554687 -72.37109375 46.71484375 C-74.91571494 35.0276013 -71.06794866 22.56861914 -64.8125 12.6875 C-48.75944006 -8.39385303 -22.8302133 -13.77257433 0 0 Z " fill="#94C83E" transform="translate(619.8125,210.3125)"/>
<path d="M0 0 C0.81594635 -0.00570007 1.6318927 -0.01140015 2.4725647 -0.01727295 C4.20939837 -0.0267461 5.94625021 -0.03326607 7.68310547 -0.03710938 C10.30599999 -0.04670826 12.92807451 -0.07766269 15.55078125 -0.109375 C31.62209097 -0.21285959 46.01489939 2.5196401 57.9765625 14.203125 C67.80367385 25.24596146 70.9941612 37.61261372 70.19873047 52.14160156 C69.0491716 62.8084973 62.49039422 73.20150608 54.7890625 80.453125 C50.0506853 84.23523107 44.47157275 86.71764352 38.9765625 89.203125 C38.29126465 89.55511963 37.6059668 89.90711426 36.89990234 90.26977539 C32.7003244 91.61059604 28.71755762 91.46897899 24.3359375 91.43359375 C22.95175629 91.43290642 22.95175629 91.43290642 21.53961182 91.4322052 C19.59638171 91.42919211 17.65315382 91.42133411 15.70996094 91.40893555 C12.72322118 91.39060449 9.73679031 91.38842649 6.75 91.38867188 C4.86197647 91.38375921 2.97395504 91.37793199 1.0859375 91.37109375 C-0.26084076 91.36942451 -0.26084076 91.36942451 -1.63482666 91.36772156 C-7.90736761 91.31919489 -7.90736761 91.31919489 -9.0234375 90.203125 C-9.12393964 87.43911092 -9.15959825 84.70005274 -9.15283203 81.93554688 C-9.15458435 81.06893936 -9.15633667 80.20233185 -9.15814209 79.3094635 C-9.16256175 76.43024727 -9.15962222 73.55109191 -9.15625 70.671875 C-9.15692301 68.68029773 -9.157893 66.68872054 -9.15914917 64.69714355 C-9.1606263 60.51732605 -9.15847111 56.33752987 -9.15380859 52.15771484 C-9.1481113 46.78709974 -9.15139023 41.4165346 -9.15738106 36.04592133 C-9.16098627 31.9316978 -9.15984827 27.81748621 -9.15725327 23.70326233 C-9.15658389 21.72241714 -9.1574128 19.74157088 -9.15973282 17.76072693 C-9.16225869 14.99735624 -9.15841968 12.23406766 -9.15283203 9.47070312 C-9.15485626 8.64365372 -9.15688049 7.81660431 -9.15896606 6.9644928 C-9.12939412 -0.88817868 -7.1370964 0.03832022 0 0 Z " fill="#94C83F" transform="translate(872.0234375,203.796875)"/>
<path d="M0 0 C0.88214676 -0.01929062 1.76429352 -0.03858124 2.673172 -0.05845642 C6.75668363 -0.11636147 10.84001375 -0.16559768 14.92382812 -0.19628906 C17.06624599 -0.21774066 19.20857934 -0.25168788 21.35058594 -0.29882812 C45.7942752 -0.83182081 45.7942752 -0.83182081 56.08374023 8.15625 C61.70022766 13.67922905 63.90003201 20.69434017 64.16674805 28.45874023 C63.48993865 36.58045302 59.86478098 43.63056959 53.75268555 49.08374023 C51.20468548 51.01095483 48.71379653 52.77896599 45.85424805 54.20874023 C47.36778439 58.34007668 49.3788563 61.98031127 51.60424805 65.77124023 C61.99992923 83.69778225 61.99992923 83.69778225 62.85424805 89.20874023 C62.52424805 89.86874023 62.19424805 90.52874023 61.85424805 91.20874023 C55.58424805 91.20874023 49.31424805 91.20874023 42.85424805 91.20874023 C42.3231543 89.81913086 41.79206055 88.42952148 41.24487305 86.99780273 C38.71733942 80.67896867 35.68418301 74.6478227 32.60424805 68.58374023 C32.04995117 67.48416992 31.4956543 66.38459961 30.92456055 65.25170898 C29.57147123 62.56885947 28.21337817 59.88853454 26.85424805 57.20874023 C22.56424805 57.20874023 18.27424805 57.20874023 13.85424805 57.20874023 C13.86210327 58.60165283 13.86210327 58.60165283 13.87011719 60.02270508 C13.88714398 63.46297829 13.89969078 66.90320682 13.90917969 70.34350586 C13.91421319 71.83342189 13.92104047 73.32333298 13.9296875 74.81323242 C13.9417961 76.95289328 13.94748612 79.09248891 13.9519043 81.23217773 C13.95975952 83.16456299 13.95975952 83.16456299 13.96777344 85.13598633 C13.85424805 88.20874023 13.85424805 88.20874023 12.85424805 90.20874023 C6.91424805 90.20874023 0.97424805 90.20874023 -5.14575195 90.20874023 C-5.16830196 78.62185275 -5.18666645 67.03497972 -5.19756413 55.44807529 C-5.20279321 50.06840261 -5.2098913 44.68874566 -5.22119141 39.30908203 C-5.2320194 34.1219918 -5.2380286 28.93491674 -5.2406292 23.74781609 C-5.24248361 21.76417743 -5.24610452 19.78053965 -5.25148201 17.79690742 C-5.25869128 15.02864888 -5.25974294 12.26045385 -5.25927734 9.4921875 C-5.26287262 8.66356705 -5.2664679 7.83494659 -5.27017212 6.98121643 C-5.25757674 0.10718509 -5.25757674 0.10718509 0 0 Z " fill="#94C83E" transform="translate(545.145751953125,75.791259765625)"/>
<path d="M0 0 C0.95149429 -0.00807175 1.90298859 -0.01614349 2.88331604 -0.02445984 C4.90681118 -0.03832697 6.93032998 -0.04903729 8.95385742 -0.05688477 C12.02244006 -0.0739739 15.08991035 -0.11782066 18.15820312 -0.16210938 C20.12629417 -0.17224699 22.09439439 -0.18075974 24.0625 -0.1875 C24.97019638 -0.20500809 25.87789276 -0.22251617 26.81309509 -0.24055481 C35.54974913 -0.21140805 43.88032237 2.56333572 50.62890625 8.23828125 C57.26293139 16.43512962 59.27254505 23.59004365 58.2265625 34.0859375 C56.7801358 41.7151293 51.45780414 47.36028407 45.62890625 52.23828125 C43.98069381 53.26841402 42.31735646 54.27551769 40.62890625 55.23828125 C41.769072 57.57453368 42.91477812 59.90767549 44.06640625 62.23828125 C44.41823975 62.95145508 44.77007324 63.66462891 45.13256836 64.39941406 C47.05083636 68.24015586 49.0400172 72.01137558 51.19921875 75.72265625 C51.61502197 76.43808594 52.0308252 77.15351563 52.45922852 77.890625 C53.2691657 79.26946001 54.08970729 80.64213047 54.92163086 82.0078125 C57.7379011 86.80230184 57.7379011 86.80230184 56.62890625 91.23828125 C50.68890625 91.23828125 44.74890625 91.23828125 38.62890625 91.23828125 C28.92432937 72.92260094 28.92432937 72.92260094 24.50390625 64.17578125 C23.94445312 63.07105469 23.385 61.96632813 22.80859375 60.828125 C21.62890625 58.23828125 21.62890625 58.23828125 21.62890625 56.23828125 C17.00890625 56.23828125 12.38890625 56.23828125 7.62890625 56.23828125 C7.63676147 57.77536743 7.63676147 57.77536743 7.64477539 59.34350586 C7.66282594 63.13223401 7.67433845 66.92095834 7.68383789 70.7097168 C7.68887799 72.35197589 7.69571003 73.99423048 7.7043457 75.63647461 C7.71642551 77.99203604 7.72213764 80.34753834 7.7265625 82.703125 C7.73172379 83.44167221 7.73688507 84.18021942 7.74220276 84.94114685 C7.74239875 86.70726213 7.69085344 88.47325271 7.62890625 90.23828125 C5.80774622 92.05944128 3.32218861 91.37063205 0.90234375 91.375 C-0.22300781 91.36919922 -0.22300781 91.36919922 -1.37109375 91.36328125 C-2.49644531 91.36908203 -2.49644531 91.36908203 -3.64453125 91.375 C-9.24448322 91.36489178 -9.24448322 91.36489178 -10.37109375 90.23828125 C-10.47159589 87.47426717 -10.5072545 84.73520899 -10.50048828 81.97070312 C-10.5022406 81.10409561 -10.50399292 80.2374881 -10.50579834 79.34461975 C-10.510218 76.46540352 -10.50727847 73.58624816 -10.50390625 70.70703125 C-10.50457926 68.71545398 -10.50554925 66.72387679 -10.50680542 64.7322998 C-10.50828255 60.5524823 -10.50612736 56.37268612 -10.50146484 52.19287109 C-10.49576755 46.82225599 -10.49904648 41.45169085 -10.50503731 36.08107758 C-10.50864252 31.96685405 -10.50750452 27.85264246 -10.50490952 23.73841858 C-10.50424014 21.75757339 -10.50506905 19.77672713 -10.50738907 17.79588318 C-10.50991494 15.03251249 -10.50607593 12.26922391 -10.50048828 9.50585938 C-10.50251251 8.67880997 -10.50453674 7.85176056 -10.50662231 6.99964905 C-10.47493382 -1.4150597 -7.52036484 0.05999736 0 0 Z " fill="#94C83F" transform="translate(685.37109375,203.76171875)"/>
<path d="M0 0 C1.134375 0.020625 2.26875 0.04125 3.4375 0.0625 C5.66412677 5.73559769 7.88773288 11.40986682 10.10864258 17.08520508 C10.86336282 19.0126072 11.61888336 20.93969615 12.37524414 22.86645508 C13.4671545 25.64841522 14.55610733 28.43151801 15.64453125 31.21484375 C15.97902786 32.06521713 16.31352448 32.91559052 16.65815735 33.79173279 C18.53317094 38.59587443 20.23362182 43.40249294 21.71928406 48.34230042 C22.3032017 50.26746346 22.3032017 50.26746346 24.4375 51.0625 C24.68185791 49.74934814 24.68185791 49.74934814 24.93115234 48.40966797 C26.74335512 38.98596679 28.96952516 29.72730504 31.45410156 20.45947266 C32.07453766 18.14254718 32.68610043 15.82339539 33.296875 13.50390625 C33.68959335 12.02590584 34.08280292 10.54803585 34.4765625 9.0703125 C34.65885406 8.37882111 34.84114563 7.68732971 35.02896118 6.97488403 C36.32209968 2.17790032 36.32209968 2.17790032 37.4375 1.0625 C40.13404854 0.98930379 42.80441458 0.97007463 45.5 1 C46.25861328 1.00451172 47.01722656 1.00902344 47.79882812 1.01367188 C49.67841871 1.0254932 51.55796899 1.04342922 53.4375 1.0625 C53.59517622 6.01353321 53.11784508 10.21062626 51.875 15 C51.69646484 15.6899707 51.51792969 16.37994141 51.33398438 17.09082031 C49.55896982 23.8341065 47.56748801 30.51469901 45.57910156 37.19750977 C43.41252979 44.54562924 41.37761751 51.92289697 39.38671875 59.3203125 C39.11916779 60.31228638 38.85161682 61.30426025 38.57595825 62.32629395 C37.21708226 67.36792966 35.86618618 72.41153431 34.52539062 77.45800781 C34.02109964 79.33405598 33.51655354 81.2100356 33.01171875 83.0859375 C32.78175705 83.96194611 32.55179535 84.83795471 32.31486511 85.74050903 C32.09711929 86.54463226 31.87937347 87.34875549 31.6550293 88.17724609 C31.46740524 88.88207123 31.27978119 89.58689636 31.08647156 90.31307983 C30.4375 92.0625 30.4375 92.0625 28.4375 94.0625 C25.8125 94.1875 25.8125 94.1875 23.4375 94.0625 C20.15070205 88.01246483 17.52584969 81.85406348 15.17480469 75.38623047 C13.33384691 70.36449396 11.38439729 65.390951 9.38671875 60.4296875 C8.97971992 59.41841797 8.97971992 59.41841797 8.5644989 58.38671875 C7.45395922 55.63061519 6.34182855 52.8751874 5.22360229 50.12219238 C4.43011795 48.1685206 3.64062177 46.21327476 2.8515625 44.2578125 C2.3870166 43.11328613 1.9224707 41.96875977 1.44384766 40.78955078 C0.4375 38.0625 0.4375 38.0625 0.4375 36.0625 C-0.2225 36.0625 -0.8825 36.0625 -1.5625 36.0625 C-1.96210938 37.29613281 -2.36171875 38.52976563 -2.7734375 39.80078125 C-4.736705 45.68484321 -6.95253322 51.46469311 -9.1875 57.25 C-9.62118896 58.37462646 -10.05487793 59.49925293 -10.50170898 60.65795898 C-13.47741878 68.3403964 -16.51585594 75.99559975 -19.625 83.625 C-20.00672363 84.56432373 -20.38844727 85.50364746 -20.78173828 86.47143555 C-21.13349121 87.32777588 -21.48524414 88.18411621 -21.84765625 89.06640625 C-22.30990601 90.19284546 -22.30990601 90.19284546 -22.78149414 91.34204102 C-23.5625 93.0625 -23.5625 93.0625 -24.5625 94.0625 C-26.22867115 94.10313832 -27.89638095 94.105221 -29.5625 94.0625 C-32.47002278 88.86188652 -33.94994719 83.56595578 -35.453125 77.8203125 C-35.71874237 76.82729126 -35.98435974 75.83427002 -36.25802612 74.81115723 C-36.82335936 72.69573271 -37.38589752 70.57955956 -37.94586182 68.46270752 C-39.39058563 63.00279312 -40.85617281 57.54848381 -42.3203125 52.09375 C-42.60433929 51.03370758 -42.88836609 49.97366516 -43.18099976 48.88150024 C-45.72272427 39.41554669 -48.3994442 29.99575525 -51.1953125 20.6015625 C-51.52644043 19.48442871 -51.52644043 19.48442871 -51.86425781 18.34472656 C-52.36770865 16.69918165 -52.89625317 15.06124049 -53.44042969 13.42871094 C-53.72563477 12.5524707 -54.01083984 11.67623047 -54.3046875 10.7734375 C-54.70083252 9.5985376 -54.70083252 9.5985376 -55.10498047 8.39990234 C-55.5625 6.0625 -55.5625 6.0625 -54.5625 1.0625 C-49.2825 1.0625 -44.0025 1.0625 -38.5625 1.0625 C-35.1875 8.9375 -35.1875 8.9375 -34.2121582 12.80444336 C-33.88215569 14.09498878 -33.88215569 14.09498878 -33.54548645 15.41160583 C-33.32035873 16.31604935 -33.09523102 17.22049286 -32.86328125 18.15234375 C-32.6233696 19.09686905 -32.38345795 20.04139435 -32.13627625 21.01454163 C-31.37714113 24.00836478 -30.62595727 27.00411629 -29.875 30 C-29.35924935 32.03984645 -28.84297868 34.0795615 -28.32617188 36.11914062 C-27.06559274 41.09876018 -25.81213691 46.08012375 -24.5625 51.0625 C-21.85549163 45.82321246 -19.22795311 40.7205418 -17.5 35.0625 C-16.08954704 30.64084192 -14.53534536 26.3506013 -12.7734375 22.05859375 C-11.75464311 19.53789923 -10.76544831 17.00992746 -9.7890625 14.47265625 C-9.47428955 13.65555176 -9.1595166 12.83844727 -8.83520508 11.99658203 C-8.20035337 10.34593532 -7.56734577 8.69457804 -6.9362793 7.04248047 C-4.24941135 0.07455108 -4.24941135 0.07455108 0 0 Z " fill="#95C93F" transform="translate(467.5625,202.9375)"/>
<path d="M0 0 C2.57047239 2.03552969 4.65523069 4.47790014 6.8125 6.9375 C8.14269181 8.40543503 9.47344022 9.87286584 10.8046875 11.33984375 C11.49143555 12.10538574 12.17818359 12.87092773 12.88574219 13.65966797 C16.34769755 17.4918047 19.8936214 21.24378243 23.4375 25 C24.07469971 25.68054443 24.71189941 26.36108887 25.3684082 27.06225586 C29.21949917 31.16471175 33.14608541 35.17453797 37.15576172 39.12231445 C39.64792776 41.65967864 41.96163193 44.3319483 44.26171875 47.04296875 C46.41112761 49.46286502 48.70523705 51.71835667 51 54 C51.01030746 53.36328873 51.02061493 52.72657745 51.03123474 52.0705719 C51.13906331 45.46873202 51.25367961 38.86703522 51.37231445 32.26538086 C51.41573943 29.79861431 51.45740872 27.33181622 51.49731445 24.86499023 C51.55483445 21.32786534 51.61858075 17.79090034 51.68359375 14.25390625 C51.70030624 13.14350479 51.71701874 12.03310333 51.73423767 10.88905334 C51.75418289 9.86807053 51.77412811 8.84708771 51.79467773 7.79516602 C51.81022202 6.89137711 51.8257663 5.9875882 51.84178162 5.05641174 C52 3 52 3 53 2 C58.61 2 64.22 2 70 2 C70 32.36 70 62.72 70 94 C63 94 63 94 60.8828125 92.63671875 C60.30273438 91.99347656 59.72265625 91.35023438 59.125 90.6875 C58.45726562 89.95917969 57.78953125 89.23085937 57.1015625 88.48046875 C54.08624815 84.92150107 51.14654295 81.30540144 48.2265625 77.66796875 C45.61589365 74.53974625 42.8048362 71.71676113 39.88671875 68.87890625 C37.4474059 66.44969408 35.22100224 63.86998319 32.9765625 61.26171875 C29.70354162 57.51650315 26.31462975 53.87740064 22.94140625 50.22265625 C20.53818883 47.60599281 18.17484354 44.9554392 15.81616211 42.29858398 C15.1002037 41.49235092 14.3842453 40.68611786 13.64659119 39.85545349 C13.10321609 39.24315384 12.559841 38.63085419 12 38 C11.9845388 39.01144325 11.9845388 39.01144325 11.96876526 40.0433197 C11.86094231 47.03443582 11.74632557 54.02541667 11.62768555 61.01635742 C11.58425876 63.62863344 11.54258962 66.24093928 11.50268555 68.85327148 C11.44516993 72.59888719 11.38142236 76.34435169 11.31640625 80.08984375 C11.29133751 81.85387794 11.29133751 81.85387794 11.26576233 83.65354919 C11.24581711 84.73459427 11.22587189 85.81563934 11.20532227 86.92944336 C11.18977798 87.88652695 11.1742337 88.84361053 11.15821838 89.82969666 C11 92 11 92 10 93 C7.3226862 93.09981214 4.67695825 93.13879875 2 93.125 C0.87464844 93.13080078 0.87464844 93.13080078 -0.2734375 93.13671875 C-5.87338947 93.12661053 -5.87338947 93.12661053 -7 92 C-7.09520906 89.16959328 -7.12553631 86.36365007 -7.11352539 83.53295898 C-7.11367142 82.64523804 -7.11381744 81.75751709 -7.1139679 80.84289551 C-7.11326843 77.89393716 -7.10547448 74.94504113 -7.09765625 71.99609375 C-7.09579219 69.95728083 -7.09436823 67.91846746 -7.09336853 65.87965393 C-7.08954241 60.50215426 -7.07971132 55.12468142 -7.06866455 49.74719238 C-7.05845245 44.26440799 -7.05387134 38.78161928 -7.04882812 33.29882812 C-7.03808914 22.53254027 -7.02101159 11.76627236 -7 1 C-4.25099822 -0.37450089 -3.07113717 -0.54398106 0 0 Z " fill="#93C83E" transform="translate(869,74)"/>
<path d="M0 0 C1.50797602 0.86812179 3.06817016 1.64395962 4.63183594 2.40722656 C6.67089844 3.96191406 6.67089844 3.96191406 7.21386719 6.34472656 C6.52152523 9.68191442 5.2375975 11.29521087 2.98339844 13.83691406 C2.29890625 14.63871094 1.61441406 15.44050781 0.90917969 16.26660156 C-1.32910156 17.96191406 -1.32910156 17.96191406 -3.87597656 17.87597656 C-6.27478741 16.98215214 -7.87531998 16.01359385 -9.89160156 14.46191406 C-16.61305464 10.10307701 -24.44552527 10.49804613 -32.14160156 11.58691406 C-38.38853568 12.96913799 -42.30965141 15.13651555 -46.05175781 20.37207031 C-51.3304661 28.84545785 -52.74220477 37.01812993 -51.32910156 46.96191406 C-48.74457854 54.7588476 -45.30177504 59.92201556 -38.25878906 64.22753906 C-29.1745509 68.57968358 -20.05870645 67.08998419 -10.32910156 65.96191406 C-10.32910156 62.33191406 -10.32910156 58.70191406 -10.32910156 54.96191406 C-14.28910156 54.96191406 -18.24910156 54.96191406 -22.32910156 54.96191406 C-23.69449094 52.2311353 -23.46141982 50.00631039 -23.45410156 46.96191406 C-23.45796875 45.35316406 -23.45796875 45.35316406 -23.46191406 43.71191406 C-23.32910156 40.96191406 -23.32910156 40.96191406 -22.32910156 38.96191406 C-12.75910156 38.96191406 -3.18910156 38.96191406 6.67089844 38.96191406 C9.20647127 45.30084614 9.01616178 50.98201869 8.88891602 57.68139648 C8.86859752 59.15814487 8.8678984 60.63529544 8.88696289 62.11206055 C9.04346405 74.32867692 9.04346405 74.32867692 5.76318359 78.23193359 C3.43482049 79.82329564 1.29429313 80.93753585 -1.32910156 81.96191406 C-2.17786865 82.32341553 -3.02663574 82.68491699 -3.90112305 83.05737305 C-14.40598567 86.97094932 -32.37867838 87.50321989 -42.79785156 83.54003906 C-46.17360463 81.9739237 -49.25848409 80.06601406 -52.32910156 77.96191406 C-53.39902344 77.26839844 -54.46894531 76.57488281 -55.57128906 75.86035156 C-64.06206741 70.01542483 -70.13248891 57.86528635 -72.32910156 47.96191406 C-73.57891605 34.05948324 -71.38274624 22.53529975 -63.32910156 10.96191406 C-62.89984375 10.33542969 -62.47058594 9.70894531 -62.02832031 9.06347656 C-55.01062805 -0.08643489 -44.19622514 -5.70843125 -33.00097656 -7.60058594 C-20.11416853 -9.1360354 -10.95740718 -6.4022821 0 0 Z " fill="#94C83E" transform="translate(486.3291015625,82.0380859375)"/>
<path d="M0 0 C1.1146312 -0.00637985 2.22926239 -0.0127597 3.37767029 -0.01933289 C5.19791466 -0.02100212 5.19791466 -0.02100212 7.05493164 -0.02270508 C8.91016197 -0.02769768 8.91016197 -0.02769768 10.8028717 -0.03279114 C13.42489244 -0.03786562 16.04691967 -0.0401993 18.66894531 -0.04003906 C21.36465131 -0.03995762 24.06018808 -0.0469229 26.75585938 -0.06054688 C30.62643688 -0.07878979 34.49681556 -0.08377219 38.36743164 -0.08520508 C39.57890366 -0.09239059 40.79037567 -0.09957611 42.03855896 -0.10697937 C43.15634232 -0.10390274 44.27412567 -0.10082611 45.42578125 -0.09765625 C46.41315781 -0.09908127 47.40053436 -0.10050629 48.41783142 -0.10197449 C50.77758789 0.14526367 50.77758789 0.14526367 52.77758789 2.14526367 C53.04321289 5.11401367 53.04321289 5.11401367 53.02758789 8.64526367 C53.03532227 10.39323242 53.03532227 10.39323242 53.04321289 12.17651367 C52.77758789 15.14526367 52.77758789 15.14526367 50.77758789 17.14526367 C47.83662052 17.32065803 44.99105441 17.37658743 42.05102539 17.34057617 C41.18820953 17.33774628 40.32539368 17.33491638 39.43643188 17.33200073 C36.67501069 17.320787 33.91391139 17.29568051 31.15258789 17.27026367 C29.2828009 17.2602354 27.41300884 17.25110929 25.54321289 17.24291992 C20.95444682 17.22254352 16.36637854 17.18339767 11.77758789 17.14526367 C11.77758789 23.41526367 11.77758789 29.68526367 11.77758789 36.14526367 C14.13657227 36.11045898 16.49555664 36.0756543 18.92602539 36.03979492 C21.20628651 36.01641061 23.48653437 35.9981877 25.7668457 35.98046875 C27.35382041 35.96536553 28.94075326 35.94488145 30.52758789 35.91894531 C32.80633862 35.88262772 35.08453848 35.86555344 37.36352539 35.85229492 C38.07503754 35.83681107 38.78654968 35.82132721 39.5196228 35.80537415 C41.52124023 35.8046875 41.52124023 35.8046875 44.77758789 36.14526367 C47.09349078 39.619118 47.04750624 41.10956373 47.02758789 45.20776367 C47.03532227 46.80297852 47.03532227 46.80297852 47.04321289 48.43041992 C46.77758789 51.14526367 46.77758789 51.14526367 44.77758789 53.14526367 C42.26837944 53.32021973 39.87133848 53.37695936 37.36352539 53.34057617 C36.6338858 53.33774628 35.90424622 53.33491638 35.15249634 53.33200073 C32.81902761 53.32079369 30.48594086 53.29568878 28.15258789 53.27026367 C26.57186426 53.26023452 24.99113463 53.25110856 23.41040039 53.24291992 C19.5325302 53.22255296 15.65548727 53.18340694 11.77758789 53.14526367 C11.77758789 60.07526367 11.77758789 67.00526367 11.77758789 74.14526367 C15.96575195 74.11045898 15.96575195 74.11045898 20.23852539 74.07495117 C22.93578639 74.0593641 25.63304242 74.04721398 28.33032227 74.03540039 C30.20827471 74.02532833 32.08621142 74.01167005 33.96411133 73.99438477 C36.65978879 73.97018914 39.35525935 73.95879284 42.05102539 73.94995117 C42.89378021 73.9396286 43.73653503 73.92930603 44.60482788 73.91867065 C46.66380036 73.91827223 48.72226724 74.0226878 50.77758789 74.14526367 C52.77758789 76.14526367 52.77758789 76.14526367 53.00805664 79.11401367 C52.99387695 80.27932617 52.97969727 81.44463867 52.96508789 82.64526367 C52.95864258 83.81057617 52.95219727 84.97588867 52.94555664 86.17651367 C52.77758789 89.14526367 52.77758789 89.14526367 51.77758789 91.14526367 C32.63758789 91.14526367 13.49758789 91.14526367 -6.22241211 91.14526367 C-6.26252092 68.72443925 -6.26252092 68.72443925 -6.27124023 59.2019043 C-6.27722897 52.69221181 -6.28433008 46.18253333 -6.29785156 39.67285156 C-6.30867945 34.42740665 -6.31468873 29.18197675 -6.31728935 23.93652153 C-6.31914378 21.93055421 -6.32276472 19.92458775 -6.32814217 17.91862679 C-6.3353513 15.11923543 -6.33640311 12.31990689 -6.3359375 9.52050781 C-6.33953278 8.68253662 -6.34312805 7.84456543 -6.34683228 6.98120117 C-6.33422675 0.0244732 -6.33422675 0.0244732 0 0 Z " fill="#94C93E" transform="translate(660.222412109375,75.854736328125)"/>
<path d="M0 0 C1.1146312 -0.00637985 2.22926239 -0.0127597 3.37767029 -0.01933289 C5.19791466 -0.02100212 5.19791466 -0.02100212 7.05493164 -0.02270508 C8.91016197 -0.02769768 8.91016197 -0.02769768 10.8028717 -0.03279114 C13.42489244 -0.03786562 16.04691967 -0.0401993 18.66894531 -0.04003906 C21.36465131 -0.03995762 24.06018808 -0.0469229 26.75585938 -0.06054688 C30.62643688 -0.07878979 34.49681556 -0.08377219 38.36743164 -0.08520508 C39.57890366 -0.09239059 40.79037567 -0.09957611 42.03855896 -0.10697937 C43.15634232 -0.10390274 44.27412567 -0.10082611 45.42578125 -0.09765625 C46.41315781 -0.09908127 47.40053436 -0.10050629 48.41783142 -0.10197449 C50.77758789 0.14526367 50.77758789 0.14526367 52.77758789 2.14526367 C53.04321289 5.11401367 53.04321289 5.11401367 53.02758789 8.64526367 C53.03532227 10.39323242 53.03532227 10.39323242 53.04321289 12.17651367 C52.77758789 15.14526367 52.77758789 15.14526367 50.77758789 17.14526367 C47.83662052 17.32065803 44.99105441 17.37658743 42.05102539 17.34057617 C41.18820953 17.33774628 40.32539368 17.33491638 39.43643188 17.33200073 C36.67501069 17.320787 33.91391139 17.29568051 31.15258789 17.27026367 C29.2828009 17.2602354 27.41300884 17.25110929 25.54321289 17.24291992 C20.95444682 17.22254352 16.36637854 17.18339767 11.77758789 17.14526367 C11.77758789 23.41526367 11.77758789 29.68526367 11.77758789 36.14526367 C14.14817383 36.13366211 16.51875977 36.12206055 18.96118164 36.11010742 C21.24804551 36.10231671 23.53490793 36.09624003 25.82177734 36.09033203 C27.41553404 36.0852921 29.00928608 36.07846017 30.60302734 36.06982422 C32.88909042 36.05774369 35.17509256 36.05203212 37.46118164 36.04760742 C38.17785507 36.04244614 38.8945285 36.03728485 39.63291931 36.03196716 C41.34822461 36.03177104 43.06340055 36.0833436 44.77758789 36.14526367 C46.53318731 37.90086309 45.90980709 40.18108809 45.91430664 42.51635742 C45.91043945 43.21889648 45.90657227 43.92143555 45.90258789 44.64526367 C45.90838867 45.69907227 45.90838867 45.69907227 45.91430664 46.77416992 C45.90420167 52.01864989 45.90420167 52.01864989 44.77758789 53.14526367 C42.32928363 53.2337016 39.9093819 53.26055119 37.46118164 53.24291992 C36.73012711 53.24150497 35.99907257 53.24009003 35.24586487 53.2386322 C32.90223157 53.23301775 30.5586925 53.22046289 28.21508789 53.20776367 C26.62980281 53.20275053 25.04451623 53.1981873 23.45922852 53.1940918 C19.56528246 53.18389288 15.67154112 53.16432054 11.77758789 53.14526367 C11.77758789 60.07526367 11.77758789 67.00526367 11.77758789 74.14526367 C15.96575195 74.11045898 15.96575195 74.11045898 20.23852539 74.07495117 C22.93578639 74.0593641 25.63304242 74.04721398 28.33032227 74.03540039 C30.20827471 74.02532833 32.08621142 74.01167005 33.96411133 73.99438477 C36.65978879 73.97018914 39.35525935 73.95879284 42.05102539 73.94995117 C42.89378021 73.9396286 43.73653503 73.92930603 44.60482788 73.91867065 C46.66380036 73.91827223 48.72226724 74.0226878 50.77758789 74.14526367 C52.77758789 76.14526367 52.77758789 76.14526367 53.04321289 79.11401367 C53.03805664 80.27932617 53.03290039 81.44463867 53.02758789 82.64526367 C53.03532227 84.39323242 53.03532227 84.39323242 53.04321289 86.17651367 C52.77758789 89.14526367 52.77758789 89.14526367 50.77758789 91.14526367 C48.41110229 91.38577271 48.41110229 91.38577271 45.40991211 91.37231445 C43.72839554 91.37208786 43.72839554 91.37208786 42.01290894 91.37185669 C40.79829987 91.36153412 39.5836908 91.35121155 38.33227539 91.34057617 C37.09212677 91.33774628 35.85197815 91.33491638 34.57424927 91.33200073 C31.27634157 91.32268542 27.97862817 91.30471257 24.68078613 91.28259277 C21.31594219 91.26213841 17.95106983 91.25299991 14.58618164 91.24291992 C7.98324066 91.22082886 1.38043018 91.1873285 -5.22241211 91.14526367 C-6.8347989 87.9204901 -6.36061428 84.39820695 -6.35180664 80.85595703 C-6.35355896 79.99895706 -6.35531128 79.14195709 -6.3571167 78.25898743 C-6.36152892 75.41767368 -6.35859968 72.57642184 -6.35522461 69.73510742 C-6.35589777 67.76737964 -6.35686789 65.79965194 -6.35812378 63.83192444 C-6.35959985 59.70516163 -6.35744887 55.57842045 -6.3527832 51.45166016 C-6.34708224 46.14945476 -6.35036783 40.84729994 -6.35635567 35.5450964 C-6.35996054 31.48148718 -6.3588231 27.41789005 -6.35622787 23.35428047 C-6.35555859 21.39855506 -6.35638707 19.44282857 -6.35870743 17.48710442 C-6.36123315 14.75976506 -6.35739468 12.0325089 -6.35180664 9.30517578 C-6.35383087 8.48904816 -6.3558551 7.67292053 -6.35794067 6.83206177 C-6.33378226 0.50139343 -6.27330113 0.02423781 0 0 Z " fill="#94C93E" transform="translate(764.222412109375,75.854736328125)"/>
<path d="M0 0 C6.0900661 3.9819663 10.80897786 10.40707628 12.65234375 17.515625 C13.88409536 26.31780503 13.41797446 34.29681157 8.078125 41.64453125 C2.19450361 48.57300264 -3.9845303 53.37958431 -13.296875 54.203125 C-21.77108454 54.36505257 -28.33013958 52.3926531 -35 47 C-42.65743106 38.55264447 -44.68608233 31.158272 -44.375 19.921875 C-43.62469439 12.07492885 -39.55623889 6.74211052 -33.859375 1.5078125 C-23.94394925 -6.53284788 -10.9670736 -6.15374685 0 0 Z " fill="#FDFEFB" transform="translate(610,225)"/>
<path d="M0 0 C1.03447266 0.00483398 1.03447266 0.00483398 2.08984375 0.00976562 C2.77949219 -0.00634766 3.46914063 -0.02246094 4.1796875 -0.0390625 C6.18359375 -0.04101562 6.18359375 -0.04101562 9.58984375 0.32226562 C12.0579754 4.02446311 11.8323157 5.85405313 11.81689453 10.2722168 C11.81718658 10.97491196 11.81747864 11.67760712 11.81777954 12.40159607 C11.81638683 14.72293469 11.80082862 17.04395186 11.78515625 19.36523438 C11.78142591 20.97520268 11.77857903 22.58517326 11.77658081 24.19514465 C11.76894602 28.43173495 11.74929888 32.66818803 11.72717285 36.90472412 C11.7067111 41.22813053 11.69757839 45.55155912 11.6875 49.875 C11.66605281 58.35748483 11.63191876 66.83985816 11.58984375 75.32226562 C13.12692993 75.3144104 13.12692993 75.3144104 14.69506836 75.30639648 C18.48379651 75.28834594 22.27252084 75.27683343 26.0612793 75.26733398 C27.70353839 75.26229389 29.34579298 75.25546184 30.98803711 75.24682617 C33.34359854 75.23474637 35.69910084 75.22903424 38.0546875 75.22460938 C38.79323471 75.21944809 39.53178192 75.2142868 40.29270935 75.20896912 C42.05882463 75.20877313 43.82481521 75.26031844 45.58984375 75.32226562 C46.58984375 76.32226562 46.58984375 76.32226562 46.72265625 79.44726562 C46.72007812 80.72601563 46.7175 82.00476563 46.71484375 83.32226562 C46.71871094 85.24039063 46.71871094 85.24039063 46.72265625 87.19726562 C46.58984375 90.32226562 46.58984375 90.32226562 45.58984375 91.32226562 C43.96856952 91.42088161 42.34302007 91.45025329 40.71875 91.45166016 C39.16208618 91.4563884 39.16208618 91.4563884 37.57397461 91.46121216 C35.88026733 91.45817581 35.88026733 91.45817581 34.15234375 91.45507812 C32.42673218 91.45651321 32.42673218 91.45651321 30.66625977 91.45797729 C28.22835231 91.45865931 25.79044305 91.45680353 23.35253906 91.45263672 C19.60607857 91.4472888 15.85973798 91.45258102 12.11328125 91.45898438 C9.75130182 91.4583236 7.38932246 91.45704244 5.02734375 91.45507812 C3.89820557 91.45710236 2.76906738 91.45912659 1.60571289 91.46121216 C0.04904907 91.45648392 0.04904907 91.45648392 -1.5390625 91.45166016 C-2.4576001 91.45086456 -3.3761377 91.45006897 -4.32250977 91.44924927 C-6.41015625 91.32226562 -6.41015625 91.32226562 -7.41015625 90.32226562 C-7.51596438 87.59413535 -7.55693521 84.89118778 -7.55541992 82.16235352 C-7.55877853 81.30710587 -7.56213715 80.45185822 -7.56559753 79.57069397 C-7.57513723 76.72875538 -7.57705215 73.88687551 -7.578125 71.04492188 C-7.58133546 69.07816035 -7.58469936 67.11139907 -7.58821106 65.14463806 C-7.59420987 61.01609747 -7.59605019 56.88757784 -7.59545898 52.7590332 C-7.59535731 47.45798093 -7.60901134 42.15706245 -7.62623119 36.85604191 C-7.63732707 32.79238767 -7.63937894 28.72876603 -7.63884926 24.66509819 C-7.64003296 22.71019466 -7.64447639 20.75529039 -7.65218163 18.80040169 C-7.66193312 16.07069543 -7.65912277 13.34128283 -7.65307617 10.61157227 C-7.65869568 9.79746887 -7.66431519 8.98336548 -7.67010498 8.14459229 C-7.6330134 1.58534942 -6.69901353 0.07182178 0 0 Z " fill="#95C740" transform="translate(786.41015625,203.677734375)"/>
<path d="M0 0 C23.44055944 0 23.44055944 0 30 4 C30.9075 4.53625 31.815 5.0725 32.75 5.625 C37.52788026 10.66831805 41.69845314 16.91364888 42 24 C42.04898438 24.66386719 42.09796875 25.32773438 42.1484375 26.01171875 C42.57391884 35.38867284 39.91650884 42.89980168 33.8984375 50.0859375 C29.74357507 54.27499632 25.8384398 55.83231204 20 57 C13.4 57 6.8 57 0 57 C0 38.19 0 19.38 0 0 Z " fill="#FDFEFC" transform="translate(881,221)"/>
<path d="M0 0 C2.91711224 2.70080095 4.75668005 5.12822177 6.5 8.6875 C23.07560927 39.95987114 49.8206673 65.74670695 81 82 C81.66338379 82.34804687 82.32676758 82.69609375 83.01025391 83.0546875 C99.66264768 91.66618056 117.47615867 97.21346226 136 100 C136 100.66 136 101.32 136 102 C123.43638569 101.74254889 112.0306877 100.6674393 100 97 C98.75863281 96.6390625 97.51726562 96.278125 96.23828125 95.90625 C86.60681474 92.92723842 77.82974515 88.82275068 69 84 C68.35498535 83.64921387 67.7099707 83.29842773 67.04541016 82.93701172 C57.39912263 77.61534235 49.19864031 71.32739515 41 64 C39.56256957 62.79158391 38.12507986 61.58323832 36.6875 60.375 C22.34927184 47.69002666 12.74808563 31.07057257 4.5625 14 C4.22025391 13.29407715 3.87800781 12.5881543 3.52539062 11.86083984 C1.67393818 7.90623547 0.48717087 4.39139938 0 0 Z " fill="#FBFEEC" transform="translate(67,171)"/>
<path d="M0 0 C3.51925483 -0.66123786 6.4983374 -0.82678145 10 0 C12.75553331 2.39428962 14.87361867 4.9165253 17.08984375 7.8125 C17.72019531 8.534375 18.35054687 9.25625 19 10 C19.99 10 20.98 10 22 10 C21.505 9.1028125 21.505 9.1028125 21 8.1875 C20 6 20 6 20 3 C23.67330433 3.70640468 26.69878197 5.27762538 30 7 C30.99 7.495 30.99 7.495 32 8 C32.9075 7.690625 33.815 7.38125 34.75 7.0625 C38.06726966 5.97800799 40.53769995 5.75844418 44 6 C45 7 45 7 45.09765625 8.84765625 C45.06510417 10.8984375 45.03255208 12.94921875 45 15 C37.14499565 19.959935 29.86173832 19.0741501 21 18 C20.896875 18.78375 20.79375 19.5675 20.6875 20.375 C20 23 20 23 17 25 C14.36565746 24.67873872 12.37289903 24.18644952 10 23 C7.70075503 22.72975292 5.40198513 22.55502159 3.09375 22.37890625 C1 22 1 22 -1 20 C-1.70710678 18.35008418 -2.37943989 16.68437744 -3 15 C-7.59896084 15.71858763 -11.68734627 17.32548976 -16 19 C-17.4788872 19.54242922 -18.95804415 20.08412367 -20.4375 20.625 C-23.76986075 21.63483929 -23.76986075 21.63483929 -25 23 C-27.67058851 23.14115161 -30.32432238 23.04247107 -33 23 C-32 21 -32 21 -29.65625 20.140625 C-26.54076197 18.80279779 -25.46592139 17.47632494 -23.5 14.75 C-22.90574219 13.94949219 -22.31148437 13.14898437 -21.69921875 12.32421875 C-21.13847656 11.55722656 -20.57773438 10.79023437 -20 10 C-14.61825662 2.95777381 -14.61825662 2.95777381 -11 2 C-4.69962222 2.12353682 -0.22502539 4.78915673 5 8 C3.68 9.32 2.36 10.64 1 12 C3.37897003 12.04510361 3.37897003 12.04510361 6 11 C7.67849824 8.7691525 8.75999263 6.52594094 10 4 C8.906875 3.896875 7.81375 3.79375 6.6875 3.6875 C2.94024845 2.98885988 2.34037259 2.68602762 0 0 Z " fill="#A8D0E4" transform="translate(206,76)"/>
<path d="M0 0 C3.83625 -0.103125 7.6725 -0.20625 11.625 -0.3125 C13.42251709 -0.38078003 13.42251709 -0.38078003 15.25634766 -0.45043945 C24.07706142 -0.56523464 24.07706142 -0.56523464 27.6796875 2.27734375 C30.71974594 5.84455037 31.71777104 8.36968105 32 13 C31.33857689 17.87799545 29.9516272 20.87330343 26.05957031 23.98120117 C21.60616893 26.18414617 16.46964751 25.49652755 11.625 25.3125 C5.870625 25.1578125 5.870625 25.1578125 0 25 C0 16.75 0 8.5 0 0 Z " fill="#FBFEF6" transform="translate(559,92)"/>
<path d="M0 0 C3.83625 -0.103125 7.6725 -0.20625 11.625 -0.3125 C13.42251709 -0.38078003 13.42251709 -0.38078003 15.25634766 -0.45043945 C24.0744248 -0.56520032 24.0744248 -0.56520032 27.6484375 2.33203125 C31.94070757 7.20183268 31.94070757 7.20183268 32.15234375 10.05078125 C31.5922733 15.94679566 30.31287051 18.89250427 26 23 C22.94080612 24.01973129 20.87581975 24.11533602 17.67578125 24.09765625 C16.74934814 24.09515869 15.82291504 24.09266113 14.8684082 24.09008789 C13.6949585 24.08098389 12.52150879 24.07187988 11.3125 24.0625 C7.579375 24.041875 3.84625 24.02125 0 24 C0 16.08 0 8.16 0 0 Z " fill="#FDFEFB" transform="translate(694,221)"/>
<path d="M0 0 C0.33 0 0.66 0 1 0 C1.02526563 7.81452752 1.04283105 15.62904458 1.05493164 23.44360352 C1.05997383 26.10441481 1.06680736 28.76522332 1.07543945 31.42602539 C1.08751009 35.24105516 1.09322929 39.05604844 1.09765625 42.87109375 C1.10281754 44.06899033 1.10797882 45.2668869 1.11329651 46.50108337 C1.11340981 48.15268211 1.11340981 48.15268211 1.11352539 49.83764648 C1.115746 50.81249496 1.11796661 51.78734344 1.12025452 52.79173279 C1 55 1 55 0 56 C-2.69654854 56.07319621 -5.36691458 56.09242537 -8.0625 56.0625 C-9.20041992 56.05573242 -9.20041992 56.05573242 -10.36132812 56.04882812 C-12.24091871 56.0370068 -14.12046899 56.01907078 -16 56 C-16 52.7 -16 49.4 -16 46 C-15.67 46 -15.34 46 -15 46 C-15 48.64 -15 51.28 -15 54 C-10.38 53.67 -5.76 53.34 -1 53 C-0.67 35.51 -0.34 18.02 0 0 Z " fill="#A2D64C" transform="translate(879,111)"/>
<path d="M0 0 C8.415 1.485 8.415 1.485 17 3 C17 3.66 17 4.32 17 5 C10.4 4.67 3.8 4.34 -3 4 C-2.01 3.67 -1.02 3.34 0 3 C0 2.01 0 1.02 0 0 Z " fill="#E7F3B8" transform="translate(186,268)"/>
<path d="M0 0 C1.77111844 0.47811177 3.54188483 0.9575278 5.3125 1.4375 C6.29863281 1.70433594 7.28476563 1.97117187 8.30078125 2.24609375 C10.21517526 2.78079425 12.11433615 3.37144538 14 4 C14 4.99 14 5.98 14 7 C9.83861737 7.08159574 6.0527516 6.98248524 2 6 C2 5.67 2 5.34 2 5 C3.65 5 5.3 5 7 5 C7 4.34 7 3.68 7 3 C6.030625 2.87625 5.06125 2.7525 4.0625 2.625 C3.051875 2.41875 2.04125 2.2125 1 2 C0.67 1.34 0.34 0.68 0 0 Z " fill="#F8FDD4" transform="translate(172,264)"/>
<path d="M0 0 C2.64590014 -0.02684679 5.29153096 -0.04676357 7.9375 -0.0625 C8.69224609 -0.07087891 9.44699219 -0.07925781 10.22460938 -0.08789062 C12.14994313 -0.09652441 14.07535581 -0.05224333 16 0 C17 1 17 1 17.0625 3.5625 C17.041875 4.366875 17.02125 5.17125 17 6 C16.34 5.01 15.68 4.02 15 3 C11.65386488 2.41312216 11.65386488 2.41312216 7.875 2.3125 C6.59367187 2.24675781 5.31234375 2.18101562 3.9921875 2.11328125 C3.00476563 2.07589844 2.01734375 2.03851563 1 2 C0.67 2.66 0.34 3.32 0 4 C0 2.68 0 1.36 0 0 Z " fill="#9FD34B" transform="translate(413,204)"/>
<path d="M0 0 C1.65 0.33 3.3 0.66 5 1 C4.3125 2.9375 4.3125 2.9375 3 5 C0.375 5.75 0.375 5.75 -2 6 C-2 3 -2 3 0 1 C0 0.67 0 0.34 0 0 Z " fill="#EDFCFE" transform="translate(209,83)"/>
<path d="M0 0 C0.66 0.33 1.32 0.66 2 1 C-0.90673575 5.22797927 -0.90673575 5.22797927 -3 7 C-6.8125 7.375 -6.8125 7.375 -10 7 C-6.81404865 4.36021174 -3.69029454 1.89501612 0 0 Z " fill="#AED348" transform="translate(270,261)"/>
<path d="M0 0 C1 2 1 2 0.25 4.4375 C-0.93098981 6.85852911 -1.9831559 8.25818009 -4 10 C-4.99 9.67 -5.98 9.34 -7 9 C-6.02180976 7.68677212 -5.0424189 6.37443848 -4.0625 5.0625 C-3.51722656 4.33160156 -2.97195312 3.60070312 -2.41015625 2.84765625 C-1 1 -1 1 0 0 Z " fill="#EAFAFE" transform="translate(174,63)"/>
<path d="M0 0 C4.76132597 4.30055249 4.76132597 4.30055249 5 8 C4.01 9.485 4.01 9.485 3 11 C2.49632243 9.54293274 1.99717444 8.08429904 1.5 6.625 C1.2215625 5.81289062 0.943125 5.00078125 0.65625 4.1640625 C0 2 0 2 0 0 Z " fill="#F3FDC8" transform="translate(67,171)"/>
<path d="M0 0 C3.7952131 1.49097658 5.61042731 3.75700849 8 7 C4.21388773 6.45912682 2.44599233 4.88277668 0 2 C0 1.34 0 0.68 0 0 Z " fill="#98D13F" transform="translate(898,107)"/>
<path d="M0 0 C0.66 0.33 1.32 0.66 2 1 C-0.64 3.64 -3.28 6.28 -6 9 C-6.66 8.67 -7.32 8.34 -8 8 C-5.58443874 4.80800833 -3.31996462 2.25283313 0 0 Z " fill="#EDFBD5" transform="translate(446,96)"/>
<path d="M0 0 C1.42944945 2.35438733 2.08661261 3.48032433 1.625 6.25 C1.41875 6.8275 1.2125 7.405 1 8 C0.01 8 -0.98 8 -2 8 C-2 6.68 -2 5.36 -2 4 C-1.34 4 -0.68 4 0 4 C0 2.68 0 1.36 0 0 Z " fill="#ADD241" transform="translate(229,279)"/>
<path d="M0 0 C0 0.99 0 1.98 0 3 C-1.175625 2.9071875 -1.175625 2.9071875 -2.375 2.8125 C-3.674375 2.9053125 -3.674375 2.9053125 -5 3 C-5.66 3.99 -6.32 4.98 -7 6 C-7 4.35 -7 2.7 -7 1 C-4.53721199 -0.231394 -2.7204945 -0.07159196 0 0 Z " fill="#9ED447" transform="translate(869,74)"/>
</svg>
