<?xml version="1.0" encoding="UTF-8"?>
<!DOCTYPE svg PUBLIC "-//W3C//DTD SVG 1.1//EN" "http://www.w3.org/Graphics/SVG/1.1/DTD/svg11.dtd">
<svg xmlns="http://www.w3.org/2000/svg" version="1.1" width="1000px" height="390px" style="shape-rendering:geometricPrecision; text-rendering:geometricPrecision; image-rendering:optimizeQuality; fill-rule:evenodd; clip-rule:evenodd" xmlns:xlink="http://www.w3.org/1999/xlink">
<g><path style="opacity:0.988" fill="#92c63d" d="M 454.5,73.5 C 466.421,72.7513 477.421,75.5846 487.5,82C 490.224,83.5221 492.224,85.6888 493.5,88.5C 490.542,93.1256 486.876,97.1256 482.5,100.5C 471.424,91.7054 459.424,90.2054 446.5,96C 435.835,103.841 431.669,114.341 434,127.5C 437.955,141.284 447.122,148.617 461.5,149.5C 465.596,149.114 469.596,148.281 473.5,147C 475.362,143.851 476.029,140.351 475.5,136.5C 471.233,136.797 467.066,136.464 463,135.5C 462.223,130.778 462.39,126.111 463.5,121.5C 473.394,120.182 483.227,120.182 493,121.5C 494.126,127.563 494.626,133.729 494.5,140C 494.469,146.035 494.136,152.035 493.5,158C 483.781,164.642 472.948,167.808 461,167.5C 427.421,164.581 411.754,146.248 414,112.5C 419.235,90.7626 432.735,77.7626 454.5,73.5 Z"/></g>
<g><path style="opacity:0.981" fill="#92c63d" d="M 863.5,73.5 C 865.199,73.3398 866.866,73.5065 868.5,74C 885.32,92.4533 902.486,110.62 920,128.5C 920.333,111.167 920.667,93.8333 921,76.5C 923.757,74.9733 926.757,74.3066 930,74.5C 932.557,74.5546 935.057,74.8879 937.5,75.5C 938.5,106.159 938.833,136.826 938.5,167.5C 936.143,167.663 933.81,167.497 931.5,167C 913.964,148.466 896.798,129.633 880,110.5C 879.667,128.833 879.333,147.167 879,165.5C 873.333,166.833 867.667,166.833 862,165.5C 861.833,150.333 861.667,135.167 861.5,120C 861.515,104.28 862.182,88.7798 863.5,73.5 Z"/></g>
<g><path style="opacity:0.99" fill="#94c740" d="M 542.5,74.5 C 557.54,74.1238 572.54,74.6238 587.5,76C 604.638,82.4417 611.138,94.6084 607,112.5C 603.833,121 598,126.833 589.5,130C 595.714,140.258 601.547,150.758 607,161.5C 607.72,163.112 607.554,164.612 606.5,166C 600.5,166.667 594.5,166.667 588.5,166C 582.706,154.911 577.039,143.745 571.5,132.5C 567.217,131.508 562.884,131.174 558.5,131.5C 558.956,142.936 558.456,154.269 557,165.5C 551.333,166.833 545.667,166.833 540,165.5C 539.333,135.833 539.333,106.167 540,76.5C 540.995,75.9341 541.828,75.2674 542.5,74.5 Z M 558.5,92.5 C 566.507,92.3336 574.507,92.5003 582.5,93C 589.489,97.1278 591.322,102.961 588,110.5C 586.457,112.378 584.624,113.878 582.5,115C 574.507,115.5 566.507,115.666 558.5,115.5C 558.5,107.833 558.5,100.167 558.5,92.5 Z"/></g>
<g><path style="opacity:1" fill="#93c73f" d="M 656.5,74.5 C 674.17,74.3334 691.836,74.5001 709.5,75C 710.416,75.3742 711.25,75.8742 712,76.5C 712.667,81.1667 712.667,85.8333 712,90.5C 711.5,91 711,91.5 710.5,92C 697.504,92.4999 684.504,92.6666 671.5,92.5C 671.5,98.8333 671.5,105.167 671.5,111.5C 682.505,111.333 693.505,111.5 704.5,112C 705,112.5 705.5,113 706,113.5C 706.667,117.833 706.667,122.167 706,126.5C 705.5,127 705,127.5 704.5,128C 693.505,128.5 682.505,128.667 671.5,128.5C 671.5,135.5 671.5,142.5 671.5,149.5C 685.247,148.862 698.747,149.529 712,151.5C 712.777,156.222 712.61,160.889 711.5,165.5C 692.269,166.825 673.102,166.825 654,165.5C 653.333,135.833 653.333,106.167 654,76.5C 654.995,75.9341 655.828,75.2674 656.5,74.5 Z"/></g>
<g><path style="opacity:1" fill="#93c73f" d="M 760.5,74.5 C 778.17,74.3334 795.836,74.5001 813.5,75C 814.416,75.3742 815.25,75.8742 816,76.5C 816.667,81.1667 816.667,85.8333 816,90.5C 815.5,91 815,91.5 814.5,92C 801.504,92.4999 788.504,92.6666 775.5,92.5C 775.5,98.8333 775.5,105.167 775.5,111.5C 786.505,111.333 797.505,111.5 808.5,112C 809.833,117.333 809.833,122.667 808.5,128C 797.505,128.5 786.505,128.667 775.5,128.5C 775.5,135.5 775.5,142.5 775.5,149.5C 788.504,149.333 801.504,149.5 814.5,150C 815,150.5 815.5,151 816,151.5C 816.777,156.222 816.61,160.889 815.5,165.5C 796.269,166.825 777.102,166.825 758,165.5C 757.333,135.833 757.333,106.167 758,76.5C 758.995,75.9341 759.828,75.2674 760.5,74.5 Z"/></g>
<g><path style="opacity:0.998" fill="#a9d0e4" d="M 170.5,98.5 C 166.783,108.719 161.95,118.386 156,127.5C 149.007,142.712 151.174,156.545 162.5,169C 162,169.5 161.5,170 161,170.5C 140.998,155.659 118.831,145.326 94.5,139.5C 99.8236,108.044 115.49,82.8771 141.5,64C 185.334,36.3719 229.668,36.7052 274.5,65C 313.427,96.0364 328.261,136.203 319,185.5C 306.694,229.639 278.527,257.973 234.5,270.5C 230.121,258.876 225.621,247.209 221,235.5C 209.131,213.3 193.297,194.467 173.5,179C 173.833,178.5 174.167,178 174.5,177.5C 179.365,179.326 184.365,179.159 189.5,177C 193.52,173.649 198.02,171.149 203,169.5C 206.01,171.183 209.01,172.85 212,174.5C 214.667,173.833 217.333,173.167 220,172.5C 221.464,173.459 222.297,174.792 222.5,176.5C 221.33,179.849 221.33,183.182 222.5,186.5C 235.965,194.591 240.298,206.091 235.5,221C 238.92,224.642 241.753,228.809 244,233.5C 247.349,237.016 250.849,240.349 254.5,243.5C 269.701,237.47 278.868,226.47 282,210.5C 285.499,206.328 288.166,201.662 290,196.5C 289.668,187.514 289.668,178.514 290,169.5C 295.101,158.032 297.101,146.032 296,133.5C 295.71,131.048 295.044,128.715 294,126.5C 292.77,129.732 290.77,132.399 288,134.5C 286.073,129.572 282.573,126.406 277.5,125C 269.062,116.571 261.729,107.404 255.5,97.5C 256.552,97.3505 257.552,97.5172 258.5,98C 263.99,103.825 270.323,108.491 277.5,112C 280.996,116.498 283.829,121.331 286,126.5C 293.471,119.895 295.305,111.895 291.5,102.5C 289.833,100.167 287.833,98.1667 285.5,96.5C 284.614,97.325 284.281,98.325 284.5,99.5C 281.535,98.3552 278.535,97.1886 275.5,96C 274.034,94.4478 273.034,92.6145 272.5,90.5C 273.723,89.3861 275.056,89.2195 276.5,90C 278.265,91.2978 280.099,92.4645 282,93.5C 284.118,92.8041 286.284,92.6374 288.5,93C 264.394,61.065 232.394,48.065 192.5,54C 190.779,54.7393 189.113,55.5726 187.5,56.5C 189.389,57.0685 191.723,57.4018 194.5,57.5C 194.833,57.8333 195.167,58.1667 195.5,58.5C 194.311,59.4287 192.978,59.762 191.5,59.5C 191.762,60.9778 191.429,62.3112 190.5,63.5C 188.639,64.5283 187.305,66.0283 186.5,68C 183.645,67.2313 180.645,66.7313 177.5,66.5C 177.66,64.8008 177.494,63.1341 177,61.5C 176.097,62.7014 174.931,63.5348 173.5,64C 174.274,66.405 174.774,68.905 175,71.5C 177.532,69.3901 180.032,68.8901 182.5,70C 181.042,72.1211 179.042,73.4544 176.5,74C 178.34,76.8263 179.006,79.9929 178.5,83.5C 167.336,82.25 163.336,86.9167 166.5,97.5C 167.736,98.2458 169.07,98.5792 170.5,98.5 Z M 170.5,67.5 C 171.525,67.8966 171.692,68.5632 171,69.5C 170.163,71.0074 168.996,71.5074 167.5,71C 168.71,69.9609 169.71,68.7942 170.5,67.5 Z"/></g>
<g><path style="opacity:0.998" fill="#abd1e4" d="M 170.5,98.5 C 172.7,96.3596 175.367,94.8596 178.5,94C 181.747,90.5837 184.414,86.7503 186.5,82.5C 189.092,79.619 192.259,77.619 196,76.5C 201.459,78.1543 206.625,80.4877 211.5,83.5C 210.221,85.1461 208.555,86.3128 206.5,87C 207.833,87.6667 209.167,87.6667 210.5,87C 211.939,84.7754 213.606,82.7754 215.5,81C 211.532,80.1773 207.865,78.6773 204.5,76.5C 203.614,75.675 203.281,74.675 203.5,73.5C 207.49,73.9987 211.49,74.4987 215.5,75C 218.603,79.1069 222.103,82.9403 226,86.5C 227.895,84.5652 227.562,82.8985 225,81.5C 224.51,80.2068 224.343,78.8734 224.5,77.5C 229.223,78.2461 233.389,80.2461 237,83.5C 241.653,80.3947 246.32,80.0614 251,82.5C 251.667,85.1667 251.667,87.8333 251,90.5C 248.186,91.9664 245.353,93.4664 242.5,95C 237.123,95.1585 231.79,94.6585 226.5,93.5C 226.16,101.647 222.493,103.48 215.5,99C 212.5,98.6667 209.5,98.3333 206.5,98C 204.232,96.4423 203.066,94.2756 203,91.5C 202.439,90.9781 201.772,90.6448 201,90.5C 194.052,93.1468 187.218,95.9801 180.5,99C 177.076,99.7466 173.743,99.58 170.5,98.5 Z"/></g>
<g><path style="opacity:1" fill="#a7ce3c" d="M 381.5,122.5 C 382.833,122.5 384.167,122.5 385.5,122.5C 385.167,125.833 384.833,129.167 384.5,132.5C 384.5,132.833 384.5,133.167 384.5,133.5C 383.59,135.019 382.757,136.685 382,138.5C 380.986,144.218 379.82,149.885 378.5,155.5C 378.483,157.565 378.15,159.565 377.5,161.5C 375.179,163.09 374.179,165.423 374.5,168.5C 374.5,169.167 374.5,169.833 374.5,170.5C 372.386,171.784 371.386,173.784 371.5,176.5C 371.5,176.833 371.5,177.167 371.5,177.5C 368.846,179.834 367.512,182.834 367.5,186.5C 367.672,187.492 367.338,188.158 366.5,188.5C 364.286,191.503 362.286,194.836 360.5,198.5C 359.624,199.251 358.624,199.751 357.5,200C 358.605,202.12 358.605,204.287 357.5,206.5C 355.386,207.784 354.386,209.784 354.5,212.5C 353.525,214.795 352.192,216.795 350.5,218.5C 346.306,219.853 344.306,222.853 344.5,227.5C 340.587,234.082 335.587,239.749 329.5,244.5C 328.85,244.196 328.183,243.863 327.5,243.5C 325.878,244.933 324.545,246.599 323.5,248.5C 321.898,247.45 321.065,248.117 321,250.5C 319.334,249.66 319.167,250.16 320.5,252C 317.209,251.126 316.209,252.293 317.5,255.5C 313.759,256.706 310.093,258.206 306.5,260C 307.413,261.414 307.413,262.914 306.5,264.5C 304.795,266.192 302.795,267.525 300.5,268.5C 295.178,269.66 290.178,271.66 285.5,274.5C 284.388,275.265 283.721,276.265 283.5,277.5C 276.752,278.334 270.752,280.668 265.5,284.5C 263.143,284.337 260.81,284.503 258.5,285C 256.347,285.099 254.681,285.933 253.5,287.5C 250.946,288.388 248.279,288.721 245.5,288.5C 241.821,288.94 238.488,288.273 235.5,286.5C 235.5,285.5 235.5,284.5 235.5,283.5C 235.5,280.833 235.5,278.167 235.5,275.5C 239.823,275.227 243.99,274.227 248,272.5C 248.873,272.735 249.707,273.069 250.5,273.5C 250.345,272.164 251.012,270.831 252.5,269.5C 258.809,266.209 265.142,262.875 271.5,259.5C 275.542,258.149 278.875,255.815 281.5,252.5C 285.264,247.802 289.597,243.802 294.5,240.5C 300.629,235.545 305.295,229.545 308.5,222.5C 314.93,211.642 320.263,200.309 324.5,188.5C 325.117,188.389 325.617,188.056 326,187.5C 326.495,185.527 326.662,183.527 326.5,181.5C 327.725,180.848 328.392,179.681 328.5,178C 329.237,173.863 329.571,169.697 329.5,165.5C 329.5,163.833 329.5,162.167 329.5,160.5C 330.268,159.737 330.768,158.737 331,157.5C 331.733,147.14 331.567,136.806 330.5,126.5C 347.694,125.753 364.694,124.42 381.5,122.5 Z"/></g>
<g><path style="opacity:0.747" fill="#bdd96c" d="M 376.5,122.5 C 378.167,122.5 379.833,122.5 381.5,122.5C 364.694,124.42 347.694,125.753 330.5,126.5C 345.558,123.677 360.891,122.344 376.5,122.5 Z"/></g>
<g><path style="opacity:0.4" fill="#dae9ad" d="M 376.5,122.5 C 380.019,121.192 383.685,121.192 387.5,122.5C 386.74,126.02 385.74,129.353 384.5,132.5C 384.833,129.167 385.167,125.833 385.5,122.5C 384.167,122.5 382.833,122.5 381.5,122.5C 379.833,122.5 378.167,122.5 376.5,122.5 Z"/></g>
<g><path style="opacity:0.035" fill="#dbe9b4" d="M 37.5,133.5 C 45.55,132.169 53.55,132.503 61.5,134.5C 58.5,134.5 55.5,134.5 52.5,134.5C 47.6946,133.513 42.6946,133.179 37.5,133.5 Z"/></g>
<g><path style="opacity:0.634" fill="#c6dc7d" d="M 37.5,133.5 C 42.6946,133.179 47.6946,133.513 52.5,134.5C 47.8333,134.5 43.1667,134.5 38.5,134.5C 39.0329,145.826 39.3663,157.159 39.5,168.5C 38.0692,158.525 37.0692,148.359 36.5,138C 36.5085,136.293 36.8418,134.793 37.5,133.5 Z"/></g>
<g><path style="opacity:1" fill="#a6ce3b" d="M 52.5,134.5 C 55.5,134.5 58.5,134.5 61.5,134.5C 67.0993,137.024 73.0993,138.358 79.5,138.5C 83.3222,141.231 87.6555,142.564 92.5,142.5C 95.5982,143.216 98.5982,144.216 101.5,145.5C 102.911,147.539 104.911,148.539 107.5,148.5C 107.833,148.5 108.167,148.5 108.5,148.5C 109.607,150.969 111.607,151.969 114.5,151.5C 116.674,151.75 118.341,152.75 119.5,154.5C 121.09,156.821 123.423,157.821 126.5,157.5C 130.193,161.685 134.859,164.352 140.5,165.5C 141.71,165.932 142.71,166.599 143.5,167.5C 144.733,169.796 146.733,171.13 149.5,171.5C 149.833,171.5 150.167,171.5 150.5,171.5C 151.13,174.705 153.13,176.371 156.5,176.5C 156.833,176.5 157.167,176.5 157.5,176.5C 157.722,178.607 158.722,180.274 160.5,181.5C 159.167,181.833 157.833,182.167 156.5,182.5C 158.108,183.318 159.775,183.985 161.5,184.5C 163.482,183.377 165.482,183.377 167.5,184.5C 169.66,186.206 170.826,188.54 171,191.5C 171.718,190.549 172.551,190.383 173.5,191C 172.269,192.183 172.269,193.349 173.5,194.5C 173.833,193.833 174.167,193.167 174.5,192.5C 175.736,193.246 177.07,193.579 178.5,193.5C 182.833,197.167 186.833,201.167 190.5,205.5C 192.094,208.764 194.427,211.431 197.5,213.5C 206.502,223.485 213.502,234.818 218.5,247.5C 219.178,253.246 221.011,258.58 224,263.5C 224.497,266.146 224.664,268.813 224.5,271.5C 225.5,271.5 226.5,271.5 227.5,271.5C 228.434,272.568 228.768,273.901 228.5,275.5C 228.742,279.479 229.742,283.146 231.5,286.5C 232.675,290.042 233.341,293.709 233.5,297.5C 234.833,316.5 234.833,335.5 233.5,354.5C 233.167,354.5 232.833,354.5 232.5,354.5C 228.5,355.833 224.5,355.833 220.5,354.5C 220.5,349.833 220.5,345.167 220.5,340.5C 220.5,331.833 220.5,323.167 220.5,314.5C 220.249,310.751 219.583,307.085 218.5,303.5C 217.167,303.5 215.833,303.5 214.5,303.5C 214.167,303.5 213.833,303.5 213.5,303.5C 197.79,303.901 182.123,303.401 166.5,302C 167.5,301.667 168.5,301.333 169.5,301C 165.833,300.667 162.167,300.333 158.5,300C 161.121,299.094 160.954,298.594 158,298.5C 155.863,299.077 153.696,299.41 151.5,299.5C 141.487,297.388 132.154,293.722 123.5,288.5C 121.206,285.824 118.539,283.491 115.5,281.5C 113.929,280.691 112.262,280.357 110.5,280.5C 108.596,280.262 107.262,279.262 106.5,277.5C 105.089,275.086 103.089,273.419 100.5,272.5C 99.4154,270.413 97.7488,269.08 95.5,268.5C 91.5,265.167 87.8333,261.5 84.5,257.5C 84.5123,254.858 83.179,253.525 80.5,253.5C 80.5,253.167 80.5,252.833 80.5,252.5C 79.5868,250.914 79.5868,249.414 80.5,248C 77.9398,247.616 75.6064,246.783 73.5,245.5C 73.1667,244.833 72.8333,244.167 72.5,243.5C 72.5123,240.858 71.179,239.525 68.5,239.5C 61.8957,231.297 56.5624,222.297 52.5,212.5C 52.3404,210.847 51.6737,209.514 50.5,208.5C 48.3582,205.2 47.0249,201.533 46.5,197.5C 45.9431,192.835 44.6098,188.502 42.5,184.5C 42.6646,181.482 42.498,178.482 42,175.5C 41.9633,173.026 41.13,171.026 39.5,169.5C 39.5,169.167 39.5,168.833 39.5,168.5C 39.3663,157.159 39.0329,145.826 38.5,134.5C 43.1667,134.5 47.8333,134.5 52.5,134.5 Z M 71.5,180.5 C 72.2719,181.694 73.2719,182.694 74.5,183.5C 74.7329,185.062 75.3995,186.395 76.5,187.5C 77.604,189.389 78.9373,191.055 80.5,192.5C 80.5,192.833 80.5,193.167 80.5,193.5C 81.7007,195.909 83.3674,197.909 85.5,199.5C 85.5,199.833 85.5,200.167 85.5,200.5C 88.4864,204.817 91.8197,208.817 95.5,212.5C 96.5,214.167 97.8333,215.5 99.5,216.5C 101.575,219.242 103.909,221.576 106.5,223.5C 106.5,223.833 106.5,224.167 106.5,224.5C 106.973,225.906 107.973,226.573 109.5,226.5C 112.231,230.234 115.564,233.234 119.5,235.5C 132.054,246.62 146.387,254.953 162.5,260.5C 164.102,262.074 166.102,262.741 168.5,262.5C 170.509,264.065 172.843,265.065 175.5,265.5C 175.833,265.5 176.167,265.5 176.5,265.5C 179.505,267.277 182.838,268.277 186.5,268.5C 187.708,269.234 189.041,269.567 190.5,269.5C 190.5,269.833 190.5,270.167 190.5,270.5C 188.833,270.5 187.167,270.5 185.5,270.5C 185.167,270.5 184.833,270.5 184.5,270.5C 181.411,269.215 178.078,268.549 174.5,268.5C 174.167,268.5 173.833,268.5 173.5,268.5C 171.485,267.076 169.152,266.41 166.5,266.5C 161.059,264.129 155.392,262.129 149.5,260.5C 146.696,258.595 143.696,256.929 140.5,255.5C 139.167,255.167 137.833,254.833 136.5,254.5C 127.246,248.588 118.246,242.255 109.5,235.5C 108.5,233.833 107.167,232.5 105.5,231.5C 102.492,228.789 99.4923,226.122 96.5,223.5C 93.5892,218.254 89.9225,213.587 85.5,209.5C 82.4965,204.159 79.4965,198.825 76.5,193.5C 74.3351,189.343 72.6685,185.01 71.5,180.5 Z"/></g>
<g><path style="opacity:0.761" fill="#c9df87" d="M 61.5,134.5 C 67.8182,134.916 73.8182,136.249 79.5,138.5C 73.0993,138.358 67.0993,137.024 61.5,134.5 Z"/></g>
<g><path style="opacity:0.216" fill="#cbe085" d="M 330.5,126.5 C 331.567,136.806 331.733,147.14 331,157.5C 330.768,158.737 330.268,159.737 329.5,160.5C 330.393,149.006 330.727,137.673 330.5,126.5 Z"/></g>
<g><path style="opacity:0.329" fill="#cee18b" d="M 79.5,138.5 C 84.1646,139.057 88.4979,140.39 92.5,142.5C 87.6555,142.564 83.3222,141.231 79.5,138.5 Z"/></g>
<g><path style="opacity:0.655" fill="#cce08e" d="M 384.5,133.5 C 383.413,141.189 381.413,148.522 378.5,155.5C 379.82,149.885 380.986,144.218 382,138.5C 382.757,136.685 383.59,135.019 384.5,133.5 Z"/></g>
<g><path style="opacity:0.067" fill="#deedb6" d="M 101.5,145.5 C 103.819,145.992 105.819,146.992 107.5,148.5C 104.911,148.539 102.911,147.539 101.5,145.5 Z"/></g>
<g><path style="opacity:0.259" fill="#cee293" d="M 108.5,148.5 C 110.574,149.514 112.574,150.514 114.5,151.5C 111.607,151.969 109.607,150.969 108.5,148.5 Z"/></g>
<g><path style="opacity:0.886" fill="#cae08b" d="M 119.5,154.5 C 122.241,154.707 124.574,155.707 126.5,157.5C 123.423,157.821 121.09,156.821 119.5,154.5 Z"/></g>
<g><path style="opacity:0.329" fill="#cde18f" d="M 126.5,157.5 C 131.528,159.676 136.194,162.343 140.5,165.5C 134.859,164.352 130.193,161.685 126.5,157.5 Z"/></g>
<g><path style="opacity:1" fill="#cde190" d="M 69.5,175.5 C 68.8333,175.5 68.5,175.833 68.5,176.5C 67.8826,176.389 67.3826,176.056 67,175.5C 65.6623,171.483 64.6623,167.483 64,163.5C 66.129,167.316 67.9623,171.316 69.5,175.5 Z"/></g>
<g><path style="opacity:0.353" fill="#d1e69c" d="M 377.5,161.5 C 376.677,163.987 375.677,166.321 374.5,168.5C 374.179,165.423 375.179,163.09 377.5,161.5 Z"/></g>
<g><path style="opacity:0.502" fill="#d8e6a5" d="M 143.5,167.5 C 145.882,168.351 147.882,169.684 149.5,171.5C 146.733,171.13 144.733,169.796 143.5,167.5 Z"/></g>
<g><path style="opacity:0.173" fill="#dae8a7" d="M 374.5,170.5 C 373.87,172.75 372.87,174.75 371.5,176.5C 371.386,173.784 372.386,171.784 374.5,170.5 Z"/></g>
<g><path style="opacity:0.537" fill="#cce090" d="M 150.5,171.5 C 152.54,173.177 154.54,174.844 156.5,176.5C 153.13,176.371 151.13,174.705 150.5,171.5 Z"/></g>
<g><path style="opacity:0.769" fill="#c6dd83" d="M 39.5,169.5 C 41.13,171.026 41.9633,173.026 42,175.5C 42.498,178.482 42.6646,181.482 42.5,184.5C 40.8625,179.752 39.8625,174.752 39.5,169.5 Z"/></g>
<g><path style="opacity:0.69" fill="#d0e696" d="M 70.5,178.5 C 70.5,178.167 70.5,177.833 70.5,177.5C 72.7964,178.733 74.1298,180.733 74.5,183.5C 73.2719,182.694 72.2719,181.694 71.5,180.5C 71.6716,179.508 71.3382,178.842 70.5,178.5 Z"/></g>
<g><path style="opacity:0.914" fill="#c0da74" d="M 329.5,165.5 C 329.571,169.697 329.237,173.863 328.5,178C 328.392,179.681 327.725,180.848 326.5,181.5C 327.218,175.989 328.218,170.656 329.5,165.5 Z"/></g>
<g><path style="opacity:0.694" fill="#d2e199" d="M 371.5,177.5 C 370.917,180.947 369.584,183.947 367.5,186.5C 367.512,182.834 368.846,179.834 371.5,177.5 Z"/></g>
<g><path style="opacity:1" fill="#bad765" d="M 157.5,176.5 C 161.146,178.817 164.48,181.484 167.5,184.5C 165.482,183.377 163.482,183.377 161.5,184.5C 159.775,183.985 158.108,183.318 156.5,182.5C 157.833,182.167 159.167,181.833 160.5,181.5C 158.722,180.274 157.722,178.607 157.5,176.5 Z"/></g>
<g><path style="opacity:0.31" fill="#cee38e" d="M 326.5,181.5 C 326.662,183.527 326.495,185.527 326,187.5C 325.617,188.056 325.117,188.389 324.5,188.5C 324.41,185.848 325.076,183.515 326.5,181.5 Z"/></g>
<g><path style="opacity:0.282" fill="#d0e393" d="M 76.5,187.5 C 78.9971,188.129 80.3304,189.796 80.5,192.5C 78.9373,191.055 77.604,189.389 76.5,187.5 Z"/></g>
<g><path style="opacity:1" fill="#c3db77" d="M 167.5,184.5 C 171.482,187.152 175.149,190.152 178.5,193.5C 177.07,193.579 175.736,193.246 174.5,192.5C 174.167,193.167 173.833,193.833 173.5,194.5C 172.269,193.349 172.269,192.183 173.5,191C 172.551,190.383 171.718,190.549 171,191.5C 170.826,188.54 169.66,186.206 167.5,184.5 Z"/></g>
<g><path style="opacity:0.745" fill="#cadf88" d="M 68.5,176.5 C 69.4916,176.328 70.1583,176.662 70.5,177.5C 69.1667,177.833 69.1667,178.167 70.5,178.5C 70.3284,179.492 70.6618,180.158 71.5,180.5C 72.6685,185.01 74.3351,189.343 76.5,193.5C 74.9256,193.063 73.7589,192.063 73,190.5C 71.1547,185.842 69.6547,181.176 68.5,176.5 Z"/></g>
<g><path style="opacity:0.435" fill="#c9e084" d="M 42.5,184.5 C 44.6098,188.502 45.9431,192.835 46.5,197.5C 44.3902,193.498 43.0569,189.165 42.5,184.5 Z"/></g>
<g><path style="opacity:0.102" fill="#cce391" d="M 80.5,193.5 C 83.7046,194.13 85.3712,196.13 85.5,199.5C 83.3674,197.909 81.7007,195.909 80.5,193.5 Z"/></g>
<g><path style="opacity:1" fill="#c6dd81" d="M 366.5,188.5 C 364.519,195.128 361.519,201.128 357.5,206.5C 358.605,204.287 358.605,202.12 357.5,200C 358.624,199.751 359.624,199.251 360.5,198.5C 362.286,194.836 364.286,191.503 366.5,188.5 Z"/></g>
<g><path style="opacity:0.994" fill="#93c73e" d="M 584.5,202.5 C 622.974,201.474 641.474,220.14 640,258.5C 632.463,284.859 614.963,297.359 587.5,296C 566.748,292.58 553.581,280.747 548,260.5C 543.748,230.645 555.914,211.312 584.5,202.5 Z M 589.5,220.5 C 613.231,221.722 623.731,234.055 621,257.5C 614.962,272.608 603.796,279.108 587.5,277C 570.893,271.962 563.726,260.795 566,243.5C 569.117,230.882 576.95,223.215 589.5,220.5 Z"/></g>
<g><path style="opacity:1" fill="#bdd86b" d="M 85.5,200.5 C 87.8669,201.164 89.8669,202.497 91.5,204.5C 92.086,204.291 92.586,203.957 93,203.5C 94.1498,206.418 94.9831,209.418 95.5,212.5C 91.8197,208.817 88.4864,204.817 85.5,200.5 Z"/></g>
<g><path style="opacity:0.999" fill="#92c63d" d="M 463.5,202.5 C 465.924,202.192 468.257,202.526 470.5,203.5C 477.049,220.654 483.882,237.654 491,254.5C 495.021,237.747 499.355,221.081 504,204.5C 509.667,203.167 515.333,203.167 521,204.5C 520.658,209.889 519.658,215.222 518,220.5C 511.178,244.122 504.511,267.789 498,291.5C 496.406,296.752 493.406,297.752 489,294.5C 481.772,275.712 474.272,257.045 466.5,238.5C 458.64,257.41 450.974,276.41 443.5,295.5C 440.718,296.952 438.218,296.619 436,294.5C 427.355,264.583 419.355,234.583 412,204.5C 417.667,203.167 423.333,203.167 429,204.5C 433.667,221.167 438.333,237.833 443,254.5C 449.572,237.029 456.405,219.696 463.5,202.5 Z"/></g>
<g><path style="opacity:0.996" fill="#93c73f" d="M 675.5,203.5 C 691.89,203.06 708.224,203.56 724.5,205C 741.063,213.008 746.563,225.842 741,243.5C 737.145,250.022 731.978,255.189 725.5,259C 730.865,269.563 736.365,280.063 742,290.5C 742.684,291.784 742.517,292.951 741.5,294C 735.561,295.784 729.561,295.951 723.5,294.5C 717.411,283.323 711.578,271.99 706,260.5C 701.599,259.533 697.099,259.2 692.5,259.5C 692.832,271.186 692.499,282.852 691.5,294.5C 689.057,295.112 686.557,295.445 684,295.5C 680.757,295.693 677.757,295.027 675,293.5C 674.175,263.428 674.342,233.428 675.5,203.5 Z M 693.5,220.5 C 701.917,220.094 710.251,220.594 718.5,222C 726.491,228.953 726.491,235.953 718.5,243C 710.251,244.406 701.917,244.906 693.5,244.5C 693.5,236.5 693.5,228.5 693.5,220.5 Z"/></g>
<g><path style="opacity:0.979" fill="#95c842" d="M 779.5,203.5 C 784.844,203.334 790.177,203.501 795.5,204C 796,204.5 796.5,205 797,205.5C 797.5,229.831 797.667,254.164 797.5,278.5C 809.081,278.179 820.581,278.512 832,279.5C 832.667,284.167 832.667,288.833 832,293.5C 831.25,294.126 830.416,294.626 829.5,295C 813.5,295.667 797.5,295.667 781.5,295C 780.584,294.626 779.75,294.126 779,293.5C 778.183,263.458 778.349,233.458 779.5,203.5 Z"/></g>
<g><path style="opacity:0.993" fill="#93c73e" d="M 863.5,203.5 C 876.504,203.333 889.504,203.5 902.5,204C 921.488,207.32 933.988,218.153 940,236.5C 945.055,262.223 935.888,280.723 912.5,292C 907.97,293.632 903.304,294.632 898.5,295C 886.787,295.812 875.12,295.645 863.5,294.5C 862.176,264.1 862.176,233.767 863.5,203.5 Z M 896.5,220.5 C 916.429,224.945 924.596,237.279 921,257.5C 917.168,269.501 909.001,276.167 896.5,277.5C 891.167,277.5 885.833,277.5 880.5,277.5C 880.5,258.5 880.5,239.5 880.5,220.5C 885.833,220.5 891.167,220.5 896.5,220.5 Z"/></g>
<g><path style="opacity:0.482" fill="#d7e8a4" d="M 190.5,205.5 C 193.573,207.569 195.906,210.236 197.5,213.5C 194.427,211.431 192.094,208.764 190.5,205.5 Z"/></g>
<g><path style="opacity:0.071" fill="#dbeab3" d="M 50.5,208.5 C 51.6737,209.514 52.3404,210.847 52.5,212.5C 50.8958,211.713 50.2291,210.38 50.5,208.5 Z"/></g>
<g><path style="opacity:0.102" fill="#d8e9ab" d="M 357.5,206.5 C 357.008,208.819 356.008,210.819 354.5,212.5C 354.386,209.784 355.386,207.784 357.5,206.5 Z"/></g>
<g><path style="opacity:0.608" fill="#cbe08f" d="M 99.5,216.5 C 102.811,217.811 105.145,220.145 106.5,223.5C 103.909,221.576 101.575,219.242 99.5,216.5 Z"/></g>
<g><path style="opacity:0.624" fill="#cae18a" d="M 85.5,209.5 C 89.9225,213.587 93.5892,218.254 96.5,223.5C 93.3338,221.166 90.6671,218.333 88.5,215C 87.5,214.667 86.5,214.333 85.5,214C 86.4132,212.586 86.4132,211.086 85.5,209.5 Z"/></g>
<g><path style="opacity:0.945" fill="#c3dc78" d="M 350.5,218.5 C 348.745,221.68 346.745,224.68 344.5,227.5C 344.306,222.853 346.306,219.853 350.5,218.5 Z"/></g>
<g><path style="opacity:0.15" fill="#a7d160" d="M 896.5,220.5 C 891.167,220.5 885.833,220.5 880.5,220.5C 880.5,239.5 880.5,258.5 880.5,277.5C 885.833,277.5 891.167,277.5 896.5,277.5C 891.025,278.489 885.358,278.822 879.5,278.5C 879.5,258.833 879.5,239.167 879.5,219.5C 885.358,219.178 891.025,219.511 896.5,220.5 Z"/></g>
<g><path style="opacity:0.267" fill="#e3eeb9" d="M 106.5,224.5 C 108.027,224.427 109.027,225.094 109.5,226.5C 107.973,226.573 106.973,225.906 106.5,224.5 Z"/></g>
<g><path style="opacity:0.647" fill="#cfe494" d="M 109.5,226.5 C 113.436,228.766 116.769,231.766 119.5,235.5C 115.564,233.234 112.231,230.234 109.5,226.5 Z"/></g>
<g><path style="opacity:0.525" fill="#cce28c" d="M 308.5,222.5 C 305.295,229.545 300.629,235.545 294.5,240.5C 299.169,234.491 303.836,228.491 308.5,222.5 Z"/></g>
<g><path style="opacity:0.835" fill="#d1e499" d="M 105.5,231.5 C 107.167,232.5 108.5,233.833 109.5,235.5C 106.858,235.512 105.525,234.179 105.5,231.5 Z"/></g>
<g><path style="opacity:0.914" fill="#c7dd86" d="M 68.5,239.5 C 71.179,239.525 72.5123,240.858 72.5,243.5C 70.8333,242.5 69.5,241.167 68.5,239.5 Z"/></g>
<g><path style="opacity:0.953" fill="#bfd96f" d="M 329.5,244.5 C 326.172,248.825 322.172,252.492 317.5,255.5C 316.209,252.293 317.209,251.126 320.5,252C 319.167,250.16 319.334,249.66 321,250.5C 321.065,248.117 321.898,247.45 323.5,248.5C 324.545,246.599 325.878,244.933 327.5,243.5C 328.183,243.863 328.85,244.196 329.5,244.5 Z"/></g>
<g><path style="opacity:1" fill="#c1d971" d="M 73.5,245.5 C 75.6064,246.783 77.9398,247.616 80.5,248C 79.5868,249.414 79.5868,250.914 80.5,252.5C 77.8333,250.5 75.5,248.167 73.5,245.5 Z"/></g>
<g><path style="opacity:0.996" fill="#c0da71" d="M 109.5,235.5 C 118.246,242.255 127.246,248.588 136.5,254.5C 132.813,253.714 129.313,252.381 126,250.5C 123.443,246.801 119.943,244.468 115.5,243.5C 114.614,242.675 114.281,241.675 114.5,240.5C 111.736,240.001 110.069,238.335 109.5,235.5 Z"/></g>
<g><path style="opacity:0.729" fill="#d0e598" d="M 80.5,253.5 C 83.179,253.525 84.5123,254.858 84.5,257.5C 82.8333,256.5 81.5,255.167 80.5,253.5 Z"/></g>
<g><path style="opacity:0.192" fill="#cfe393" d="M 281.5,252.5 C 278.875,255.815 275.542,258.149 271.5,259.5C 274.475,256.677 277.808,254.344 281.5,252.5 Z"/></g>
<g><path style="opacity:0.718" fill="#d0e291" d="M 140.5,255.5 C 143.696,256.929 146.696,258.595 149.5,260.5C 146.574,259.539 143.574,258.873 140.5,258.5C 140.5,257.5 140.5,256.5 140.5,255.5 Z"/></g>
<g><path style="opacity:0.988" fill="#bcd76b" d="M 218.5,247.5 C 222.592,255.03 225.592,263.03 227.5,271.5C 226.5,271.5 225.5,271.5 224.5,271.5C 224.664,268.813 224.497,266.146 224,263.5C 221.011,258.58 219.178,253.246 218.5,247.5 Z"/></g>
<g><path style="opacity:0.953" fill="#beda6f" d="M 317.5,255.5 C 314.149,258.848 310.482,261.848 306.5,264.5C 307.413,262.914 307.413,261.414 306.5,260C 310.093,258.206 313.759,256.706 317.5,255.5 Z"/></g>
<g><path style="opacity:0.639" fill="#cee396" d="M 162.5,260.5 C 164.898,260.259 166.898,260.926 168.5,262.5C 166.102,262.741 164.102,262.074 162.5,260.5 Z"/></g>
<g><path style="opacity:0.757" fill="#cde28d" d="M 168.5,262.5 C 171.491,262.166 173.824,263.166 175.5,265.5C 172.843,265.065 170.509,264.065 168.5,262.5 Z"/></g>
<g><path style="opacity:0.769" fill="#cbe08e" d="M 149.5,260.5 C 155.392,262.129 161.059,264.129 166.5,266.5C 160.023,266.454 154.356,264.454 149.5,260.5 Z"/></g>
<g><path style="opacity:0.467" fill="#cae18e" d="M 176.5,265.5 C 180.416,265.025 183.749,266.025 186.5,268.5C 182.838,268.277 179.505,267.277 176.5,265.5 Z"/></g>
<g><path style="opacity:0.314" fill="#cde293" d="M 166.5,266.5 C 169.152,266.41 171.485,267.076 173.5,268.5C 170.848,268.59 168.515,267.924 166.5,266.5 Z"/></g>
<g><path style="opacity:0.396" fill="#d9e9a6" d="M 95.5,268.5 C 97.7488,269.08 99.4154,270.413 100.5,272.5C 98.2512,271.92 96.5846,270.587 95.5,268.5 Z"/></g>
<g><path style="opacity:0.184" fill="#d3e59b" d="M 174.5,268.5 C 178.078,268.549 181.411,269.215 184.5,270.5C 180.878,270.678 177.544,270.011 174.5,268.5 Z"/></g>
<g><path style="opacity:0.012" fill="#fafced" d="M 190.5,270.5 C 190.5,270.167 190.5,269.833 190.5,269.5C 191.833,269.833 193.167,270.167 194.5,270.5C 194.5,270.833 194.5,271.167 194.5,271.5C 193.041,271.567 191.708,271.234 190.5,270.5 Z"/></g>
<g><path style="opacity:0.953" fill="#c4dc7b" d="M 300.5,268.5 C 295.316,272.26 289.65,275.26 283.5,277.5C 283.721,276.265 284.388,275.265 285.5,274.5C 290.178,271.66 295.178,269.66 300.5,268.5 Z"/></g>
<g><path style="opacity:0.629" fill="#c6de7c" d="M 185.5,270.5 C 187.167,270.5 188.833,270.5 190.5,270.5C 191.708,271.234 193.041,271.567 194.5,271.5C 195.167,271.5 195.5,271.167 195.5,270.5C 197.924,270.192 200.257,270.526 202.5,271.5C 197.198,272.663 191.864,272.829 186.5,272C 185.944,271.617 185.611,271.117 185.5,270.5 Z"/></g>
<g><path style="opacity:0.329" fill="#c6dd81" d="M 252.5,269.5 C 251.012,270.831 250.345,272.164 250.5,273.5C 249.707,273.069 248.873,272.735 248,272.5C 243.99,274.227 239.823,275.227 235.5,275.5C 235.5,278.167 235.5,280.833 235.5,283.5C 234.79,281.107 234.123,278.607 233.5,276C 239.839,273.942 246.172,271.776 252.5,269.5 Z"/></g>
<g><path style="opacity:0.337" fill="#d4e59f" d="M 100.5,272.5 C 103.089,273.419 105.089,275.086 106.5,277.5C 103.911,276.581 101.911,274.914 100.5,272.5 Z"/></g>
<g><path style="opacity:0.475" fill="#cee390" d="M 228.5,275.5 C 230.258,278.854 231.258,282.521 231.5,286.5C 229.742,283.146 228.742,279.479 228.5,275.5 Z"/></g>
<g><path style="opacity:0.757" fill="#c3db7a" d="M 283.5,277.5 C 277.879,280.6 271.879,282.933 265.5,284.5C 270.752,280.668 276.752,278.334 283.5,277.5 Z"/></g>
<g><path style="opacity:0.553" fill="#cde18e" d="M 265.5,284.5 C 261.736,285.992 257.736,286.992 253.5,287.5C 254.681,285.933 256.347,285.099 258.5,285C 260.81,284.503 263.143,284.337 265.5,284.5 Z"/></g>
<g><path style="opacity:0.663" fill="#c3dc7e" d="M 110.5,280.5 C 112.262,280.357 113.929,280.691 115.5,281.5C 118.539,283.491 121.206,285.824 123.5,288.5C 118.632,286.618 114.299,283.952 110.5,280.5 Z"/></g>
<g><path style="opacity:0.231" fill="#dde9b4" d="M 235.5,286.5 C 238.488,288.273 241.821,288.94 245.5,288.5C 242.772,289.205 239.939,289.872 237,290.5C 235.812,289.437 235.312,288.103 235.5,286.5 Z"/></g>
<g><path style="opacity:0.801" fill="#bdd96d" d="M 213.5,303.5 C 199.019,305.93 184.353,306.097 169.5,304C 163.235,303.053 157.235,301.553 151.5,299.5C 153.696,299.41 155.863,299.077 158,298.5C 160.954,298.594 161.121,299.094 158.5,300C 162.167,300.333 165.833,300.667 169.5,301C 168.5,301.333 167.5,301.667 166.5,302C 182.123,303.401 197.79,303.901 213.5,303.5 Z"/></g>
<g><path style="opacity:0.4" fill="#c9de88" d="M 214.5,303.5 C 215.833,303.5 217.167,303.5 218.5,303.5C 219.583,307.085 220.249,310.751 220.5,314.5C 219.312,310.463 217.312,306.796 214.5,303.5 Z"/></g>
<g><path style="opacity:0.895" fill="#c9df82" d="M 233.5,297.5 C 237.438,316.513 237.438,335.513 233.5,354.5C 234.833,335.5 234.833,316.5 233.5,297.5 Z"/></g>
<g><path style="opacity:0.541" fill="#c8dd83" d="M 220.5,340.5 C 220.5,345.167 220.5,349.833 220.5,354.5C 224.5,355.833 228.5,355.833 232.5,354.5C 228.135,357.073 223.635,357.073 219,354.5C 218.535,349.615 219.035,344.948 220.5,340.5 Z"/></g>
</svg>
