<?xml version="1.0" standalone="no"?>
<!DOCTYPE svg PUBLIC "-//W3C//DTD SVG 20010904//EN"
 "http://www.w3.org/TR/2001/REC-SVG-20010904/DTD/svg10.dtd">
<svg version="1.0" xmlns="http://www.w3.org/2000/svg"
 width="536.000000pt" height="166.000000pt" viewBox="0 0 536.000000 166.000000"
 preserveAspectRatio="xMidYMid meet">

<g transform="translate(0.000000,166.000000) scale(0.100000,-0.100000)"
fill="#000000" stroke="none">
<path d="M160 820 l0 -690 2510 0 2510 0 0 690 0 690 -2510 0 -2510 0 0 -690z
m4970 640 c0 -5 0 -293 0 -640 0 -347 0 -634 0 -640 0 -7 -828 -10 -2465 -10
l-2465 0 0 650 0 650 2465 0 c1637 0 2465 -3 2465 -10z"/>
<path d="M292 823 l3 -558 1183 -3 1182 -2 0 560 0 560 -1185 0 -1185 0 2
-557z m194 160 c8 -21 34 -86 56 -145 22 -60 44 -108 48 -108 3 0 30 60 58
133 62 157 64 160 90 155 20 -3 17 -14 -51 -185 -67 -169 -74 -183 -97 -183
-23 0 -30 12 -78 138 -30 75 -62 158 -73 185 l-19 47 25 0 c19 0 28 -9 41 -37z
m424 -138 c0 -96 0 -178 0 -182 1 -5 -8 -9 -20 -11 -20 -3 -20 1 -20 182 0
179 1 186 20 186 19 0 20 -7 20 -175z m300 31 c0 -80 -4 -156 -10 -170 -13
-34 -59 -56 -120 -56 -44 0 -51 3 -48 18 2 12 16 18 51 22 77 9 82 19 85 185
3 135 5 145 23 145 18 0 19 -9 19 -144z m382 -31 c38 -93 72 -176 75 -182 3
-9 -4 -13 -20 -13 -20 0 -29 8 -43 40 l-18 40 -92 0 -92 0 -16 -40 c-13 -32
-21 -40 -41 -40 l-25 0 16 38 c8 20 37 91 64 157 72 180 70 176 98 173 22 -3
33 -23 94 -173z m329 40 c52 -74 97 -134 102 -135 4 0 7 61 7 135 l0 135 25 0
25 0 0 -185 0 -185 -24 0 c-20 0 -42 25 -118 132 -51 72 -99 133 -105 136 -10
3 -13 -28 -13 -132 0 -129 -1 -136 -20 -136 -19 0 -20 7 -20 185 l0 185 23 0
c19 0 43 -27 118 -135z m469 132 c0 -2 34 -85 74 -185 l75 -182 -28 0 c-24 0
-30 6 -40 40 l-12 40 -95 0 -96 0 -15 -40 c-13 -32 -21 -40 -41 -40 -15 0 -22
5 -19 13 43 108 140 344 144 350 4 7 53 11 53 4z"/>
<path d="M1484 934 c-4 -10 -18 -46 -30 -78 -13 -33 -24 -63 -24 -68 0 -4 29
-8 65 -8 36 0 65 4 65 10 0 14 -51 143 -61 154 -5 5 -11 1 -15 -10z"/>
<path d="M2324 863 l-30 -78 64 -3 c35 -2 67 -1 69 2 8 7 -51 149 -63 153 -5
2 -23 -32 -40 -74z"/>
<path d="M3601 1013 c-62 -31 -77 -119 -29 -170 12 -13 52 -32 90 -44 59 -17
68 -23 68 -43 0 -41 -68 -42 -84 -1 -4 11 -20 15 -57 15 l-51 0 6 -32 c12 -62
70 -98 159 -98 46 0 102 24 122 54 8 11 15 39 15 63 0 59 -29 88 -115 116 -56
18 -71 26 -73 44 -5 35 43 43 72 12 19 -21 30 -24 70 -21 42 4 46 6 40 26 -11
38 -32 63 -67 80 -45 21 -122 20 -166 -1z"/>
<path d="M4192 1018 c-62 -21 -122 -111 -122 -183 0 -39 21 -95 47 -126 82
-97 245 -90 327 14 28 35 31 46 31 110 0 84 -16 117 -77 161 -33 24 -52 29
-107 32 -36 2 -81 -2 -99 -8z m150 -118 c27 -27 30 -36 25 -72 -8 -57 -36 -83
-92 -83 -61 0 -90 29 -90 91 0 38 5 50 28 70 41 35 90 32 129 -6z"/>
<path d="M2940 1017 c0 -3 43 -122 93 -254 l42 -113 56 0 56 0 66 178 c37 98
67 181 67 185 0 5 -25 7 -56 5 l-57 -3 -33 -95 c-19 -52 -34 -96 -34 -97 0 -2
-3 -3 -7 -3 -5 0 -24 45 -43 100 l-34 100 -58 0 c-32 0 -58 -1 -58 -3z"/>
<path d="M3370 835 l0 -185 55 0 55 0 0 185 0 185 -55 0 -55 0 0 -185z"/>
<path d="M3900 835 l0 -185 55 0 55 0 0 185 0 185 -55 0 -55 0 0 -185z"/>
<path d="M4540 834 l0 -185 53 3 52 3 2 55 c1 30 2 67 2 83 1 15 4 27 9 27 4
0 34 -39 67 -85 l60 -85 48 0 47 0 0 185 0 185 -55 0 -54 0 -3 -89 -3 -90 -65
89 -65 89 -47 0 -48 1 0 -186z"/>
</g>
</svg>
