<?xml version="1.0" encoding="UTF-8"?>
<!DOCTYPE svg PUBLIC "-//W3C//DTD SVG 1.1//EN" "http://www.w3.org/Graphics/SVG/1.1/DTD/svg11.dtd">
<svg xmlns="http://www.w3.org/2000/svg" version="1.1" width="309px" height="213px" style="shape-rendering:geometricPrecision; text-rendering:geometricPrecision; image-rendering:optimizeQuality; fill-rule:evenodd; clip-rule:evenodd" xmlns:xlink="http://www.w3.org/1999/xlink">
<g><path style="opacity:1" fill="#fbfbfb" d="M -0.5,-0.5 C 102.5,-0.5 205.5,-0.5 308.5,-0.5C 308.5,70.5 308.5,141.5 308.5,212.5C 205.5,212.5 102.5,212.5 -0.5,212.5C -0.5,141.5 -0.5,70.5 -0.5,-0.5 Z"/></g>
<g><path style="opacity:1" fill="#252425" d="M 140.5,7.5 C 142.833,7.5 145.167,7.5 147.5,7.5C 147.5,8.5 147.5,9.5 147.5,10.5C 138.256,10.8732 138.256,11.8732 147.5,13.5C 145.49,15.1713 143.157,15.838 140.5,15.5C 140.5,16.5 140.5,17.5 140.5,18.5C 143.127,17.9084 145.794,17.5751 148.5,17.5C 148.5,18.5 148.5,19.5 148.5,20.5C 144.577,21.141 140.743,21.141 137,20.5C 136.762,16.7778 136.262,13.1111 135.5,9.5C 137.291,8.83015 138.958,8.16348 140.5,7.5 Z"/></g>
<g><path style="opacity:1" fill="#252425" d="M 151.5,6.5 C 155.182,6.3347 158.848,6.50137 162.5,7C 165.371,9.84017 165.037,12.1735 161.5,14C 166.166,18.3915 165.5,19.8915 159.5,18.5C 156.817,12.8446 155.484,13.178 155.5,19.5C 154.167,19.5 152.833,19.5 151.5,19.5C 151.5,15.1667 151.5,10.8333 151.5,6.5 Z"/></g>
<g><path style="opacity:1" fill="#b0afb0" d="M 155.5,9.5 C 156.833,9.5 158.167,9.5 159.5,9.5C 159.5,10.5 159.5,11.5 159.5,12.5C 158.167,12.5 156.833,12.5 155.5,12.5C 155.5,11.5 155.5,10.5 155.5,9.5 Z"/></g>
<g><path style="opacity:1" fill="#252425" d="M 175.5,12.5 C 180.221,14.8265 180.554,17.6598 176.5,21C 172.82,22.0274 169.653,21.1941 167,18.5C 166.568,17.3999 167.068,16.7332 168.5,16.5C 170.104,16.9391 171.604,17.6057 173,18.5C 173.5,18.1667 174,17.8333 174.5,17.5C 172.203,16.1024 170.037,14.4357 168,12.5C 167.498,9.28544 168.998,7.61877 172.5,7.5C 175.534,7.72281 177.867,9.05615 179.5,11.5C 178.311,12.4287 176.978,12.762 175.5,12.5 Z"/></g>
<g><path style="opacity:1" fill="#e3e3e3" d="M 175.5,12.5 C 174.325,12.719 173.325,12.3857 172.5,11.5C 173.86,10.3347 174.86,10.668 175.5,12.5 Z"/></g>
<g><path style="opacity:1" fill="#201f1f" d="M 191.5,13.5 C 195.145,14.6516 198.812,15.8182 202.5,17C 203.731,18.1827 203.731,19.3493 202.5,20.5C 201.232,19.5721 199.899,19.4054 198.5,20C 197.63,22.911 196.13,25.411 194,27.5C 192.5,27.3333 191.667,26.5 191.5,25C 192.363,22.7735 193.363,20.6068 194.5,18.5C 193.482,17.1476 192.149,16.1476 190.5,15.5C 190.863,14.8165 191.196,14.1499 191.5,13.5 Z"/></g>
<g><path style="opacity:1" fill="#252424" d="M 128.5,10.5 C 129.5,10.5 130.5,10.5 131.5,10.5C 131.325,15.2339 130.658,19.9006 129.5,24.5C 128.707,24.9312 127.873,25.2645 127,25.5C 123.487,22.3196 120.32,18.8196 117.5,15C 118.609,14.3623 119.775,13.8623 121,13.5C 123.351,15.5186 125.351,17.8519 127,20.5C 127.248,17.0806 127.748,13.7473 128.5,10.5 Z"/></g>
<g><path style="opacity:1" fill="#222121" d="M 183.5,10.5 C 185.484,10.3832 187.15,11.0499 188.5,12.5C 187.077,15.7011 186.077,19.0344 185.5,22.5C 184.311,23.4287 182.978,23.762 181.5,23.5C 182.167,19.1667 182.833,14.8333 183.5,10.5 Z"/></g>
<g><path style="opacity:1" fill="#1e1e1e" d="M 113.5,16.5 C 115.711,19.9128 117.711,23.5795 119.5,27.5C 118.672,28.4147 117.672,29.0814 116.5,29.5C 114.225,26.1933 112.225,22.6933 110.5,19C 111.571,18.1482 112.571,17.3149 113.5,16.5 Z"/></g>
<g><path style="opacity:1" fill="#262526" d="M 206.5,19.5 C 209.569,21.1463 211.069,23.813 211,27.5C 213.447,25.2511 215.947,25.0845 218.5,27C 214.096,28.7766 210.596,31.6099 208,35.5C 204.708,34.6101 204.041,32.9434 206,30.5C 206.499,26.8484 206.665,23.1817 206.5,19.5 Z"/></g>
<g><path style="opacity:1" fill="#1f1e1e" d="M 104.5,20.5 C 107.608,23.3283 110.275,26.6617 112.5,30.5C 110.206,34.057 107.373,34.3903 104,31.5C 103.5,31.8333 103,32.1667 102.5,32.5C 105.019,34.6409 105.019,36.6409 102.5,38.5C 99.807,35.621 97.4737,32.4543 95.5,29C 95.7336,27.2676 96.7336,26.4342 98.5,26.5C 101.193,27.3453 103.859,27.8453 106.5,28C 103.08,25.7973 102.413,23.2973 104.5,20.5 Z"/></g>
<g><path style="opacity:1" fill="#252425" d="M 89.5,31.5 C 93.5501,33.2196 96.2168,36.2196 97.5,40.5C 95.6176,46.9411 91.6176,48.7744 85.5,46C 84.0443,44.2552 82.711,42.4219 81.5,40.5C 82.1449,39.354 82.9783,38.354 84,37.5C 85.6851,39.0175 87.1851,40.6841 88.5,42.5C 90.0064,43.7472 91.5064,43.7472 93,42.5C 92.2147,39.4353 90.7147,36.602 88.5,34C 88.7432,33.0979 89.0766,32.2646 89.5,31.5 Z"/></g>
<g><path style="opacity:1" fill="#110d0d" d="M 138.5,61.5 C 129.651,61.8264 120.984,61.493 112.5,60.5C 112.683,58.0637 112.016,55.897 110.5,54C 112.516,50.985 114.683,50.8184 117,53.5C 119.295,50.2026 121.962,47.2026 125,44.5C 128.442,46.8698 131.109,49.8698 133,53.5C 135,52.1667 137,52.1667 139,53.5C 138.745,56.0816 138.578,58.7482 138.5,61.5 Z"/></g>
<g><path style="opacity:1" fill="#0f0a0a" d="M 170.5,61.5 C 161.5,61.5 152.5,61.5 143.5,61.5C 144.88,58.8303 144.547,56.3303 142.5,54C 145.036,50.5211 147.203,50.6878 149,54.5C 150.879,50.6122 153.545,47.2789 157,44.5C 160.442,46.8698 163.109,49.8698 165,53.5C 171.082,51.4097 172.582,53.0763 169.5,58.5C 169.685,59.5837 170.018,60.5837 170.5,61.5 Z"/></g>
<g><path style="opacity:1" fill="#110c0d" d="M 200.5,60.5 C 191.833,61.8333 183.167,61.8333 174.5,60.5C 174.25,57.786 174.083,55.1194 174,52.5C 176.54,51.1235 178.54,51.7902 180,54.5C 181.117,50.2051 183.617,46.8718 187.5,44.5C 190.888,46.8864 193.555,49.8864 195.5,53.5C 197.993,52.0362 200.326,52.2029 202.5,54C 200.771,55.7889 200.104,57.9556 200.5,60.5 Z"/></g>
<g><path style="opacity:1" fill="#242324" d="M 224.5,36.5 C 230.419,36.0871 234.085,38.7538 235.5,44.5C 231.374,53.3986 226.54,53.732 221,45.5C 220.333,43.8333 220.333,42.1667 221,40.5C 222.376,39.2949 223.542,37.9616 224.5,36.5 Z"/></g>
<g><path style="opacity:1" fill="#e8e7e8" d="M 226.5,40.5 C 232.848,41.586 233.181,43.9193 227.5,47.5C 223.865,45.6778 223.531,43.3445 226.5,40.5 Z"/></g>
<g><path style="opacity:1" fill="#212020" d="M 239.5,47.5 C 242.69,49.9235 244.856,52.9235 246,56.5C 245.667,56.8333 245.333,57.1667 245,57.5C 243.649,55.981 242.149,54.6477 240.5,53.5C 240.902,55.3661 240.902,57.3661 240.5,59.5C 239.167,58.5 237.833,57.5 236.5,56.5C 234.302,59.2433 232.302,59.0767 230.5,56C 233.574,53.1506 236.574,50.3172 239.5,47.5 Z"/></g>
<g><path style="opacity:1" fill="#9e7853" d="M 112.5,60.5 C 120.984,61.493 129.651,61.8264 138.5,61.5C 140.167,61.5 141.833,61.5 143.5,61.5C 152.5,61.5 161.5,61.5 170.5,61.5C 171.959,61.5674 173.292,61.2341 174.5,60.5C 183.167,61.8333 191.833,61.8333 200.5,60.5C 201.71,60.9321 202.71,61.5987 203.5,62.5C 202.505,73.3206 202.172,84.3206 202.5,95.5C 202.167,95.5 201.833,95.5 201.5,95.5C 201.5,84.8333 201.5,74.1667 201.5,63.5C 170.833,63.5 140.167,63.5 109.5,63.5C 109.5,62.8333 109.167,62.5 108.5,62.5C 109.671,61.6554 111.005,60.9887 112.5,60.5 Z"/></g>
<g><path style="opacity:1" fill="#1f1f1f" d="M 64.5,60.5 C 67.6889,61.5137 70.5222,63.1804 73,65.5C 74.0458,63.9095 75.2125,62.4095 76.5,61C 77.635,60.2506 78.635,60.4173 79.5,61.5C 77.527,64.6397 75.3603,67.6397 73,70.5C 70,68.5 67,66.5 64,64.5C 63.4209,63.0715 63.5876,61.7382 64.5,60.5 Z"/></g>
<g><path style="opacity:1" fill="#0b0907" d="M 109.5,63.5 C 140.167,63.5 170.833,63.5 201.5,63.5C 201.5,74.1667 201.5,84.8333 201.5,95.5C 170.833,95.5 140.167,95.5 109.5,95.5C 109.5,84.8333 109.5,74.1667 109.5,63.5 Z"/></g>
<g><path style="opacity:1" fill="#46372b" d="M 164.5,69.5 C 163.205,70.4884 161.872,71.4884 160.5,72.5C 159.167,73.1667 157.833,73.8333 156.5,74.5C 156.336,71.8127 156.503,69.146 157,66.5C 159.378,67.9669 161.878,68.9669 164.5,69.5 Z"/></g>
<g><path style="opacity:1" fill="#212121" d="M 58.5,71.5 C 63.2137,71.1734 67.8804,71.5067 72.5,72.5C 71.6303,74.5259 70.1303,75.8592 68,76.5C 66.5053,78.1096 66.3387,79.7763 67.5,81.5C 67.0814,82.6721 66.4147,83.6721 65.5,84.5C 62.4782,82.3119 59.9782,79.6452 58,76.5C 57.3603,74.735 57.5269,73.0683 58.5,71.5 Z"/></g>
<g><path style="opacity:1" fill="#e3c982" d="M 123.5,69.5 C 121.572,71.2467 119.406,72.9134 117,74.5C 114.91,78.1207 115.077,81.6207 117.5,85C 120.908,85.6566 123.908,86.8233 126.5,88.5C 125.5,88.5 124.5,88.5 123.5,88.5C 123.5,89.5 123.5,90.5 123.5,91.5C 122.5,91.5 121.5,91.5 120.5,91.5C 120.344,87.8649 119.178,87.5315 117,90.5C 115.383,89.4642 115.216,88.2975 116.5,87C 116,86.5 115.5,86 115,85.5C 113.989,86.3366 112.822,86.67 111.5,86.5C 111.48,84.857 112.147,83.5237 113.5,82.5C 112.737,81.2807 111.737,80.2807 110.5,79.5C 113.951,77.9516 114.284,75.9516 111.5,73.5C 112.651,72.269 113.817,72.269 115,73.5C 115.5,73 116,72.5 116.5,72C 115.378,68.0551 116.378,67.5551 119.5,70.5C 120.719,69.7366 121.719,68.7366 122.5,67.5C 123.298,67.9569 123.631,68.6236 123.5,69.5 Z"/></g>
<g><path style="opacity:1" fill="#979796" d="M 108.5,62.5 C 109.167,62.5 109.5,62.8333 109.5,63.5C 109.5,74.1667 109.5,84.8333 109.5,95.5C 109.167,95.5 108.833,95.5 108.5,95.5C 108.824,88.6457 108.491,81.979 107.5,75.5C 107.5,74.8333 107.167,74.5 106.5,74.5C 108.343,70.8131 109.01,66.8131 108.5,62.5 Z"/></g>
<g><path style="opacity:1" fill="#d0cfcf" d="M 61.5,75.5 C 62.7082,74.218 64.0416,74.218 65.5,75.5C 64.3746,77.7936 63.0412,77.7936 61.5,75.5 Z"/></g>
<g><path style="opacity:1" fill="#eed081" d="M 164.5,84.5 C 164.5,85.8333 163.833,86.5 162.5,86.5C 161.609,85.8902 160.609,85.5569 159.5,85.5C 159.363,81.8209 160.029,78.3209 161.5,75C 160.748,74.3292 160.414,73.4959 160.5,72.5C 161.872,71.4884 163.205,70.4884 164.5,69.5C 165.967,68.7084 167.3,68.7084 168.5,69.5C 165.151,73.9659 163.817,78.9659 164.5,84.5 Z"/></g>
<g><path style="opacity:1" fill="#dfcb87" d="M 197.5,72.5 C 198.376,72.3691 199.043,72.7025 199.5,73.5C 196.587,75.901 196.921,77.2343 200.5,77.5C 200.5,78.5 200.5,79.5 200.5,80.5C 199.5,80.5 198.5,80.5 197.5,80.5C 198.013,82.2895 198.513,83.9562 199,85.5C 198,86.8333 197,86.8333 196,85.5C 195.813,87.3448 194.98,89.0115 193.5,90.5C 192.702,90.0431 192.369,89.3764 192.5,88.5C 193.313,85.3941 194.313,82.3941 195.5,79.5C 195.16,77.4878 194.827,75.4878 194.5,73.5C 195.791,73.7373 196.791,73.404 197.5,72.5 Z"/></g>
<g><path style="opacity:1" fill="#eee6c9" d="M 203.5,62.5 C 203.253,65.9387 203.586,69.272 204.5,72.5C 203.662,72.8417 203.328,73.5084 203.5,74.5C 203.17,90.3422 203.504,106.009 204.5,121.5C 203.588,122.738 203.421,124.072 204,125.5C 205.95,123.612 208.117,122.446 210.5,122C 207.933,125.003 205.266,127.836 202.5,130.5C 202.5,118.833 202.5,107.167 202.5,95.5C 202.172,84.3206 202.505,73.3206 203.5,62.5 Z"/></g>
<g><path style="opacity:1" fill="#212020" d="M 251.5,65.5 C 256.59,68.5589 256.59,71.7256 251.5,75C 253.179,75.3947 254.845,75.228 256.5,74.5C 258.4,75.4471 259.733,76.9471 260.5,79C 256.964,81.3659 253.297,83.5326 249.5,85.5C 248.167,84.1667 248.167,82.8333 249.5,81.5C 251.664,80.5857 253.664,79.419 255.5,78C 252.299,78.7731 248.965,79.2731 245.5,79.5C 246.436,76.0406 248.436,73.2072 251.5,71C 248.949,71.6873 246.449,72.854 244,74.5C 243.308,73.9747 242.808,73.3081 242.5,72.5C 245.349,69.9163 248.349,67.583 251.5,65.5 Z"/></g>
<g><path style="opacity:1" fill="#b28849" d="M 126.5,88.5 C 123.908,86.8233 120.908,85.6566 117.5,85C 115.077,81.6207 114.91,78.1207 117,74.5C 119.406,72.9134 121.572,71.2467 123.5,69.5C 124.15,69.8039 124.817,70.1373 125.5,70.5C 126.524,69.1468 127.857,68.4802 129.5,68.5C 129.67,69.8221 129.337,70.9887 128.5,72C 130.256,72.2022 131.922,72.7022 133.5,73.5C 132.05,74.8498 131.383,76.5165 131.5,78.5C 135.5,79.1667 135.5,79.8333 131.5,80.5C 131.297,82.3904 131.963,83.8904 133.5,85C 132.464,86.6169 131.297,86.7836 130,85.5C 129.176,86.8084 128.676,88.3084 128.5,90C 127.184,90.5281 126.517,90.0281 126.5,88.5 Z"/></g>
<g><path style="opacity:1" fill="#100906" d="M 120.5,76.5 C 125.159,76.0146 126.492,77.848 124.5,82C 119.728,82.8104 118.395,80.9771 120.5,76.5 Z"/></g>
<g><path style="opacity:1" fill="#1f1f1f" d="M 53.5,83.5 C 54.5,83.5 55.5,83.5 56.5,83.5C 54.8784,85.9419 54.0451,88.6086 54,91.5C 56.0408,92.4231 58.2075,92.7564 60.5,92.5C 60.6427,90.7376 60.3094,89.0709 59.5,87.5C 62.074,84.7822 63.4073,85.4489 63.5,89.5C 61.7363,97.4702 57.5697,99.1369 51,94.5C 49.8118,90.2586 50.6451,86.5919 53.5,83.5 Z"/></g>
<g><path style="opacity:1" fill="#b98f4d" d="M 197.5,72.5 C 196.791,73.404 195.791,73.7373 194.5,73.5C 194.827,75.4878 195.16,77.4878 195.5,79.5C 194.313,82.3941 193.313,85.3941 192.5,88.5C 191.5,88.5 190.5,88.5 189.5,88.5C 189.5,89.5 189.5,90.5 189.5,91.5C 188.5,91.5 187.5,91.5 186.5,91.5C 186.344,87.8649 185.178,87.5315 183,90.5C 181.383,89.4642 181.216,88.2975 182.5,87C 181.351,85.2559 180.017,85.0892 178.5,86.5C 178.167,86 177.833,85.5 177.5,85C 178.707,83.6998 179.374,82.1998 179.5,80.5C 178.325,80.719 177.325,80.3857 176.5,79.5C 179.951,77.9516 180.284,75.9516 177.5,73.5C 179.167,72.8333 180.833,72.1667 182.5,71.5C 181.121,70.1374 181.287,69.1374 183,68.5C 185.238,71.1502 187.071,70.8169 188.5,67.5C 189.281,68.7366 190.281,69.7366 191.5,70.5C 192.524,69.1468 193.857,68.4802 195.5,68.5C 195.67,69.8221 195.337,70.9887 194.5,72C 195.448,72.4828 196.448,72.6495 197.5,72.5 Z"/></g>
<g><path style="opacity:1" fill="#120a06" d="M 186.5,76.5 C 191.159,76.0146 192.492,77.848 190.5,82C 185.728,82.8104 184.395,80.9771 186.5,76.5 Z"/></g>
<g><path style="opacity:1" fill="#bd934a" d="M 160.5,72.5 C 160.414,73.4959 160.748,74.3292 161.5,75C 160.029,78.3209 159.363,81.8209 159.5,85.5C 156.848,86.2937 157.015,86.9604 160,87.5C 161.07,87.472 161.903,87.1386 162.5,86.5C 163.833,86.5 164.5,85.8333 164.5,84.5C 167.564,85.9679 170.897,86.9679 174.5,87.5C 173.352,89.1487 172.019,90.6487 170.5,92C 162.089,92.9054 153.755,92.5721 145.5,91C 141.46,88.6426 138.627,85.4759 137,81.5C 139.703,84.0662 142.869,85.2328 146.5,85C 149.026,80.6427 152.359,77.1427 156.5,74.5C 157.833,73.8333 159.167,73.1667 160.5,72.5 Z"/></g>
<g><path style="opacity:1" fill="#4d3e2b" d="M 159.5,85.5 C 160.609,85.5569 161.609,85.8902 162.5,86.5C 161.903,87.1386 161.07,87.472 160,87.5C 157.015,86.9604 156.848,86.2937 159.5,85.5 Z"/></g>
<g><path style="opacity:1" fill="#2c2519" d="M 149.5,84.5 C 151.924,84.1924 154.257,84.5258 156.5,85.5C 153.894,86.6517 151.227,86.8184 148.5,86C 149.056,85.6174 149.389,85.1174 149.5,84.5 Z"/></g>
<g><path style="opacity:1" fill="#212020" d="M 256.5,84.5 C 262.252,84.4188 265.252,87.2522 265.5,93C 265.238,97.5649 262.738,99.7315 258,99.5C 254.213,98.3096 252.046,95.643 251.5,91.5C 252.06,88.288 253.727,85.9547 256.5,84.5 Z"/></g>
<g><path style="opacity:1" fill="#ececec" d="M 256.5,89.5 C 262.209,88.6779 263.543,90.5112 260.5,95C 255.728,95.8104 254.395,93.9771 256.5,89.5 Z"/></g>
<g><path style="opacity:1" fill="#5c5c5f" d="M 100.5,92.5 C 102.225,92.8425 102.725,93.8425 102,95.5C 101.428,98.707 99.595,100.374 96.5,100.5C 96.2593,96.9812 97.5926,94.3145 100.5,92.5 Z"/></g>
<g><path style="opacity:1" fill="#19763c" d="M 109.5,95.5 C 140.167,95.5 170.833,95.5 201.5,95.5C 201.833,95.5 202.167,95.5 202.5,95.5C 202.5,107.167 202.5,118.833 202.5,130.5C 202.5,131.5 202.5,132.5 202.5,133.5C 201.883,133.389 201.383,133.056 201,132.5C 200.667,124.833 200.333,117.167 200,109.5C 199.798,111.256 199.298,112.922 198.5,114.5C 196.929,112.585 194.929,111.585 192.5,111.5C 192.663,113.857 192.497,116.19 192,118.5C 191.821,114.975 191.321,111.641 190.5,108.5C 189.057,107.665 188.057,106.332 187.5,104.5C 186.167,103.833 184.833,103.167 183.5,102.5C 182.478,102.855 181.811,103.522 181.5,104.5C 180.167,104.5 178.833,104.5 177.5,104.5C 174.426,104.127 171.426,103.461 168.5,102.5C 166.167,102.5 163.833,102.5 161.5,102.5C 161.167,102.5 160.833,102.5 160.5,102.5C 159.244,102.904 158.077,103.571 157,104.5C 155.989,103.944 155.156,103.278 154.5,102.5C 154.167,102.5 153.833,102.5 153.5,102.5C 147.357,102.27 141.357,102.936 135.5,104.5C 134.167,104.5 132.833,104.5 131.5,104.5C 130.223,102.086 128.557,101.919 126.5,104C 125.62,105.356 125.286,106.856 125.5,108.5C 125.167,108.5 124.833,108.5 124.5,108.5C 124.179,106.952 123.179,106.285 121.5,106.5C 121.665,109.518 121.498,112.518 121,115.5C 120.51,114.207 120.343,112.873 120.5,111.5C 119.5,111.5 118.5,111.5 117.5,111.5C 117.307,107.551 116.807,107.551 116,111.5C 114.846,112.743 113.512,113.743 112,114.5C 110.213,122.471 110.046,130.471 111.5,138.5C 110.833,137.5 110.167,136.5 109.5,135.5C 109.5,133.833 109.5,132.167 109.5,130.5C 109.5,118.833 109.5,107.167 109.5,95.5 Z"/></g>
<g><path style="opacity:1" fill="#515153" d="M 210.5,93.5 C 212.117,94.038 213.784,94.3713 215.5,94.5C 215.799,96.604 215.466,98.604 214.5,100.5C 211.875,98.9186 210.542,96.5852 210.5,93.5 Z"/></g>
<g><path style="opacity:1" fill="#212020" d="M 47.5,98.5 C 51.4848,99.4881 55.4848,100.488 59.5,101.5C 59.7778,103.346 59.1112,104.68 57.5,105.5C 54.0954,104.752 50.7621,103.752 47.5,102.5C 46.7084,101.3 46.7084,99.9669 47.5,98.5 Z"/></g>
<g><path style="opacity:1" fill="#4f5053" d="M 84.5,101.5 C 85.0431,101.56 85.3764,101.893 85.5,102.5C 82.22,108.191 80.8867,114.357 81.5,121C 82.8841,132.143 84.2174,143.31 85.5,154.5C 85.3333,156.167 85.1667,157.833 85,159.5C 84.8138,156.964 84.3138,154.631 83.5,152.5C 83.1975,136.087 77.8641,121.587 67.5,109C 71.3945,102.724 77.0611,100.224 84.5,101.5 Z"/></g>
<g><path style="opacity:1" fill="#4f4f53" d="M 226.5,100.5 C 234.133,100.151 240.466,102.818 245.5,108.5C 234.074,122.777 228.407,139.11 228.5,157.5C 227.352,153.019 227.185,148.352 228,143.5C 231.1,132.264 231.766,120.931 230,109.5C 228.82,106.479 227.654,103.479 226.5,100.5 Z"/></g>
<g><path style="opacity:1" fill="#f3ebe9" d="M 168.5,102.5 C 171.426,103.461 174.426,104.127 177.5,104.5C 177.806,107.385 177.473,110.052 176.5,112.5C 175.842,113.398 175.176,114.398 174.5,115.5C 173.614,114.675 173.281,113.675 173.5,112.5C 173.5,111.5 173.5,110.5 173.5,109.5C 170.724,109.911 170.057,109.078 171.5,107C 170.271,105.614 169.271,104.114 168.5,102.5 Z"/></g>
<g><path style="opacity:1" fill="#dda8a7" d="M 177.5,104.5 C 178.833,104.5 180.167,104.5 181.5,104.5C 183.155,115.804 184.155,127.471 184.5,139.5C 186.111,140.32 186.778,141.654 186.5,143.5C 182.833,143.5 179.167,143.5 175.5,143.5C 175.5,143.167 175.5,142.833 175.5,142.5C 177.415,142.784 179.081,142.451 180.5,141.5C 179.295,134.094 178.295,126.761 177.5,119.5C 176.89,118.609 176.557,117.609 176.5,116.5C 177.833,115.167 177.833,113.833 176.5,112.5C 177.473,110.052 177.806,107.385 177.5,104.5 Z"/></g>
<g><path style="opacity:1" fill="#9d9d9e" d="M 99.5,114.5 C 98.8423,115.398 98.1757,116.398 97.5,117.5C 96.8933,117.376 96.56,117.043 96.5,116.5C 97.4646,115.279 97.298,113.946 96,112.5C 95.2825,113.451 94.4491,113.617 93.5,113C 95.422,111.58 96.7554,109.747 97.5,107.5C 98.2749,109.843 98.9416,112.177 99.5,114.5 Z"/></g>
<g><path style="opacity:1" fill="#1c1c1c" d="M 264.5,114.5 C 265.675,114.719 266.675,114.386 267.5,113.5C 264.572,112.516 261.572,112.183 258.5,112.5C 257.427,111.749 257.26,110.749 258,109.5C 268.117,104.295 267.617,103.295 256.5,106.5C 256.281,105.325 256.614,104.325 257.5,103.5C 260.762,102.248 264.095,101.248 267.5,100.5C 268.318,102.108 268.985,103.775 269.5,105.5C 267.717,107.232 265.717,108.732 263.5,110C 266.146,110.497 268.813,110.664 271.5,110.5C 271.5,112.5 271.5,114.5 271.5,116.5C 267.462,116.958 263.462,117.624 259.5,118.5C 259.746,115.53 261.412,114.197 264.5,114.5 Z"/></g>
<g><path style="opacity:1" fill="#eeb1b2" d="M 153.5,102.5 C 153.833,102.5 154.167,102.5 154.5,102.5C 154.763,106.6 154.43,110.6 153.5,114.5C 151.167,114.5 148.833,114.5 146.5,114.5C 147.485,110.924 148.152,107.258 148.5,103.5C 150.415,103.784 152.081,103.451 153.5,102.5 Z"/></g>
<g><path style="opacity:1" fill="#747374" d="M 258.5,112.5 C 261.572,112.183 264.572,112.516 267.5,113.5C 266.675,114.386 265.675,114.719 264.5,114.5C 262.5,113.833 260.5,113.167 258.5,112.5 Z"/></g>
<g><path style="opacity:1" fill="#7f5d5e" d="M 146.5,114.5 C 148.833,114.5 151.167,114.5 153.5,114.5C 154.625,115.348 154.625,116.348 153.5,117.5C 151.5,117.167 149.5,116.833 147.5,116.5C 145.712,116.785 144.045,116.452 142.5,115.5C 143.689,114.571 145.022,114.238 146.5,114.5 Z"/></g>
<g><path style="opacity:1" fill="#222121" d="M 44.5,106.5 C 48.9847,106.934 53.318,107.934 57.5,109.5C 56.7542,110.736 56.4208,112.07 56.5,113.5C 54.2166,113.608 52.2166,114.441 50.5,116C 51.9047,117.269 53.5714,117.769 55.5,117.5C 55.5,118.833 55.5,120.167 55.5,121.5C 51.087,121.313 46.7536,120.646 42.5,119.5C 42.238,118.022 42.5713,116.689 43.5,115.5C 45.8333,114.333 48.1667,113.167 50.5,112C 48.6547,110.872 46.6547,110.372 44.5,110.5C 44.5,109.167 44.5,107.833 44.5,106.5 Z"/></g>
<g><path style="opacity:1" fill="#e7ce92" d="M 123.5,108.5 C 123.833,108.5 124.167,108.5 124.5,108.5C 124.833,108.5 125.167,108.5 125.5,108.5C 124.523,119.752 124.189,131.086 124.5,142.5C 125.5,142.5 126.5,142.5 127.5,142.5C 127.833,142.5 128.167,142.5 128.5,142.5C 127.081,143.451 125.415,143.784 123.5,143.5C 123.5,131.833 123.5,120.167 123.5,108.5 Z"/></g>
<g><path style="opacity:1" fill="#6f5c5c" d="M 135.5,114.5 C 137.604,114.201 139.604,114.534 141.5,115.5C 141.376,116.107 141.043,116.44 140.5,116.5C 140.167,116.5 139.833,116.5 139.5,116.5C 137.409,116.318 135.409,116.652 133.5,117.5C 132.614,116.675 132.281,115.675 132.5,114.5C 133.5,114.5 134.5,114.5 135.5,114.5 Z"/></g>
<g><path style="opacity:1" fill="#5f5351" d="M 173.5,112.5 C 173.281,113.675 173.614,114.675 174.5,115.5C 175.176,114.398 175.842,113.398 176.5,112.5C 177.833,113.833 177.833,115.167 176.5,116.5C 174.097,116.448 171.764,116.781 169.5,117.5C 170.279,115.323 171.613,113.656 173.5,112.5 Z"/></g>
<g><path style="opacity:1" fill="#91898a" d="M 154.5,102.5 C 155.156,103.278 155.989,103.944 157,104.5C 158.077,103.571 159.244,102.904 160.5,102.5C 159.833,113.804 159.167,125.137 158.5,136.5C 158.863,137.183 159.196,137.85 159.5,138.5C 158.167,138.5 156.833,138.5 155.5,138.5C 156.128,131.087 155.461,124.087 153.5,117.5C 154.625,116.348 154.625,115.348 153.5,114.5C 154.43,110.6 154.763,106.6 154.5,102.5 Z"/></g>
<g><path style="opacity:1" fill="#f6e7e5" d="M 131.5,104.5 C 130.669,115.993 130.169,127.659 130,139.5C 128.583,140.078 127.75,141.078 127.5,142.5C 126.5,142.5 125.5,142.5 124.5,142.5C 124.189,131.086 124.523,119.752 125.5,108.5C 125.286,106.856 125.62,105.356 126.5,104C 128.557,101.919 130.223,102.086 131.5,104.5 Z"/></g>
<g><path style="opacity:1" fill="#f9f0ef" d="M 139.5,116.5 C 139.833,116.5 140.167,116.5 140.5,116.5C 141.609,117.29 142.942,117.79 144.5,118C 142.942,118.21 141.609,118.71 140.5,119.5C 140.5,119.833 140.5,120.167 140.5,120.5C 139.957,120.56 139.624,120.893 139.5,121.5C 141.078,122.298 142.744,122.798 144.5,123C 142.292,123.191 140.292,123.691 138.5,124.5C 138.167,124.5 137.833,124.5 137.5,124.5C 136.631,122.283 136.298,119.95 136.5,117.5C 137.791,117.737 138.791,117.404 139.5,116.5 Z"/></g>
<g><path style="opacity:1" fill="#dfa8a8" d="M 131.5,104.5 C 132.833,104.5 134.167,104.5 135.5,104.5C 135.5,107.833 135.5,111.167 135.5,114.5C 134.5,114.5 133.5,114.5 132.5,114.5C 132.281,115.675 132.614,116.675 133.5,117.5C 135.409,116.652 137.409,116.318 139.5,116.5C 138.791,117.404 137.791,117.737 136.5,117.5C 136.298,119.95 136.631,122.283 137.5,124.5C 136.662,124.842 136.328,125.508 136.5,126.5C 136.5,131.167 136.5,135.833 136.5,140.5C 135.29,140.932 134.29,141.599 133.5,142.5C 131.833,142.5 130.167,142.5 128.5,142.5C 128.167,142.5 127.833,142.5 127.5,142.5C 127.75,141.078 128.583,140.078 130,139.5C 130.169,127.659 130.669,115.993 131.5,104.5 Z"/></g>
<g><path style="opacity:1" fill="#b8918f" d="M 160.5,102.5 C 160.833,102.5 161.167,102.5 161.5,102.5C 161.5,104.167 161.5,105.833 161.5,107.5C 162.5,107.5 163.5,107.5 164.5,107.5C 164.338,109.527 164.505,111.527 165,113.5C 165.826,111.595 166.993,111.261 168.5,112.5C 167.52,113.981 166.353,115.315 165,116.5C 164,115.167 163,113.833 162,112.5C 161.009,119.314 161.509,125.98 163.5,132.5C 164.631,133.604 165.465,133.271 166,131.5C 166.779,133.906 165.946,135.573 163.5,136.5C 162.749,135.624 162.249,134.624 162,133.5C 161.137,135.749 161.637,137.582 163.5,139C 165.473,139.495 167.473,139.662 169.5,139.5C 171.819,139.992 173.819,140.992 175.5,142.5C 171.167,142.5 166.833,142.5 162.5,142.5C 161.488,141.128 160.488,139.795 159.5,138.5C 159.196,137.85 158.863,137.183 158.5,136.5C 159.167,125.137 159.833,113.804 160.5,102.5 Z"/></g>
<g><path style="opacity:1" fill="#f6e5e3" d="M 190.5,108.5 C 190.5,120.167 190.5,131.833 190.5,143.5C 189.167,143.5 187.833,143.5 186.5,143.5C 186.778,141.654 186.111,140.32 184.5,139.5C 184.155,127.471 183.155,115.804 181.5,104.5C 181.811,103.522 182.478,102.855 183.5,102.5C 184.833,103.167 186.167,103.833 187.5,104.5C 188.057,106.332 189.057,107.665 190.5,108.5 Z"/></g>
<g><path style="opacity:1" fill="#9e9fa2" d="M 224.5,97.5 C 225.401,98.2905 226.068,99.2905 226.5,100.5C 227.654,103.479 228.82,106.479 230,109.5C 231.766,120.931 231.1,132.264 228,143.5C 227.185,148.352 227.352,153.019 228.5,157.5C 228.344,160.066 228.678,162.566 229.5,165C 229.317,166.684 228.65,166.85 227.5,165.5C 226.327,161.966 225.66,158.299 225.5,154.5C 226.641,143.299 227.974,132.133 229.5,121C 229.333,118.167 229.167,115.333 229,112.5C 227.473,107.463 225.973,102.463 224.5,97.5 Z"/></g>
<g><path style="opacity:1" fill="#665150" d="M 140.5,119.5 C 142.924,119.192 145.257,119.526 147.5,120.5C 145.027,121.797 142.693,121.797 140.5,120.5C 140.5,120.167 140.5,119.833 140.5,119.5 Z"/></g>
<g><path style="opacity:1" fill="#eadfc4" d="M 108.5,95.5 C 108.833,95.5 109.167,95.5 109.5,95.5C 109.5,107.167 109.5,118.833 109.5,130.5C 107.189,127.853 104.856,125.186 102.5,122.5C 102.833,122.167 103.167,121.833 103.5,121.5C 104.833,122.5 106.167,123.5 107.5,124.5C 108.386,123.675 108.719,122.675 108.5,121.5C 108.5,112.833 108.5,104.167 108.5,95.5 Z"/></g>
<g><path style="opacity:1" fill="#f1aeb0" d="M 147.5,116.5 C 149.5,116.833 151.5,117.167 153.5,117.5C 153.666,123.509 153.499,129.509 153,135.5C 151.658,138.794 149.158,140.128 145.5,139.5C 148.192,137.037 148.858,134.204 147.5,131C 147.759,129.213 148.425,127.713 149.5,126.5C 151.048,126.179 151.715,125.179 151.5,123.5C 150.167,121.167 148.833,118.833 147.5,116.5 Z"/></g>
<g><path style="opacity:1" fill="#f1bfc0" d="M 161.5,102.5 C 163.833,102.5 166.167,102.5 168.5,102.5C 169.271,104.114 170.271,105.614 171.5,107C 170.057,109.078 170.724,109.911 173.5,109.5C 173.5,110.5 173.5,111.5 173.5,112.5C 171.613,113.656 170.279,115.323 169.5,117.5C 170.383,122.103 170.717,126.77 170.5,131.5C 168.345,130.448 168.012,131.114 169.5,133.5C 168.388,134.265 167.721,135.265 167.5,136.5C 167.782,137.778 168.449,138.778 169.5,139.5C 167.473,139.662 165.473,139.495 163.5,139C 161.637,137.582 161.137,135.749 162,133.5C 162.249,134.624 162.749,135.624 163.5,136.5C 165.946,135.573 166.779,133.906 166,131.5C 165.465,133.271 164.631,133.604 163.5,132.5C 161.509,125.98 161.009,119.314 162,112.5C 163,113.833 164,115.167 165,116.5C 166.353,115.315 167.52,113.981 168.5,112.5C 166.993,111.261 165.826,111.595 165,113.5C 164.505,111.527 164.338,109.527 164.5,107.5C 163.5,107.5 162.5,107.5 161.5,107.5C 161.5,105.833 161.5,104.167 161.5,102.5 Z"/></g>
<g><path style="opacity:1" fill="#816f6e" d="M 136.5,126.5 C 136.328,125.508 136.662,124.842 137.5,124.5C 137.833,124.5 138.167,124.5 138.5,124.5C 140.927,125.061 143.427,124.728 146,123.5C 146.483,124.448 146.649,125.448 146.5,126.5C 143.167,126.5 139.833,126.5 136.5,126.5 Z"/></g>
<g><path style="opacity:1" fill="#6f4c48" d="M 151.5,123.5 C 151.715,125.179 151.048,126.179 149.5,126.5C 148.867,126.12 148.2,125.787 147.5,125.5C 148.577,124.295 149.91,123.628 151.5,123.5 Z"/></g>
<g><path style="opacity:1" fill="#f7e5e2" d="M 176.5,116.5 C 176.557,117.609 176.89,118.609 177.5,119.5C 177.725,121.716 176.892,123.383 175,124.5C 174.549,122.071 173.715,121.904 172.5,124C 173.5,125.667 174.833,127 176.5,128C 175.619,128.708 174.953,129.542 174.5,130.5C 174.582,132.252 173.749,133.252 172,133.5C 170.97,133.164 170.47,132.497 170.5,131.5C 170.717,126.77 170.383,122.103 169.5,117.5C 171.764,116.781 174.097,116.448 176.5,116.5 Z"/></g>
<g><path style="opacity:1" fill="#242424" d="M 41.5,123.5 C 45.7685,124.373 50.1018,124.706 54.5,124.5C 54.7852,126.288 54.4519,127.955 53.5,129.5C 51.9291,128.691 50.2624,128.357 48.5,128.5C 47.8874,132.512 49.5541,134.512 53.5,134.5C 53.762,135.978 53.4287,137.311 52.5,138.5C 48.5705,137.567 44.5705,137.234 40.5,137.5C 40.5,135.833 40.5,134.167 40.5,132.5C 42.1667,132.5 43.8333,132.5 45.5,132.5C 45.5,131.167 45.5,129.833 45.5,128.5C 44.1667,128.5 42.8333,128.5 41.5,128.5C 41.5,126.833 41.5,125.167 41.5,123.5 Z"/></g>
<g><path style="opacity:1" fill="#9d9ea1" d="M 87.5,98.5 C 86.926,102.325 85.7594,105.991 84,109.5C 83.0348,120.932 83.7014,132.266 86,143.5C 86.6667,149.833 86.6667,156.167 86,162.5C 85.6126,165.599 84.4459,168.266 82.5,170.5C 83.1619,166.507 83.1619,162.507 82.5,158.5C 82.5,157.833 82.1667,157.5 81.5,157.5C 82.968,156.221 83.6347,154.554 83.5,152.5C 84.3138,154.631 84.8138,156.964 85,159.5C 85.1667,157.833 85.3333,156.167 85.5,154.5C 84.2174,143.31 82.8841,132.143 81.5,121C 80.8867,114.357 82.22,108.191 85.5,102.5C 85.3764,101.893 85.0431,101.56 84.5,101.5C 85.1667,100.167 86.1667,99.1667 87.5,98.5 Z"/></g>
<g><path style="opacity:1" fill="#515153" d="M 214.5,125.5 C 213.29,125.932 212.29,126.599 211.5,127.5C 208.5,130.167 205.5,132.833 202.5,135.5C 202.5,134.833 202.5,134.167 202.5,133.5C 202.5,132.5 202.5,131.5 202.5,130.5C 205.266,127.836 207.933,125.003 210.5,122C 208.117,122.446 205.95,123.612 204,125.5C 203.421,124.072 203.588,122.738 204.5,121.5C 207.501,118.668 210.667,116.002 214,113.5C 214.333,111.5 214.667,109.5 215,107.5C 215.653,109.564 216.82,111.231 218.5,112.5C 218.062,113.506 217.396,113.506 216.5,112.5C 215.264,114.034 214.764,115.7 215,117.5C 215.667,116.833 216.333,116.167 217,115.5C 217.642,117.762 218.475,119.929 219.5,122C 217.804,123.176 216.138,124.343 214.5,125.5 Z"/></g>
<g><path style="opacity:1" fill="#505053" d="M 99.5,114.5 C 102.681,116.592 105.681,118.925 108.5,121.5C 108.719,122.675 108.386,123.675 107.5,124.5C 106.167,123.5 104.833,122.5 103.5,121.5C 103.167,121.833 102.833,122.167 102.5,122.5C 104.856,125.186 107.189,127.853 109.5,130.5C 109.5,132.167 109.5,133.833 109.5,135.5C 109.167,135.5 108.833,135.5 108.5,135.5C 106.548,131.713 103.714,128.713 100,126.5C 101.067,129.679 101.9,133.012 102.5,136.5C 102.799,138.604 102.466,140.604 101.5,142.5C 100.809,144.801 99.8095,146.134 98.5,146.5C 98.6663,139.492 98.4996,132.492 98,125.5C 92.873,123.342 92.0396,120.009 95.5,115.5C 96.1067,115.624 96.44,115.957 96.5,116.5C 96.56,117.043 96.8933,117.376 97.5,117.5C 98.1757,116.398 98.8423,115.398 99.5,114.5 Z"/></g>
<g><path style="opacity:1" fill="#f2d5d4" d="M 153.5,102.5 C 152.081,103.451 150.415,103.784 148.5,103.5C 148.152,107.258 147.485,110.924 146.5,114.5C 145.022,114.238 143.689,114.571 142.5,115.5C 144.045,116.452 145.712,116.785 147.5,116.5C 148.833,118.833 150.167,121.167 151.5,123.5C 149.91,123.628 148.577,124.295 147.5,125.5C 148.2,125.787 148.867,126.12 149.5,126.5C 148.425,127.713 147.759,129.213 147.5,131C 148.858,134.204 148.192,137.037 145.5,139.5C 144.167,139.833 142.833,140.167 141.5,140.5C 141.66,136.378 141.66,132.044 141.5,127.5C 140.167,127.5 138.833,127.5 137.5,127.5C 137.818,132.032 137.485,136.366 136.5,140.5C 136.5,135.833 136.5,131.167 136.5,126.5C 139.833,126.5 143.167,126.5 146.5,126.5C 146.649,125.448 146.483,124.448 146,123.5C 143.427,124.728 140.927,125.061 138.5,124.5C 140.292,123.691 142.292,123.191 144.5,123C 142.744,122.798 141.078,122.298 139.5,121.5C 139.624,120.893 139.957,120.56 140.5,120.5C 142.693,121.797 145.027,121.797 147.5,120.5C 145.257,119.526 142.924,119.192 140.5,119.5C 141.609,118.71 142.942,118.21 144.5,118C 142.942,117.79 141.609,117.29 140.5,116.5C 141.043,116.44 141.376,116.107 141.5,115.5C 139.604,114.534 137.604,114.201 135.5,114.5C 135.5,111.167 135.5,107.833 135.5,104.5C 141.357,102.936 147.357,102.27 153.5,102.5 Z"/></g>
<g><path style="opacity:1" fill="#bc9896" d="M 153.5,117.5 C 155.461,124.087 156.128,131.087 155.5,138.5C 153.468,139.048 152.468,140.381 152.5,142.5C 147.5,142.5 142.5,142.5 137.5,142.5C 138.514,141.326 139.847,140.66 141.5,140.5C 142.833,140.167 144.167,139.833 145.5,139.5C 149.158,140.128 151.658,138.794 153,135.5C 153.499,129.509 153.666,123.509 153.5,117.5 Z"/></g>
<g><path style="opacity:1" fill="#98999c" d="M 214.5,125.5 C 214.5,130.833 214.5,136.167 214.5,141.5C 213.833,136.833 213.167,132.167 212.5,127.5C 212.167,127.5 211.833,127.5 211.5,127.5C 212.29,126.599 213.29,125.932 214.5,125.5 Z"/></g>
<g><path style="opacity:1" fill="#232122" d="M 268.5,120.5 C 270.144,120.286 271.644,120.62 273,121.5C 273.667,124.833 273.667,128.167 273,131.5C 271.333,134.167 269.667,134.167 268,131.5C 266.522,134.993 264.522,135.326 262,132.5C 260.763,128.94 260.263,125.273 260.5,121.5C 263.385,121.806 266.052,121.473 268.5,120.5 Z"/></g>
<g><path style="opacity:1" fill="#e7e6e7" d="M 263.5,125.5 C 264.586,125.62 265.253,126.287 265.5,127.5C 265.167,128.167 264.833,128.833 264.5,129.5C 263.571,128.311 263.238,126.978 263.5,125.5 Z"/></g>
<g><path style="opacity:1" fill="#f4f4f4" d="M 268.5,125.5 C 270.465,125.948 270.798,126.948 269.5,128.5C 268.614,127.675 268.281,126.675 268.5,125.5 Z"/></g>
<g><path style="opacity:1" fill="#fbf3f2" d="M 141.5,140.5 C 139.847,140.66 138.514,141.326 137.5,142.5C 136.167,142.5 134.833,142.5 133.5,142.5C 134.29,141.599 135.29,140.932 136.5,140.5C 137.485,136.366 137.818,132.032 137.5,127.5C 138.833,127.5 140.167,127.5 141.5,127.5C 141.66,132.044 141.66,136.378 141.5,140.5 Z"/></g>
<g><path style="opacity:1" fill="#72605d" d="M 170.5,131.5 C 170.47,132.497 170.97,133.164 172,133.5C 173.749,133.252 174.582,132.252 174.5,130.5C 178.005,130.694 178.338,131.694 175.5,133.5C 172.993,134.892 170.327,135.892 167.5,136.5C 167.721,135.265 168.388,134.265 169.5,133.5C 168.012,131.114 168.345,130.448 170.5,131.5 Z"/></g>
<g><path style="opacity:1" fill="#f7e9e9" d="M 175.5,133.5 C 176.598,134.397 176.598,135.23 175.5,136C 176.449,136.617 177.282,136.451 178,135.5C 178.002,138.051 178.836,140.051 180.5,141.5C 179.081,142.451 177.415,142.784 175.5,142.5C 173.819,140.992 171.819,139.992 169.5,139.5C 168.449,138.778 167.782,137.778 167.5,136.5C 170.327,135.892 172.993,134.892 175.5,133.5 Z"/></g>
<g><path style="opacity:1" fill="#cab3b0" d="M 177.5,119.5 C 178.295,126.761 179.295,134.094 180.5,141.5C 178.836,140.051 178.002,138.051 178,135.5C 177.282,136.451 176.449,136.617 175.5,136C 176.598,135.23 176.598,134.397 175.5,133.5C 178.338,131.694 178.005,130.694 174.5,130.5C 174.953,129.542 175.619,128.708 176.5,128C 174.833,127 173.5,125.667 172.5,124C 173.715,121.904 174.549,122.071 175,124.5C 176.892,123.383 177.725,121.716 177.5,119.5 Z"/></g>
<g><path style="opacity:1" fill="#c5995b" d="M 202.5,135.5 C 202.975,139.416 201.975,142.749 199.5,145.5C 200.504,142.125 201.504,138.792 202.5,135.5 Z"/></g>
<g><path style="opacity:1" fill="#bfa56e" d="M 108.5,135.5 C 108.833,135.5 109.167,135.5 109.5,135.5C 110.167,136.5 110.833,137.5 111.5,138.5C 112.071,142.458 113.405,146.124 115.5,149.5C 115.672,150.492 115.338,151.158 114.5,151.5C 111.897,146.445 109.897,141.112 108.5,135.5 Z"/></g>
<g><path style="opacity:1" fill="#248842" d="M 190.5,108.5 C 191.321,111.641 191.821,114.975 192,118.5C 192.497,116.19 192.663,113.857 192.5,111.5C 194.929,111.585 196.929,112.585 198.5,114.5C 199.298,112.922 199.798,111.256 200,109.5C 200.333,117.167 200.667,124.833 201,132.5C 201.383,133.056 201.883,133.389 202.5,133.5C 202.5,134.167 202.5,134.833 202.5,135.5C 201.504,138.792 200.504,142.125 199.5,145.5C 195.55,151.451 191.217,157.118 186.5,162.5C 185.474,163.853 184.141,164.853 182.5,165.5C 182.322,161.898 181.322,161.898 179.5,165.5C 177.89,164.448 176.223,164.448 174.5,165.5C 173.133,164.775 171.8,164.108 170.5,163.5C 171.853,162.474 172.853,161.141 173.5,159.5C 174.815,158.524 176.148,157.524 177.5,156.5C 178.478,156.977 179.311,157.643 180,158.5C 181.931,155.12 183.098,151.454 183.5,147.5C 183.36,145.97 182.693,144.97 181.5,144.5C 179.265,144.795 177.265,144.461 175.5,143.5C 179.167,143.5 182.833,143.5 186.5,143.5C 187.833,143.5 189.167,143.5 190.5,143.5C 190.5,131.833 190.5,120.167 190.5,108.5 Z"/></g>
<g><path style="opacity:1" fill="#7e863f" d="M 123.5,108.5 C 123.5,120.167 123.5,131.833 123.5,143.5C 125.415,143.784 127.081,143.451 128.5,142.5C 130.167,142.5 131.833,142.5 133.5,142.5C 134.833,142.5 136.167,142.5 137.5,142.5C 142.5,142.5 147.5,142.5 152.5,142.5C 153.167,142.5 153.5,142.833 153.5,143.5C 146.471,143.377 139.471,143.71 132.5,144.5C 131.833,144.5 131.167,144.5 130.5,144.5C 127.833,144.5 125.167,144.5 122.5,144.5C 122.172,132.322 122.505,120.322 123.5,108.5 Z"/></g>
<g><path style="opacity:1" fill="#5c5d60" d="M 212.5,127.5 C 213.167,132.167 213.833,136.833 214.5,141.5C 215.391,150.789 217.224,159.789 220,168.5C 216.007,158.825 212.507,149.659 209.5,141C 209.995,136.347 210.995,131.847 212.5,127.5 Z"/></g>
<g><path style="opacity:1" fill="#222122" d="M 261.5,135.5 C 265.588,136.861 269.588,138.528 273.5,140.5C 274.452,142.045 274.785,143.712 274.5,145.5C 270.562,147.13 266.562,148.797 262.5,150.5C 262.167,149.833 261.833,149.167 261.5,148.5C 262.4,146.761 263.067,144.928 263.5,143C 262.22,140.64 261.553,138.14 261.5,135.5 Z"/></g>
<g><path style="opacity:1" fill="#cbcacb" d="M 266.5,141.5 C 270.88,142.099 271.214,143.099 267.5,144.5C 266.614,143.675 266.281,142.675 266.5,141.5 Z"/></g>
<g><path style="opacity:1" fill="#7b7b7d" d="M 102.5,136.5 C 103.638,139.304 103.805,142.304 103,145.5C 102.667,144.833 102.333,144.167 102,143.5C 98.9939,151.545 95.9939,159.545 93,167.5C 94.539,160.39 96.3723,153.39 98.5,146.5C 99.8095,146.134 100.809,144.801 101.5,142.5C 102.466,140.604 102.799,138.604 102.5,136.5 Z"/></g>
<g><path style="opacity:1" fill="#249143" d="M 162.5,142.5 C 166.833,142.5 171.167,142.5 175.5,142.5C 175.5,142.833 175.5,143.167 175.5,143.5C 177.265,144.461 179.265,144.795 181.5,144.5C 181.167,145.167 180.833,145.833 180.5,146.5C 177.74,147.192 175.073,148.192 172.5,149.5C 173.325,150.386 174.325,150.719 175.5,150.5C 173.172,156.331 168.839,158.498 162.5,157C 161.934,156.005 161.267,155.172 160.5,154.5C 159.911,150.029 160.577,146.029 162.5,142.5 Z"/></g>
<g><path style="opacity:1" fill="#242324" d="M 48.5,140.5 C 50.371,140.859 51.871,141.859 53,143.5C 54.879,149.76 52.7123,153.427 46.5,154.5C 44.0884,154.594 42.255,153.594 41,151.5C 40.3333,148.833 40.3333,146.167 41,143.5C 41.6891,142.643 42.5224,141.977 43.5,141.5C 44.205,144.089 44.205,146.756 43.5,149.5C 45.8333,149.5 48.1667,149.5 50.5,149.5C 49.8333,146.5 49.1667,143.5 48.5,140.5 Z"/></g>
<g><path style="opacity:1" fill="#1a8940" d="M 124.5,108.5 C 124.167,108.5 123.833,108.5 123.5,108.5C 122.505,120.322 122.172,132.322 122.5,144.5C 125.167,144.5 127.833,144.5 130.5,144.5C 131.648,149.43 132.315,154.43 132.5,159.5C 131.504,159.414 130.671,159.748 130,160.5C 129.854,155.734 128.354,155.401 125.5,159.5C 124.289,158.726 124.289,157.893 125.5,157C 124.181,156.805 122.847,156.972 121.5,157.5C 119.5,154.833 117.5,152.167 115.5,149.5C 113.405,146.124 112.071,142.458 111.5,138.5C 110.046,130.471 110.213,122.471 112,114.5C 113.512,113.743 114.846,112.743 116,111.5C 116.807,107.551 117.307,107.551 117.5,111.5C 118.5,111.5 119.5,111.5 120.5,111.5C 120.343,112.873 120.51,114.207 121,115.5C 121.498,112.518 121.665,109.518 121.5,106.5C 123.179,106.285 124.179,106.952 124.5,108.5 Z"/></g>
<g><path style="opacity:1" fill="#ebd683" d="M 130.5,144.5 C 131.167,144.5 131.833,144.5 132.5,144.5C 132.5,145.167 132.5,145.833 132.5,146.5C 134.907,150.877 137.24,155.21 139.5,159.5C 138.735,158.34 137.735,157.34 136.5,156.5C 135.358,157.826 134.024,158.826 132.5,159.5C 132.315,154.43 131.648,149.43 130.5,144.5 Z"/></g>
<g><path style="opacity:1" fill="#1f9243" d="M 153.5,143.5 C 153.628,147.881 153.295,152.215 152.5,156.5C 150.956,156.703 149.622,157.37 148.5,158.5C 144.369,157.744 141.036,155.744 138.5,152.5C 139.09,151.201 140.09,150.368 141.5,150C 138.852,147.95 135.852,146.784 132.5,146.5C 132.5,145.833 132.5,145.167 132.5,144.5C 139.471,143.71 146.471,143.377 153.5,143.5 Z"/></g>
<g><path style="opacity:1" fill="#f0cc7b" d="M 155.5,138.5 C 156.833,138.5 158.167,138.5 159.5,138.5C 160.488,139.795 161.488,141.128 162.5,142.5C 160.577,146.029 159.911,150.029 160.5,154.5C 160.014,157.755 161.014,160.422 163.5,162.5C 160.447,164.004 158.447,166.338 157.5,169.5C 156.833,169.167 156.167,168.833 155.5,168.5C 154.236,165.567 152.236,163.234 149.5,161.5C 151.297,160.305 152.297,158.638 152.5,156.5C 153.295,152.215 153.628,147.881 153.5,143.5C 153.5,142.833 153.167,142.5 152.5,142.5C 152.468,140.381 153.468,139.048 155.5,138.5 Z"/></g>
<g><path style="opacity:1" fill="#f0d687" d="M 181.5,144.5 C 182.693,144.97 183.36,145.97 183.5,147.5C 183.098,151.454 181.931,155.12 180,158.5C 179.311,157.643 178.478,156.977 177.5,156.5C 176.148,157.524 174.815,158.524 173.5,159.5C 175.917,155.234 178.583,151.068 181.5,147C 181.272,146.601 180.938,146.435 180.5,146.5C 180.833,145.833 181.167,145.167 181.5,144.5 Z"/></g>
<g><path style="opacity:1" fill="#4f5053" d="M 106.5,74.5 C 107.167,74.5 107.5,74.8333 107.5,75.5C 105.788,78.2615 104.622,81.2615 104,84.5C 100.303,89.3898 96.1362,93.7231 91.5,97.5C 91.8333,98.1667 92.1667,98.8333 92.5,99.5C 90.6415,102.59 90.3081,105.756 91.5,109C 89.9007,110.786 89.0674,112.953 89,115.5C 88.8333,119 88.6667,122.5 88.5,126C 89.9539,139.525 89.7872,153.025 88,166.5C 86.617,169.859 85.2836,173.193 84,176.5C 75.7095,180.353 68.8762,178.519 63.5,171C 64.733,169.302 65.3996,167.302 65.5,165C 63.6704,157.296 64.1704,149.796 67,142.5C 67.3333,146.833 67.6667,151.167 68,155.5C 69.1271,158.068 71.1271,159.402 74,159.5C 76.4716,158.678 78.9716,158.011 81.5,157.5C 82.1667,157.5 82.5,157.833 82.5,158.5C 79.9826,162.595 76.3159,164.928 71.5,165.5C 70.2652,165.279 69.2652,164.612 68.5,163.5C 68.5748,167.97 70.5748,171.637 74.5,174.5C 78.2604,175.226 80.927,173.893 82.5,170.5C 84.4459,168.266 85.6126,165.599 86,162.5C 86.6667,156.167 86.6667,149.833 86,143.5C 83.7014,132.266 83.0348,120.932 84,109.5C 85.7594,105.991 86.926,102.325 87.5,98.5C 94.5948,91.0753 100.928,83.0753 106.5,74.5 Z"/></g>
<g><path style="opacity:1" fill="#ece6b8" d="M 115.5,149.5 C 117.5,152.167 119.5,154.833 121.5,157.5C 121.833,158.167 122.167,158.833 122.5,159.5C 121.833,159.5 121.5,159.833 121.5,160.5C 119.045,157.658 116.712,154.658 114.5,151.5C 115.338,151.158 115.672,150.492 115.5,149.5 Z"/></g>
<g><path style="opacity:1" fill="#d1aa4b" d="M 199.5,145.5 C 197.15,152.855 193.15,159.189 187.5,164.5C 186.662,164.158 186.328,163.492 186.5,162.5C 191.217,157.118 195.55,151.451 199.5,145.5 Z"/></g>
<g><path style="opacity:1" fill="#525356" d="M 204.5,72.5 C 209.965,81.7458 216.632,90.0792 224.5,97.5C 225.973,102.463 227.473,107.463 229,112.5C 229.167,115.333 229.333,118.167 229.5,121C 227.974,132.133 226.641,143.299 225.5,154.5C 225.66,158.299 226.327,161.966 227.5,165.5C 229.115,171.124 232.782,174.124 238.5,174.5C 242.664,171.847 244.33,168.181 243.5,163.5C 242.818,164.243 242.151,164.909 241.5,165.5C 236.35,165.429 232.683,163.095 230.5,158.5C 234.33,158.491 238.33,158.325 242.5,158C 243,157.5 243.5,157 244,156.5C 245.398,151.502 245.898,146.502 245.5,141.5C 247.32,145.294 248.32,149.294 248.5,153.5C 247.49,159.896 247.323,166.23 248,172.5C 236.212,182.429 228.212,180.096 224,165.5C 223.588,158.66 223.088,151.827 222.5,145C 223.675,131.425 223.675,118.259 222.5,105.5C 221.57,102.641 219.904,100.307 217.5,98.5C 218.397,98.3309 219.397,97.9976 220.5,97.5C 216.167,93.6634 212.334,89.33 209,84.5C 207.914,80.6536 206.081,77.3203 203.5,74.5C 203.328,73.5084 203.662,72.8417 204.5,72.5 Z"/></g>
<g><path style="opacity:1" fill="#f2f3f3" d="M 82.5,158.5 C 83.1619,162.507 83.1619,166.507 82.5,170.5C 80.927,173.893 78.2604,175.226 74.5,174.5C 74.9175,173.778 75.5842,173.278 76.5,173C 73.2108,171.59 71.5441,169.09 71.5,165.5C 76.3159,164.928 79.9826,162.595 82.5,158.5 Z"/></g>
<g><path style="opacity:1" fill="#c29847" d="M 132.5,146.5 C 135.852,146.784 138.852,147.95 141.5,150C 140.09,150.368 139.09,151.201 138.5,152.5C 141.036,155.744 144.369,157.744 148.5,158.5C 149.622,157.37 150.956,156.703 152.5,156.5C 152.297,158.638 151.297,160.305 149.5,161.5C 152.236,163.234 154.236,165.567 155.5,168.5C 152.071,166.552 148.405,165.052 144.5,164C 142.382,162.951 140.716,161.451 139.5,159.5C 137.24,155.21 134.907,150.877 132.5,146.5 Z"/></g>
<g><path style="opacity:1" fill="#222121" d="M 272.5,163.5 C 271.414,163.38 270.747,162.713 270.5,161.5C 271.544,155.086 270.877,155.086 268.5,161.5C 265.606,165.607 263.106,165.274 261,160.5C 259.716,156.051 261.216,153.385 265.5,152.5C 263.234,161.661 264.234,161.828 268.5,153C 272.706,152.165 274.706,153.998 274.5,158.5C 274.563,160.514 273.897,162.181 272.5,163.5 Z"/></g>
<g><path style="opacity:1" fill="#afaeae" d="M 272.5,163.5 C 271.791,164.404 270.791,164.737 269.5,164.5C 269.737,163.209 269.404,162.209 268.5,161.5C 270.877,155.086 271.544,155.086 270.5,161.5C 270.747,162.713 271.414,163.38 272.5,163.5 Z"/></g>
<g><path style="opacity:1" fill="#c59e4c" d="M 180.5,146.5 C 180.938,146.435 181.272,146.601 181.5,147C 178.583,151.068 175.917,155.234 173.5,159.5C 172.853,161.141 171.853,162.474 170.5,163.5C 165.803,164.754 161.469,166.754 157.5,169.5C 158.447,166.338 160.447,164.004 163.5,162.5C 161.014,160.422 160.014,157.755 160.5,154.5C 161.267,155.172 161.934,156.005 162.5,157C 168.839,158.498 173.172,156.331 175.5,150.5C 174.325,150.719 173.325,150.386 172.5,149.5C 175.073,148.192 177.74,147.192 180.5,146.5 Z"/></g>
<g><path style="opacity:1" fill="#232323" d="M 50.5,156.5 C 52.1238,156.36 53.2904,157.027 54,158.5C 54.4983,161.817 54.665,165.15 54.5,168.5C 50.1434,168.586 45.81,168.92 41.5,169.5C 41.7592,165.76 41.4259,162.094 40.5,158.5C 41.325,157.614 42.325,157.281 43.5,157.5C 43.6985,159.96 44.3652,162.293 45.5,164.5C 45.7053,162.448 45.7053,160.114 45.5,157.5C 46.5,157.5 47.5,157.5 48.5,157.5C 48.5,159.833 48.5,162.167 48.5,164.5C 49.675,164.719 50.675,164.386 51.5,163.5C 50.6258,161.253 50.2924,158.92 50.5,156.5 Z"/></g>
<g><path style="opacity:1" fill="#d8bb6a" d="M 122.5,159.5 C 126.923,164.26 131.923,168.26 137.5,171.5C 137.5,172.167 137.167,172.5 136.5,172.5C 134.668,171.752 133.001,170.752 131.5,169.5C 131.158,168.662 130.492,168.328 129.5,168.5C 126.527,166.194 123.86,163.527 121.5,160.5C 121.5,159.833 121.833,159.5 122.5,159.5 Z"/></g>
<g><path style="opacity:1" fill="#12783c" d="M 132.5,159.5 C 134.024,158.826 135.358,157.826 136.5,156.5C 137.735,157.34 138.735,158.34 139.5,159.5C 140.716,161.451 142.382,162.951 144.5,164C 148.405,165.052 152.071,166.552 155.5,168.5C 156.167,168.833 156.833,169.167 157.5,169.5C 161.469,166.754 165.803,164.754 170.5,163.5C 171.8,164.108 173.133,164.775 174.5,165.5C 176.223,164.448 177.89,164.448 179.5,165.5C 181.322,161.898 182.322,161.898 182.5,165.5C 179.983,168.512 176.983,171.012 173.5,173C 167.955,175.275 162.622,177.775 157.5,180.5C 151.932,178.186 146.266,176.02 140.5,174C 139.627,172.955 138.627,172.122 137.5,171.5C 131.923,168.26 126.923,164.26 122.5,159.5C 122.167,158.833 121.833,158.167 121.5,157.5C 122.847,156.972 124.181,156.805 125.5,157C 124.289,157.893 124.289,158.726 125.5,159.5C 128.354,155.401 129.854,155.734 130,160.5C 130.671,159.748 131.504,159.414 132.5,159.5 Z"/></g>
<g><path style="opacity:1" fill="#bebec0" d="M 71.5,165.5 C 71.5441,169.09 73.2108,171.59 76.5,173C 75.5842,173.278 74.9175,173.778 74.5,174.5C 70.5748,171.637 68.5748,167.97 68.5,163.5C 69.2652,164.612 70.2652,165.279 71.5,165.5 Z"/></g>
<g><path style="opacity:1" fill="#b9b9bc" d="M 238.5,174.5 C 237.737,173.732 236.737,173.232 235.5,173C 238.817,171.52 240.817,169.02 241.5,165.5C 242.151,164.909 242.818,164.243 243.5,163.5C 244.33,168.181 242.664,171.847 238.5,174.5 Z"/></g>
<g><path style="opacity:1" fill="#182217" d="M 129.5,168.5 C 130.492,168.328 131.158,168.662 131.5,169.5C 126.64,170.344 121.974,172.011 117.5,174.5C 115.765,173.943 114.098,173.61 112.5,173.5C 111.858,176.797 110.691,177.131 109,174.5C 107.989,175.337 106.822,175.67 105.5,175.5C 104.833,175.167 104.167,174.833 103.5,174.5C 103.167,173.833 102.833,173.167 102.5,172.5C 111.491,171.169 120.491,169.835 129.5,168.5 Z"/></g>
<g><path style="opacity:1" fill="#141a15" d="M 183.5,168.5 C 191.425,169.098 199.091,170.431 206.5,172.5C 206.833,173.167 207.167,173.833 207.5,174.5C 206.833,174.833 206.167,175.167 205.5,175.5C 204.778,175.082 204.278,174.416 204,173.5C 202.057,174.315 200.057,175.315 198,176.5C 196.608,173.104 194.775,172.437 192.5,174.5C 191.713,173.758 191.047,172.925 190.5,172C 187.428,172.364 184.428,172.198 181.5,171.5C 180.833,171.5 180.167,171.5 179.5,171.5C 180.262,169.738 181.596,168.738 183.5,168.5 Z"/></g>
<g><path style="opacity:1" fill="#5f5f5e" d="M 206.5,172.5 C 208.292,172.366 209.958,172.699 211.5,173.5C 211.5,173.833 211.5,174.167 211.5,174.5C 210.167,174.5 208.833,174.5 207.5,174.5C 207.167,173.833 206.833,173.167 206.5,172.5 Z"/></g>
<g><path style="opacity:1" fill="#898988" d="M 102.5,172.5 C 102.833,173.167 103.167,173.833 103.5,174.5C 102.5,174.5 101.5,174.5 100.5,174.5C 100.5,175.5 100.5,176.5 100.5,177.5C 99.596,176.791 99.2627,175.791 99.5,174.5C 98.5,174.5 97.5,174.5 96.5,174.5C 98.3024,173.542 100.302,172.875 102.5,172.5 Z"/></g>
<g><path style="opacity:1" fill="#162a18" d="M 181.5,171.5 C 184.428,172.198 187.428,172.364 190.5,172C 191.047,172.925 191.713,173.758 192.5,174.5C 194.775,172.437 196.608,173.104 198,176.5C 200.057,175.315 202.057,174.315 204,173.5C 204.278,174.416 204.778,175.082 205.5,175.5C 205.263,176.791 205.596,177.791 206.5,178.5C 206.205,180.735 206.539,182.735 207.5,184.5C 207.5,184.833 207.5,185.167 207.5,185.5C 207.158,186.338 206.492,186.672 205.5,186.5C 204.833,186.5 204.167,186.5 203.5,186.5C 202.07,185.463 200.403,184.796 198.5,184.5C 200.218,183.776 202.052,183.109 204,182.5C 204.774,180.597 204.44,178.93 203,177.5C 202.374,179.991 201.541,179.991 200.5,177.5C 199.808,178.025 199.308,178.692 199,179.5C 197.667,178.167 196.333,178.167 195,179.5C 194.544,178.256 195.044,177.423 196.5,177C 195.407,175.635 194.074,175.301 192.5,176C 193.696,176.654 193.696,177.154 192.5,177.5C 191.522,177.023 190.689,176.357 190,175.5C 189.051,178.2 187.217,179.033 184.5,178C 184.833,177.667 185.167,177.333 185.5,177C 183.5,176.667 181.5,176.333 179.5,176C 180.938,175.781 182.271,175.281 183.5,174.5C 182.388,173.735 181.721,172.735 181.5,171.5 Z"/></g>
<g><path style="opacity:1" fill="#f5f5f5" d="M 103.5,174.5 C 104.167,174.833 104.833,175.167 105.5,175.5C 105.5,176.5 105.5,177.5 105.5,178.5C 104.883,178.611 104.383,178.944 104,179.5C 103.665,176.81 102.499,176.143 100.5,177.5C 100.5,176.5 100.5,175.5 100.5,174.5C 101.5,174.5 102.5,174.5 103.5,174.5 Z"/></g>
<g><path style="opacity:1" fill="#3d5f30" d="M 131.5,169.5 C 133.001,170.752 134.668,171.752 136.5,172.5C 139.362,174.76 142.362,176.76 145.5,178.5C 140.199,177.823 134.866,177.323 129.5,177C 127.987,174.977 126.654,175.144 125.5,177.5C 124.833,176.5 124.167,175.5 123.5,174.5C 123.213,175.2 122.88,175.867 122.5,176.5C 121.127,176.343 119.793,176.51 118.5,177C 119.696,177.654 119.696,178.154 118.5,178.5C 114.966,177.869 111.466,177.202 108,176.5C 107.495,178.518 106.995,180.518 106.5,182.5C 105.566,181.432 105.232,180.099 105.5,178.5C 105.5,177.5 105.5,176.5 105.5,175.5C 106.822,175.67 107.989,175.337 109,174.5C 110.691,177.131 111.858,176.797 112.5,173.5C 114.098,173.61 115.765,173.943 117.5,174.5C 121.974,172.011 126.64,170.344 131.5,169.5 Z"/></g>
<g><path style="opacity:1" fill="#d1d6b3" d="M 186.5,162.5 C 186.328,163.492 186.662,164.158 187.5,164.5C 185.861,165.473 184.527,166.806 183.5,168.5C 181.596,168.738 180.262,169.738 179.5,171.5C 174.407,174.713 169.073,177.38 163.5,179.5C 161.421,179.971 159.421,180.637 157.5,181.5C 157.5,181.167 157.5,180.833 157.5,180.5C 162.622,177.775 167.955,175.275 173.5,173C 176.983,171.012 179.983,168.512 182.5,165.5C 184.141,164.853 185.474,163.853 186.5,162.5 Z"/></g>
<g><path style="opacity:1" fill="#ebebea" d="M 207.5,174.5 C 208.833,174.5 210.167,174.5 211.5,174.5C 211.179,176.048 210.179,176.715 208.5,176.5C 208.869,178.993 208.203,179.66 206.5,178.5C 205.596,177.791 205.263,176.791 205.5,175.5C 206.167,175.167 206.833,174.833 207.5,174.5 Z"/></g>
<g><path style="opacity:1" fill="#201f1f" d="M 260.5,165.5 C 264.078,167.075 267.411,169.075 270.5,171.5C 271.466,173.396 271.799,175.396 271.5,177.5C 267.186,178.275 262.853,178.941 258.5,179.5C 258.707,176.761 259.707,174.427 261.5,172.5C 260.777,170.218 260.443,167.884 260.5,165.5 Z"/></g>
<g><path style="opacity:1" fill="#a1a0a1" d="M 263.5,172.5 C 269.196,173.101 269.529,174.101 264.5,175.5C 263.614,174.675 263.281,173.675 263.5,172.5 Z"/></g>
<g><path style="opacity:1" fill="#212021" d="M 42.5,172.5 C 43.5,172.5 44.5,172.5 45.5,172.5C 45.5,173.5 45.5,174.5 45.5,175.5C 49.1981,175.448 52.8648,175.114 56.5,174.5C 56.762,175.978 56.4287,177.311 55.5,178.5C 52.9607,179.115 50.4607,179.782 48,180.5C 47.51,181.793 47.3433,183.127 47.5,184.5C 46.5,184.5 45.5,184.5 44.5,184.5C 43.9619,180.476 43.2952,176.476 42.5,172.5 Z"/></g>
<g><path style="opacity:1" fill="#1e2d1e" d="M 96.5,174.5 C 97.5,174.5 98.5,174.5 99.5,174.5C 99.2627,175.791 99.596,176.791 100.5,177.5C 100.737,178.791 100.404,179.791 99.5,180.5C 98.7934,178.866 97.6268,177.532 96,176.5C 92.6434,177.17 89.4767,178.337 86.5,180C 88.9042,180.508 89.5709,181.675 88.5,183.5C 84.2277,180.701 80.2277,181.034 76.5,184.5C 73.9455,183.697 72.1122,184.697 71,187.5C 70.3292,186.748 69.4959,186.414 68.5,186.5C 77.048,180.898 86.3814,176.898 96.5,174.5 Z"/></g>
<g><path style="opacity:1" fill="#5f7941" d="M 122.5,176.5 C 123.914,178.138 123.58,179.472 121.5,180.5C 120.349,181.731 119.183,181.731 118,180.5C 117.015,181.814 115.848,182.814 114.5,183.5C 114.167,183.5 113.833,183.5 113.5,183.5C 111.599,183.433 109.766,183.767 108,184.5C 106.97,184.164 106.47,183.497 106.5,182.5C 106.995,180.518 107.495,178.518 108,176.5C 111.466,177.202 114.966,177.869 118.5,178.5C 119.696,178.154 119.696,177.654 118.5,177C 119.793,176.51 121.127,176.343 122.5,176.5 Z"/></g>
<g><path style="opacity:1" fill="#62714c" d="M 145.5,178.5 C 147.786,178.595 149.786,179.262 151.5,180.5C 151.25,181.922 150.417,182.922 149,183.5C 147,181.167 144.5,179.667 141.5,179C 136.662,178.646 131.995,178.48 127.5,178.5C 126.702,178.957 126.369,179.624 126.5,180.5C 126.5,181.167 126.167,181.5 125.5,181.5C 121.864,182.326 118.197,182.992 114.5,183.5C 115.848,182.814 117.015,181.814 118,180.5C 119.183,181.731 120.349,181.731 121.5,180.5C 123.58,179.472 123.914,178.138 122.5,176.5C 122.88,175.867 123.213,175.2 123.5,174.5C 124.167,175.5 124.833,176.5 125.5,177.5C 126.654,175.144 127.987,174.977 129.5,177C 134.866,177.323 140.199,177.823 145.5,178.5 Z"/></g>
<g><path style="opacity:1" fill="#b9ba7b" d="M 137.5,171.5 C 138.627,172.122 139.627,172.955 140.5,174C 146.266,176.02 151.932,178.186 157.5,180.5C 157.5,180.833 157.5,181.167 157.5,181.5C 156.5,181.5 155.5,181.5 154.5,181.5C 153.791,180.596 152.791,180.263 151.5,180.5C 149.786,179.262 147.786,178.595 145.5,178.5C 142.362,176.76 139.362,174.76 136.5,172.5C 137.167,172.5 137.5,172.167 137.5,171.5 Z"/></g>
<g><path style="opacity:1" fill="#828282" d="M 211.5,174.5 C 212.291,176.309 212.291,178.309 211.5,180.5C 214.713,180.19 217.713,180.523 220.5,181.5C 216.167,181.5 211.833,181.5 207.5,181.5C 207.5,182.5 207.5,183.5 207.5,184.5C 206.539,182.735 206.205,180.735 206.5,178.5C 208.203,179.66 208.869,178.993 208.5,176.5C 210.179,176.715 211.179,176.048 211.5,174.5 Z"/></g>
<g><path style="opacity:1" fill="#5f6157" d="M 151.5,180.5 C 152.791,180.263 153.791,180.596 154.5,181.5C 154.343,183.818 153.176,185.484 151,186.5C 150.055,186.095 149.388,185.428 149,184.5C 148.722,185.416 148.222,186.082 147.5,186.5C 146.472,183.286 144.138,181.452 140.5,181C 135.845,180.501 131.179,180.334 126.5,180.5C 126.369,179.624 126.702,178.957 127.5,178.5C 131.995,178.48 136.662,178.646 141.5,179C 144.5,179.667 147,181.167 149,183.5C 150.417,182.922 151.25,181.922 151.5,180.5 Z"/></g>
<g><path style="opacity:1" fill="#979393" d="M 174.5,180.5 C 177.897,179.506 181.23,179.84 184.5,181.5C 182.868,181.825 181.868,182.825 181.5,184.5C 182.807,186.182 182.807,187.848 181.5,189.5C 180.508,189.672 179.842,189.338 179.5,188.5C 177.798,186.2 177.132,183.533 177.5,180.5C 176.5,180.5 175.5,180.5 174.5,180.5 Z"/></g>
<g><path style="opacity:1" fill="#f3f3f2" d="M 126.5,180.5 C 131.179,180.334 135.845,180.501 140.5,181C 144.138,181.452 146.472,183.286 147.5,186.5C 146.717,190.393 144.717,191.227 141.5,189C 137.514,188.501 133.514,188.334 129.5,188.5C 129.5,188.167 129.5,187.833 129.5,187.5C 129.5,187.167 129.5,186.833 129.5,186.5C 128.764,184.771 127.43,183.771 125.5,183.5C 125.5,182.833 125.5,182.167 125.5,181.5C 126.167,181.5 126.5,181.167 126.5,180.5 Z"/></g>
<g><path style="opacity:1" fill="#f4f3f3" d="M 174.5,180.5 C 175.5,180.5 176.5,180.5 177.5,180.5C 177.132,183.533 177.798,186.2 179.5,188.5C 175.288,188.078 171.288,188.744 167.5,190.5C 166.148,189.476 164.815,188.476 163.5,187.5C 163.657,184.682 164.991,182.682 167.5,181.5C 169.764,180.781 172.097,180.448 174.5,180.5 Z"/></g>
<g><path style="opacity:1" fill="#3f5533" d="M 179.5,171.5 C 180.167,171.5 180.833,171.5 181.5,171.5C 181.721,172.735 182.388,173.735 183.5,174.5C 182.271,175.281 180.938,175.781 179.5,176C 181.5,176.333 183.5,176.667 185.5,177C 185.167,177.333 184.833,177.667 184.5,178C 187.217,179.033 189.051,178.2 190,175.5C 190.689,176.357 191.522,177.023 192.5,177.5C 193.696,177.154 193.696,176.654 192.5,176C 194.074,175.301 195.407,175.635 196.5,177C 195.044,177.423 194.544,178.256 195,179.5C 196.333,178.167 197.667,178.167 199,179.5C 199.308,178.692 199.808,178.025 200.5,177.5C 201.541,179.991 202.374,179.991 203,177.5C 204.44,178.93 204.774,180.597 204,182.5C 202.052,183.109 200.218,183.776 198.5,184.5C 194.026,182.677 189.36,181.677 184.5,181.5C 181.23,179.84 177.897,179.506 174.5,180.5C 172.097,180.448 169.764,180.781 167.5,181.5C 167.611,180.883 167.944,180.383 168.5,180C 166.546,179.838 164.879,179.671 163.5,179.5C 169.073,177.38 174.407,174.713 179.5,171.5 Z"/></g>
<g><path style="opacity:1" fill="#172719" d="M 211.5,174.5 C 211.5,174.167 211.5,173.833 211.5,173.5C 215.137,173.87 218.47,174.87 221.5,176.5C 220.761,176.369 220.094,176.536 219.5,177C 222.298,178.196 224.298,180.196 225.5,183C 226.833,183.333 228.167,183.667 229.5,184C 227.641,184.601 227.308,185.434 228.5,186.5C 226.94,188.129 227.273,189.296 229.5,190C 226.174,192.946 222.507,194.113 218.5,193.5C 218.433,192.041 218.766,190.708 219.5,189.5C 219.833,189.5 220.167,189.5 220.5,189.5C 220.5,190.5 220.5,191.5 220.5,192.5C 221.5,192.5 222.5,192.5 223.5,192.5C 223.826,190.339 224.826,188.506 226.5,187C 224.846,186.392 223.179,185.892 221.5,185.5C 221.567,184.041 221.234,182.708 220.5,181.5C 217.713,180.523 214.713,180.19 211.5,180.5C 212.291,178.309 212.291,176.309 211.5,174.5 Z"/></g>
<g><path style="opacity:1" fill="#eeeeee" d="M 220.5,181.5 C 221.234,182.708 221.567,184.041 221.5,185.5C 220.833,185.5 220.5,185.833 220.5,186.5C 218.952,186.179 218.285,185.179 218.5,183.5C 214.838,182.637 212.672,183.97 212,187.5C 210.53,186.733 209.03,186.067 207.5,185.5C 207.5,185.167 207.5,184.833 207.5,184.5C 207.5,183.5 207.5,182.5 207.5,181.5C 211.833,181.5 216.167,181.5 220.5,181.5 Z"/></g>
<g><path style="opacity:1" fill="#eeeded" d="M 91.5,181.5 C 95.8333,181.5 100.167,181.5 104.5,181.5C 105.047,185.29 103.38,187.29 99.5,187.5C 99.4455,186.47 99.1122,185.303 98.5,184C 96.8659,183.506 95.1992,183.34 93.5,183.5C 93.5983,186.248 92.5983,186.914 90.5,185.5C 90.4326,184.041 90.7659,182.708 91.5,181.5 Z"/></g>
<g><path style="opacity:1" fill="#646c54" d="M 163.5,179.5 C 164.879,179.671 166.546,179.838 168.5,180C 167.944,180.383 167.611,180.883 167.5,181.5C 164.991,182.682 163.657,184.682 163.5,187.5C 163.5,189.5 162.5,190.5 160.5,190.5C 157.194,192.109 154.361,191.442 152,188.5C 151.624,191.01 150.79,193.343 149.5,195.5C 148.859,194.007 147.859,193.007 146.5,192.5C 144.915,192.985 143.415,192.319 142,190.5C 140.026,190.626 137.859,190.792 135.5,191C 134,193.167 132.833,193 132,190.5C 131.692,191.308 131.192,191.975 130.5,192.5C 127.046,192.225 123.713,191.891 120.5,191.5C 123.659,190.669 126.659,189.669 129.5,188.5C 133.514,188.334 137.514,188.501 141.5,189C 144.717,191.227 146.717,190.393 147.5,186.5C 148.222,186.082 148.722,185.416 149,184.5C 149.388,185.428 150.055,186.095 151,186.5C 153.176,185.484 154.343,183.818 154.5,181.5C 155.5,181.5 156.5,181.5 157.5,181.5C 159.421,180.637 161.421,179.971 163.5,179.5 Z"/></g>
<g><path style="opacity:1" fill="#d3d2d2" d="M 184.5,181.5 C 189.36,181.677 194.026,182.677 198.5,184.5C 200.403,184.796 202.07,185.463 203.5,186.5C 202.209,186.263 201.209,186.596 200.5,187.5C 199.175,186.047 198.342,186.381 198,188.5C 197,187.5 196,186.5 195,185.5C 194.414,188.019 193.247,190.019 191.5,191.5C 188.211,190.626 184.877,189.959 181.5,189.5C 182.807,187.848 182.807,186.182 181.5,184.5C 181.868,182.825 182.868,181.825 184.5,181.5 Z"/></g>
<g><path style="opacity:1" fill="#446331" d="M 99.5,180.5 C 96.6146,180.194 93.9479,180.527 91.5,181.5C 90.7659,182.708 90.4326,184.041 90.5,185.5C 90.5172,187.565 90.8505,189.565 91.5,191.5C 89.8174,190.339 87.984,189.339 86,188.5C 85.2352,188.57 84.7352,188.903 84.5,189.5C 82.3379,189.103 81.0046,187.769 80.5,185.5C 80.5105,186.441 80.0105,187.108 79,187.5C 78.0497,186.978 77.2164,186.311 76.5,185.5C 75.7022,187.078 75.2022,188.744 75,190.5C 74.1887,189.04 73.3554,188.707 72.5,189.5C 73.8569,191.186 75.1902,192.852 76.5,194.5C 74.3071,193.32 71.9738,192.32 69.5,191.5C 67.556,192.189 65.556,192.689 63.5,193C 64.4506,193.718 64.6172,194.551 64,195.5C 62.8173,194.269 61.6507,194.269 60.5,195.5C 62.0681,197.894 63.4015,200.394 64.5,203C 63.1667,203.667 61.8333,204.333 60.5,205C 61.056,205.383 61.3893,205.883 61.5,206.5C 59.5336,205.559 57.5336,204.559 55.5,203.5C 55.6399,204.569 55.6399,205.736 55.5,207C 53.8659,207.494 52.1992,207.66 50.5,207.5C 50.5,206.5 50.5,205.5 50.5,204.5C 54.2012,196.132 60.2012,190.132 68.5,186.5C 69.4959,186.414 70.3292,186.748 71,187.5C 72.1122,184.697 73.9455,183.697 76.5,184.5C 80.2277,181.034 84.2277,180.701 88.5,183.5C 89.5709,181.675 88.9042,180.508 86.5,180C 89.4767,178.337 92.6434,177.17 96,176.5C 97.6268,177.532 98.7934,178.866 99.5,180.5 Z"/></g>
<g><path style="opacity:1" fill="#c8c5c2" d="M 125.5,181.5 C 125.5,182.167 125.5,182.833 125.5,183.5C 125.062,183.435 124.728,183.601 124.5,184C 124.842,187.55 126.509,188.717 129.5,187.5C 129.5,187.833 129.5,188.167 129.5,188.5C 126.659,189.669 123.659,190.669 120.5,191.5C 119.508,191.328 118.842,191.662 118.5,192.5C 117.717,190.657 117.05,188.657 116.5,186.5C 115.277,185.386 113.944,185.219 112.5,186C 113.5,186.333 114.5,186.667 115.5,187C 114.316,188.145 114.316,189.312 115.5,190.5C 113.469,189.461 112.136,187.795 111.5,185.5C 112.167,184.833 112.833,184.167 113.5,183.5C 113.833,183.5 114.167,183.5 114.5,183.5C 118.197,182.992 121.864,182.326 125.5,181.5 Z"/></g>
<g><path style="opacity:1" fill="#7c7974" d="M 129.5,186.5 C 129.413,183.402 129.913,183.068 131,185.5C 131.249,184.376 131.749,183.376 132.5,182.5C 133.631,184.074 133.798,185.741 133,187.5C 131.855,187.381 130.688,187.048 129.5,186.5 Z"/></g>
<g><path style="opacity:1" fill="#101a13" d="M 221.5,176.5 C 236.691,179.753 249.358,187.086 259.5,198.5C 259.616,201.86 259.949,205.193 260.5,208.5C 257.5,208.5 254.5,208.5 251.5,208.5C 253.1,207.356 254.767,206.189 256.5,205C 255.906,204.536 255.239,204.369 254.5,204.5C 253.022,204.762 251.689,204.429 250.5,203.5C 251.309,201.929 251.643,200.262 251.5,198.5C 248.203,198.671 247.869,198.005 250.5,196.5C 248.807,194.973 246.973,193.64 245,192.5C 244.586,192.957 244.086,193.291 243.5,193.5C 241.123,192.415 238.789,191.248 236.5,190C 238.645,189.257 238.811,188.424 237,187.5C 235.97,187.836 235.47,188.503 235.5,189.5C 234.504,189.586 233.671,189.252 233,188.5C 231.456,191.264 230.289,191.097 229.5,188C 230.712,186.893 230.379,186.393 228.5,186.5C 227.308,185.434 227.641,184.601 229.5,184C 228.167,183.667 226.833,183.333 225.5,183C 224.298,180.196 222.298,178.196 219.5,177C 220.094,176.536 220.761,176.369 221.5,176.5 Z"/></g>
<g><path style="opacity:1" fill="#71716a" d="M 105.5,178.5 C 105.232,180.099 105.566,181.432 106.5,182.5C 106.47,183.497 106.97,184.164 108,184.5C 109.766,183.767 111.599,183.433 113.5,183.5C 112.833,184.167 112.167,184.833 111.5,185.5C 107.314,186.229 103.314,187.562 99.5,189.5C 98.52,192.086 98.1866,194.753 98.5,197.5C 95.9356,197.979 93.4356,198.645 91,199.5C 90.4712,197.415 90.9712,195.582 92.5,194C 92.2568,193.098 91.9234,192.265 91.5,191.5C 90.8505,189.565 90.5172,187.565 90.5,185.5C 92.5983,186.914 93.5983,186.248 93.5,183.5C 95.1992,183.34 96.8659,183.506 98.5,184C 99.1122,185.303 99.4455,186.47 99.5,187.5C 103.38,187.29 105.047,185.29 104.5,181.5C 100.167,181.5 95.8333,181.5 91.5,181.5C 93.9479,180.527 96.6146,180.194 99.5,180.5C 100.404,179.791 100.737,178.791 100.5,177.5C 102.499,176.143 103.665,176.81 104,179.5C 104.383,178.944 104.883,178.611 105.5,178.5 Z"/></g>
<g><path style="opacity:1" fill="#8f8b8c" d="M 185.5,183.5 C 187.213,184.635 187.88,186.302 187.5,188.5C 186.022,188.762 184.689,188.429 183.5,187.5C 184.63,186.378 185.297,185.044 185.5,183.5 Z"/></g>
<g><path style="opacity:1" fill="#f1f0f0" d="M 203.5,186.5 C 204.167,186.5 204.833,186.5 205.5,186.5C 207.838,188.04 210.505,188.706 213.5,188.5C 213.5,191.167 213.5,193.833 213.5,196.5C 210.117,197.879 206.784,197.546 203.5,195.5C 204.159,193.862 204.826,192.195 205.5,190.5C 204.311,189.571 202.978,189.238 201.5,189.5C 201.5,191.167 201.5,192.833 201.5,194.5C 199.167,193.833 196.833,193.167 194.5,192.5C 194.783,191.711 195.283,191.044 196,190.5C 199.462,193.244 200.962,192.244 200.5,187.5C 201.209,186.596 202.209,186.263 203.5,186.5 Z"/></g>
<g><path style="opacity:1" fill="#f8f8f6" d="M 111.5,185.5 C 112.136,187.795 113.469,189.461 115.5,190.5C 112.405,193.195 109.071,195.528 105.5,197.5C 103.167,197.5 100.833,197.5 98.5,197.5C 98.1866,194.753 98.52,192.086 99.5,189.5C 103.314,187.562 107.314,186.229 111.5,185.5 Z"/></g>
<g><path style="opacity:1" fill="#64646c" d="M 120.5,185.5 C 121.542,184.209 122.708,184.209 124,185.5C 124.781,186.944 124.614,188.277 123.5,189.5C 122.141,188.376 121.141,187.042 120.5,185.5 Z"/></g>
<g><path style="opacity:1" fill="#686a6e" d="M 125.5,183.5 C 127.43,183.771 128.764,184.771 129.5,186.5C 129.5,186.833 129.5,187.167 129.5,187.5C 126.509,188.717 124.842,187.55 124.5,184C 124.728,183.601 125.062,183.435 125.5,183.5 Z"/></g>
<g><path style="opacity:1" fill="#5e5a52" d="M 118.5,192.5 C 114.795,194.208 110.462,195.875 105.5,197.5C 109.071,195.528 112.405,193.195 115.5,190.5C 114.316,189.312 114.316,188.145 115.5,187C 114.5,186.667 113.5,186.333 112.5,186C 113.944,185.219 115.277,185.386 116.5,186.5C 117.05,188.657 117.717,190.657 118.5,192.5 Z"/></g>
<g><path style="opacity:1" fill="#929090" d="M 220.5,186.5 C 220.5,187.5 220.5,188.5 220.5,189.5C 220.167,189.5 219.833,189.5 219.5,189.5C 219.631,188.624 219.298,187.957 218.5,187.5C 217.678,189.139 217.011,190.805 216.5,192.5C 215.022,193.448 214.022,194.781 213.5,196.5C 213.5,193.833 213.5,191.167 213.5,188.5C 210.505,188.706 207.838,188.04 205.5,186.5C 206.492,186.672 207.158,186.338 207.5,185.5C 209.03,186.067 210.53,186.733 212,187.5C 212.672,183.97 214.838,182.637 218.5,183.5C 218.285,185.179 218.952,186.179 220.5,186.5 Z"/></g>
<g><path style="opacity:1" fill="#345429" d="M 221.5,185.5 C 223.179,185.892 224.846,186.392 226.5,187C 224.826,188.506 223.826,190.339 223.5,192.5C 222.5,192.5 221.5,192.5 220.5,192.5C 220.5,191.5 220.5,190.5 220.5,189.5C 220.5,188.5 220.5,187.5 220.5,186.5C 220.5,185.833 220.833,185.5 221.5,185.5 Z"/></g>
<g><path style="opacity:1" fill="#659343" d="M 84.5,189.5 C 82.9397,191.129 83.273,192.296 85.5,193C 83.9651,193.496 82.4651,193.33 81,192.5C 79.5936,193.414 78.0936,194.08 76.5,194.5C 75.1902,192.852 73.8569,191.186 72.5,189.5C 73.3554,188.707 74.1887,189.04 75,190.5C 75.2022,188.744 75.7022,187.078 76.5,185.5C 77.2164,186.311 78.0497,186.978 79,187.5C 80.0105,187.108 80.5105,186.441 80.5,185.5C 81.0046,187.769 82.3379,189.103 84.5,189.5 Z"/></g>
<g><path style="opacity:1" fill="#d3d2cf" d="M 94.5,185.5 C 95.209,184.596 96.209,184.263 97.5,184.5C 97.1145,188.325 96.1145,191.991 94.5,195.5C 93.0908,192.836 92.7575,190.169 93.5,187.5C 94.2508,188.376 94.7508,189.376 95,190.5C 95.7796,188.613 95.6129,186.946 94.5,185.5 Z"/></g>
<g><path style="opacity:1" fill="#7b7a79" d="M 200.5,187.5 C 200.962,192.244 199.462,193.244 196,190.5C 195.283,191.044 194.783,191.711 194.5,192.5C 193.209,192.737 192.209,192.404 191.5,191.5C 193.247,190.019 194.414,188.019 195,185.5C 196,186.5 197,187.5 198,188.5C 198.342,186.381 199.175,186.047 200.5,187.5 Z"/></g>
<g><path style="opacity:1" fill="#d6d6d8" d="M 219.5,189.5 C 218.766,190.708 218.433,192.041 218.5,193.5C 218.5,194.167 218.5,194.833 218.5,195.5C 216.952,195.179 216.285,194.179 216.5,192.5C 217.011,190.805 217.678,189.139 218.5,187.5C 219.298,187.957 219.631,188.624 219.5,189.5 Z"/></g>
<g><path style="opacity:1" fill="#a09d9e" d="M 203.5,195.5 C 202.508,195.672 201.842,195.338 201.5,194.5C 201.5,192.833 201.5,191.167 201.5,189.5C 202.978,189.238 204.311,189.571 205.5,190.5C 204.826,192.195 204.159,193.862 203.5,195.5 Z"/></g>
<g><path style="opacity:1" fill="#798f54" d="M 84.5,189.5 C 86.1171,190.589 86.9504,192.256 87,194.5C 87.6689,191.972 88.5022,191.972 89.5,194.5C 87.0962,195.35 84.7628,196.35 82.5,197.5C 83.376,198.251 84.376,198.751 85.5,199C 83.7397,199.965 83.4063,201.132 84.5,202.5C 85.7046,200.862 87.0379,200.529 88.5,201.5C 90.3817,200.907 92.2151,200.24 94,199.5C 94.5,200 95,200.5 95.5,201C 90.8428,202.476 88.1762,205.643 87.5,210.5C 87.1667,210.5 86.8333,210.5 86.5,210.5C 85.4008,207.665 83.4008,205.665 80.5,204.5C 78.4123,206.865 75.7456,207.865 72.5,207.5C 72.5,208.5 72.5,209.5 72.5,210.5C 71.8333,210.5 71.1667,210.5 70.5,210.5C 70.5858,209.504 70.2524,208.671 69.5,208C 70.1667,207.667 70.8333,207.333 71.5,207C 68.2113,205.305 64.878,205.138 61.5,206.5C 61.3893,205.883 61.056,205.383 60.5,205C 61.8333,204.333 63.1667,203.667 64.5,203C 63.4015,200.394 62.0681,197.894 60.5,195.5C 61.6507,194.269 62.8173,194.269 64,195.5C 64.6172,194.551 64.4506,193.718 63.5,193C 65.556,192.689 67.556,192.189 69.5,191.5C 71.9738,192.32 74.3071,193.32 76.5,194.5C 78.0936,194.08 79.5936,193.414 81,192.5C 82.4651,193.33 83.9651,193.496 85.5,193C 83.273,192.296 82.9397,191.129 84.5,189.5 Z"/></g>
<g><path style="opacity:1" fill="#566446" d="M 176.5,191.5 C 179.845,195.016 183.345,195.349 187,192.5C 187.667,193.5 187.667,194.5 187,195.5C 186.346,194.304 185.846,194.304 185.5,195.5C 186.025,196.192 186.692,196.692 187.5,197C 185.092,199.688 183.092,202.521 181.5,205.5C 179.712,205.215 178.045,205.548 176.5,206.5C 176.863,207.183 177.196,207.85 177.5,208.5C 174.833,208.5 172.167,208.5 169.5,208.5C 170.635,207.526 171.635,206.359 172.5,205C 171.833,204.667 171.167,204.333 170.5,204C 172.748,201.956 174.748,202.123 176.5,204.5C 177.287,203.758 177.953,202.925 178.5,202C 176.527,201.505 174.527,201.338 172.5,201.5C 172.116,199.335 172.783,197.668 174.5,196.5C 175.604,197.631 175.271,198.465 173.5,199C 176.312,199.466 178.979,198.966 181.5,197.5C 181.291,196.914 180.957,196.414 180.5,196C 177.768,195.587 175.101,194.92 172.5,194C 173.736,192.915 175.069,192.082 176.5,191.5 Z"/></g>
<g><path style="opacity:1" fill="#446138" d="M 228.5,186.5 C 230.379,186.393 230.712,186.893 229.5,188C 230.289,191.097 231.456,191.264 233,188.5C 233.671,189.252 234.504,189.586 235.5,189.5C 229.335,192.381 229.335,193.548 235.5,193C 234.328,193.419 233.328,194.085 232.5,195C 228.522,196.15 224.522,196.65 220.5,196.5C 219.833,196.167 219.167,195.833 218.5,195.5C 218.5,194.833 218.5,194.167 218.5,193.5C 222.507,194.113 226.174,192.946 229.5,190C 227.273,189.296 226.94,188.129 228.5,186.5 Z"/></g>
<g><path style="opacity:1" fill="#737e5d" d="M 84.5,189.5 C 84.7352,188.903 85.2352,188.57 86,188.5C 87.984,189.339 89.8174,190.339 91.5,191.5C 91.9234,192.265 92.2568,193.098 92.5,194C 90.9712,195.582 90.4712,197.415 91,199.5C 93.4356,198.645 95.9356,197.979 98.5,197.5C 100.833,197.5 103.167,197.5 105.5,197.5C 110.462,195.875 114.795,194.208 118.5,192.5C 118.842,191.662 119.508,191.328 120.5,191.5C 123.713,191.891 127.046,192.225 130.5,192.5C 131.192,191.975 131.692,191.308 132,190.5C 132.833,193 134,193.167 135.5,191C 137.859,190.792 140.026,190.626 142,190.5C 143.415,192.319 144.915,192.985 146.5,192.5C 145.116,193.801 143.616,193.801 142,192.5C 141.508,193.549 141.674,194.549 142.5,195.5C 139.81,196.602 137.143,196.436 134.5,195C 135.696,194.346 135.696,193.846 134.5,193.5C 131.839,194.332 129.172,195.166 126.5,196C 128.49,197.751 130.823,198.751 133.5,199C 132.09,199.368 131.09,200.201 130.5,201.5C 131.776,202.645 133.109,202.645 134.5,201.5C 135.386,202.325 135.719,203.325 135.5,204.5C 137.97,204.346 139.97,203.346 141.5,201.5C 146.275,201.635 150.942,201.968 155.5,202.5C 153.194,202.993 150.861,203.326 148.5,203.5C 148.719,204.675 148.386,205.675 147.5,206.5C 145.597,206.306 143.763,206.306 142,206.5C 141.53,207.577 141.697,208.577 142.5,209.5C 124.157,209.417 105.823,209.75 87.5,210.5C 88.1762,205.643 90.8428,202.476 95.5,201C 95,200.5 94.5,200 94,199.5C 92.2151,200.24 90.3817,200.907 88.5,201.5C 87.0379,200.529 85.7046,200.862 84.5,202.5C 83.4063,201.132 83.7397,199.965 85.5,199C 84.376,198.751 83.376,198.251 82.5,197.5C 84.7628,196.35 87.0962,195.35 89.5,194.5C 88.5022,191.972 87.6689,191.972 87,194.5C 86.9504,192.256 86.1171,190.589 84.5,189.5 Z"/></g>
<g><path style="opacity:1" fill="#4a5347" d="M 163.5,187.5 C 164.815,188.476 166.148,189.476 167.5,190.5C 171.288,188.744 175.288,188.078 179.5,188.5C 179.842,189.338 180.508,189.672 181.5,189.5C 184.877,189.959 188.211,190.626 191.5,191.5C 192.209,192.404 193.209,192.737 194.5,192.5C 196.833,193.167 199.167,193.833 201.5,194.5C 201.842,195.338 202.508,195.672 203.5,195.5C 206.784,197.546 210.117,197.879 213.5,196.5C 214.022,194.781 215.022,193.448 216.5,192.5C 216.285,194.179 216.952,195.179 218.5,195.5C 219.167,195.833 219.833,196.167 220.5,196.5C 222.636,197.653 224.636,198.986 226.5,200.5C 227.463,201.363 227.463,202.03 226.5,202.5C 224.958,201.253 223.458,201.253 222,202.5C 221.101,200.632 219.601,199.632 217.5,199.5C 215.252,200.793 212.918,201.793 210.5,202.5C 209.504,202.414 208.671,202.748 208,203.5C 207.915,205.085 207.749,206.418 207.5,207.5C 206.167,206.833 204.833,206.167 203.5,205.5C 202.549,206.326 201.549,206.492 200.5,206C 202.376,204.983 204.376,204.149 206.5,203.5C 202.857,201.767 200.19,202.767 198.5,206.5C 195.832,207.738 193.166,207.738 190.5,206.5C 189.702,206.957 189.369,207.624 189.5,208.5C 185.5,208.5 181.5,208.5 177.5,208.5C 177.196,207.85 176.863,207.183 176.5,206.5C 178.045,205.548 179.712,205.215 181.5,205.5C 183.092,202.521 185.092,199.688 187.5,197C 186.692,196.692 186.025,196.192 185.5,195.5C 185.846,194.304 186.346,194.304 187,195.5C 187.667,194.5 187.667,193.5 187,192.5C 183.345,195.349 179.845,195.016 176.5,191.5C 173.814,190.62 171.314,190.62 169,191.5C 168.228,192.849 167.061,193.682 165.5,194C 165.833,194.333 166.167,194.667 166.5,195C 164.741,195.798 163.074,195.631 161.5,194.5C 162.981,193.52 164.315,192.353 165.5,191C 163.68,191.476 162.013,191.309 160.5,190.5C 162.5,190.5 163.5,189.5 163.5,187.5 Z"/></g>
<g><path style="opacity:1" fill="#63675e" d="M 160.5,190.5 C 162.013,191.309 163.68,191.476 165.5,191C 164.315,192.353 162.981,193.52 161.5,194.5C 163.074,195.631 164.741,195.798 166.5,195C 166.167,194.667 165.833,194.333 165.5,194C 167.061,193.682 168.228,192.849 169,191.5C 171.314,190.62 173.814,190.62 176.5,191.5C 175.069,192.082 173.736,192.915 172.5,194C 175.101,194.92 177.768,195.587 180.5,196C 180.957,196.414 181.291,196.914 181.5,197.5C 178.979,198.966 176.312,199.466 173.5,199C 175.271,198.465 175.604,197.631 174.5,196.5C 172.783,197.668 172.116,199.335 172.5,201.5C 174.527,201.338 176.527,201.505 178.5,202C 177.953,202.925 177.287,203.758 176.5,204.5C 174.748,202.123 172.748,201.956 170.5,204C 171.167,204.333 171.833,204.667 172.5,205C 171.635,206.359 170.635,207.526 169.5,208.5C 169.167,208.5 168.833,208.5 168.5,208.5C 169.052,206.669 169.052,205.003 168.5,203.5C 169.376,202.749 170.376,202.249 171.5,202C 170.264,200.915 168.931,200.082 167.5,199.5C 160.468,199.83 153.468,199.497 146.5,198.5C 149.131,196.995 148.797,196.329 145.5,196.5C 145.719,197.675 145.386,198.675 144.5,199.5C 142.899,198.835 141.399,198.501 140,198.5C 138.601,199.227 137.101,199.727 135.5,200C 137.436,200.813 139.436,201.313 141.5,201.5C 139.97,203.346 137.97,204.346 135.5,204.5C 135.719,203.325 135.386,202.325 134.5,201.5C 133.109,202.645 131.776,202.645 130.5,201.5C 131.09,200.201 132.09,199.368 133.5,199C 130.823,198.751 128.49,197.751 126.5,196C 129.172,195.166 131.839,194.332 134.5,193.5C 135.696,193.846 135.696,194.346 134.5,195C 137.143,196.436 139.81,196.602 142.5,195.5C 141.674,194.549 141.508,193.549 142,192.5C 143.616,193.801 145.116,193.801 146.5,192.5C 147.859,193.007 148.859,194.007 149.5,195.5C 150.79,193.343 151.624,191.01 152,188.5C 154.361,191.442 157.194,192.109 160.5,190.5 Z"/></g>
<g><path style="opacity:1" fill="#323c30" d="M 167.5,199.5 C 166.855,200.812 165.855,201.812 164.5,202.5C 161.287,199.811 158.954,199.811 157.5,202.5C 156.833,202.5 156.167,202.5 155.5,202.5C 150.942,201.968 146.275,201.635 141.5,201.5C 139.436,201.313 137.436,200.813 135.5,200C 137.101,199.727 138.601,199.227 140,198.5C 141.399,198.501 142.899,198.835 144.5,199.5C 145.386,198.675 145.719,197.675 145.5,196.5C 148.797,196.329 149.131,196.995 146.5,198.5C 153.468,199.497 160.468,199.83 167.5,199.5 Z"/></g>
<g><path style="opacity:1" fill="#2a4528" d="M 254.5,204.5 C 253.828,205.267 252.995,205.934 252,206.5C 251,205.167 250,205.167 249,206.5C 248.667,205.833 248.333,205.167 248,204.5C 245.258,208.357 243.924,208.357 244,204.5C 243.329,205.252 242.496,205.586 241.5,205.5C 239.982,203.228 237.815,201.895 235,201.5C 232.81,204.249 231.143,203.915 230,200.5C 229.014,201.171 227.847,201.171 226.5,200.5C 224.636,198.986 222.636,197.653 220.5,196.5C 224.522,196.65 228.522,196.15 232.5,195C 233.328,194.085 234.328,193.419 235.5,193C 229.335,193.548 229.335,192.381 235.5,189.5C 235.47,188.503 235.97,187.836 237,187.5C 238.811,188.424 238.645,189.257 236.5,190C 238.789,191.248 241.123,192.415 243.5,193.5C 244.086,193.291 244.586,192.957 245,192.5C 246.973,193.64 248.807,194.973 250.5,196.5C 247.869,198.005 248.203,198.671 251.5,198.5C 251.643,200.262 251.309,201.929 250.5,203.5C 251.689,204.429 253.022,204.762 254.5,204.5 Z"/></g>
<g><path style="opacity:1" fill="#2b3832" d="M 226.5,200.5 C 227.847,201.171 229.014,201.171 230,200.5C 231.143,203.915 232.81,204.249 235,201.5C 237.815,201.895 239.982,203.228 241.5,205.5C 239.757,207.436 237.757,207.77 235.5,206.5C 235.709,205.914 236.043,205.414 236.5,205C 234.405,205.319 232.405,205.152 230.5,204.5C 227.972,205.169 227.972,206.002 230.5,207C 228.866,207.494 227.199,207.66 225.5,207.5C 225.649,206.448 225.483,205.448 225,204.5C 223.984,205.634 223.317,205.301 223,203.5C 222,204.833 221,204.833 220,203.5C 218.64,205.504 216.807,206.337 214.5,206C 215.5,205 216.5,204 217.5,203C 215.005,203.412 212.671,203.245 210.5,202.5C 212.918,201.793 215.252,200.793 217.5,199.5C 219.601,199.632 221.101,200.632 222,202.5C 223.458,201.253 224.958,201.253 226.5,202.5C 227.463,202.03 227.463,201.363 226.5,200.5 Z"/></g>
<g><path style="opacity:1" fill="#516143" d="M 210.5,202.5 C 212.671,203.245 215.005,203.412 217.5,203C 216.5,204 215.5,205 214.5,206C 216.807,206.337 218.64,205.504 220,203.5C 221,204.833 222,204.833 223,203.5C 223.317,205.301 223.984,205.634 225,204.5C 225.483,205.448 225.649,206.448 225.5,207.5C 227.199,207.66 228.866,207.494 230.5,207C 227.972,206.002 227.972,205.169 230.5,204.5C 232.405,205.152 234.405,205.319 236.5,205C 236.043,205.414 235.709,205.914 235.5,206.5C 237.757,207.77 239.757,207.436 241.5,205.5C 242.496,205.586 243.329,205.252 244,204.5C 243.924,208.357 245.258,208.357 248,204.5C 248.333,205.167 248.667,205.833 249,206.5C 250,205.167 251,205.167 252,206.5C 252.995,205.934 253.828,205.267 254.5,204.5C 255.239,204.369 255.906,204.536 256.5,205C 254.767,206.189 253.1,207.356 251.5,208.5C 230.833,208.5 210.167,208.5 189.5,208.5C 189.369,207.624 189.702,206.957 190.5,206.5C 193.166,207.738 195.832,207.738 198.5,206.5C 200.19,202.767 202.857,201.767 206.5,203.5C 204.376,204.149 202.376,204.983 200.5,206C 201.549,206.492 202.549,206.326 203.5,205.5C 204.833,206.167 206.167,206.833 207.5,207.5C 207.749,206.418 207.915,205.085 208,203.5C 208.671,202.748 209.504,202.414 210.5,202.5 Z"/></g>
<g><path style="opacity:1" fill="#536243" d="M 167.5,199.5 C 168.931,200.082 170.264,200.915 171.5,202C 170.376,202.249 169.376,202.749 168.5,203.5C 169.052,205.003 169.052,206.669 168.5,208.5C 166.5,208.5 164.5,208.5 162.5,208.5C 161.155,205.449 158.988,204.449 156,205.5C 155.761,204.212 156.261,203.212 157.5,202.5C 158.954,199.811 161.287,199.811 164.5,202.5C 165.855,201.812 166.855,200.812 167.5,199.5 Z"/></g>
<g><path style="opacity:1" fill="#395a35" d="M 259.5,198.5 C 261.095,200.829 262.095,203.495 262.5,206.5C 262.253,207.713 261.586,208.38 260.5,208.5C 259.949,205.193 259.616,201.86 259.5,198.5 Z"/></g>
<g><path style="opacity:1" fill="#696d65" d="M 155.5,202.5 C 156.167,202.5 156.833,202.5 157.5,202.5C 156.261,203.212 155.761,204.212 156,205.5C 158.988,204.449 161.155,205.449 162.5,208.5C 155.852,209.139 149.186,209.473 142.5,209.5C 141.697,208.577 141.53,207.577 142,206.5C 143.763,206.306 145.597,206.306 147.5,206.5C 148.386,205.675 148.719,204.675 148.5,203.5C 150.861,203.326 153.194,202.993 155.5,202.5 Z"/></g>
<g><path style="opacity:1" fill="#6a7452" d="M 61.5,206.5 C 64.878,205.138 68.2113,205.305 71.5,207C 70.8333,207.333 70.1667,207.667 69.5,208C 70.2524,208.671 70.5858,209.504 70.5,210.5C 63.3592,209.868 56.3592,209.868 49.5,210.5C 49.2053,208.265 49.5386,206.265 50.5,204.5C 50.5,205.5 50.5,206.5 50.5,207.5C 52.1992,207.66 53.8659,207.494 55.5,207C 55.6399,205.736 55.6399,204.569 55.5,203.5C 57.5336,204.559 59.5336,205.559 61.5,206.5 Z"/></g>
<g><path style="opacity:1" fill="#74825d" d="M 86.5,210.5 C 81.8333,210.5 77.1667,210.5 72.5,210.5C 72.5,209.5 72.5,208.5 72.5,207.5C 75.7456,207.865 78.4123,206.865 80.5,204.5C 83.4008,205.665 85.4008,207.665 86.5,210.5 Z"/></g>
</svg>
