<?xml version="1.0" encoding="UTF-8"?>
<!DOCTYPE svg PUBLIC "-//W3C//DTD SVG 1.1//EN" "http://www.w3.org/Graphics/SVG/1.1/DTD/svg11.dtd">
<svg xmlns="http://www.w3.org/2000/svg" version="1.1" width="500px" height="300px" style="shape-rendering:geometricPrecision; text-rendering:geometricPrecision; image-rendering:optimizeQuality; fill-rule:evenodd; clip-rule:evenodd" xmlns:xlink="http://www.w3.org/1999/xlink">
<g><path style="opacity:1" fill="#fefefe" d="M -0.5,-0.5 C 166.167,-0.5 332.833,-0.5 499.5,-0.5C 499.5,99.5 499.5,199.5 499.5,299.5C 332.833,299.5 166.167,299.5 -0.5,299.5C -0.5,199.5 -0.5,99.5 -0.5,-0.5 Z"/></g>
<g><path style="opacity:1" fill="#05beec" d="M 257.5,33.5 C 258.8,35.223 259.467,37.3897 259.5,40C 259.167,42.1667 258.833,44.3333 258.5,46.5C 257.508,42.2172 257.174,37.8839 257.5,33.5 Z"/></g>
<g><path style="opacity:1" fill="#4dcdf0" d="M 233.5,33.5 C 234.5,33.5 235.5,33.5 236.5,33.5C 236.5,37.8333 236.5,42.1667 236.5,46.5C 235.5,46.5 234.5,46.5 233.5,46.5C 233.5,42.1667 233.5,37.8333 233.5,33.5 Z"/></g>
<g><path style="opacity:1" fill="#fffdfb" d="M 313.5,47.5 C 311.251,48.0798 309.585,49.4131 308.5,51.5C 302.4,57.4462 299.4,64.7796 299.5,73.5C 293.639,73.4874 290.639,70.4874 290.5,64.5C 291.303,57.7592 293.303,51.4259 296.5,45.5C 298.262,44.7377 299.262,43.4044 299.5,41.5C 300.833,40.8333 301.833,39.8333 302.5,38.5C 308.552,35.7443 314.552,35.9109 320.5,39C 326.405,43.803 325.405,45.803 317.5,45C 315.934,45.6082 314.6,46.4415 313.5,47.5 Z"/></g>
<g><path style="opacity:1" fill="#45c8ef" d="M 239.5,37.5 C 240.5,37.5 241.5,37.5 242.5,37.5C 242.5,39.8333 242.5,42.1667 242.5,44.5C 241.5,44.5 240.5,44.5 239.5,44.5C 239.5,42.1667 239.5,39.8333 239.5,37.5 Z"/></g>
<g><path style="opacity:1" fill="#0dbfec" d="M 251.5,37.5 C 252.725,38.1522 253.392,39.3189 253.5,41C 253.167,42.1667 252.833,43.3333 252.5,44.5C 251.526,42.2573 251.192,39.924 251.5,37.5 Z"/></g>
<g><path style="opacity:1" fill="#0abfec" d="M 263.5,37.5 C 264.725,38.1522 265.392,39.3189 265.5,41C 265.167,42.1667 264.833,43.3333 264.5,44.5C 263.526,42.2573 263.192,39.924 263.5,37.5 Z"/></g>
<g><path style="opacity:1" fill="#50cdf0" d="M 227.5,37.5 C 228.5,37.5 229.5,37.5 230.5,37.5C 230.5,39.8333 230.5,42.1667 230.5,44.5C 229.5,44.5 228.5,44.5 227.5,44.5C 227.5,42.1667 227.5,39.8333 227.5,37.5 Z"/></g>
<g><path style="opacity:1" fill="#fdca6e" d="M 302.5,38.5 C 301.833,39.8333 300.833,40.8333 299.5,41.5C 299.5,39.5 300.5,38.5 302.5,38.5 Z"/></g>
<g><path style="opacity:1" fill="#2ac4ee" d="M 222.5,40.5 C 223.586,40.62 224.253,41.2867 224.5,42.5C 224.167,43.1667 223.833,43.8333 223.5,44.5C 222.571,43.3112 222.238,41.9778 222.5,40.5 Z"/></g>
<g><path style="opacity:1" fill="#4bc9ef" d="M 268.5,40.5 C 269.5,40.5 270.5,40.5 271.5,40.5C 271.5,41.8333 271.5,43.1667 271.5,44.5C 270.5,44.5 269.5,44.5 268.5,44.5C 268.5,43.1667 268.5,41.8333 268.5,40.5 Z"/></g>
<g><path style="opacity:1" fill="#1fc1ed" d="M 245.5,40.5 C 246.586,40.62 247.253,41.2867 247.5,42.5C 247.167,43.1667 246.833,43.8333 246.5,44.5C 245.571,43.3112 245.238,41.9778 245.5,40.5 Z"/></g>
<g><path style="opacity:1" fill="#fdce7a" d="M 299.5,41.5 C 299.262,43.4044 298.262,44.7377 296.5,45.5C 296.738,43.5956 297.738,42.2623 299.5,41.5 Z"/></g>
<g><path style="opacity:1" fill="#fdd07f" d="M 329.5,46.5 C 328.5,46.5 327.5,46.5 326.5,46.5C 326.152,50.7408 324.985,54.7408 323,58.5C 323.639,54.2441 324.139,49.9107 324.5,45.5C 320.767,45.87 317.101,46.5367 313.5,47.5C 314.6,46.4415 315.934,45.6082 317.5,45C 325.405,45.803 326.405,43.803 320.5,39C 314.552,35.9109 308.552,35.7443 302.5,38.5C 303.058,37.2101 304.058,36.3768 305.5,36C 311.097,34.9091 316.43,35.5758 321.5,38C 323.625,41.48 326.292,44.3134 329.5,46.5 Z"/></g>
<g><path style="opacity:1" fill="#fffdfb" d="M 329.5,46.5 C 334.522,54.9544 332.855,62.1211 324.5,68C 322.273,68.941 320.273,70.1077 318.5,71.5C 316.774,71.8146 315.107,71.9813 313.5,72C 315.464,70.549 316.797,68.7157 317.5,66.5C 314.757,68.2393 312.757,70.5726 311.5,73.5C 308.167,73.5 304.833,73.5 301.5,73.5C 301.335,70.4816 301.502,67.4816 302,64.5C 303.666,59.8345 305.833,55.5011 308.5,51.5C 310.749,50.9202 312.415,49.5869 313.5,47.5C 317.101,46.5367 320.767,45.87 324.5,45.5C 324.139,49.9107 323.639,54.2441 323,58.5C 324.985,54.7408 326.152,50.7408 326.5,46.5C 327.5,46.5 328.5,46.5 329.5,46.5 Z"/></g>
<g><path style="opacity:1" fill="#ffd690" d="M 313.5,47.5 C 312.415,49.5869 310.749,50.9202 308.5,51.5C 309.585,49.4131 311.251,48.0798 313.5,47.5 Z"/></g>
<g><path style="opacity:1" fill="#3bc5ee" d="M 259.5,50.5 C 263.756,49.4545 266.422,50.9545 267.5,55C 265.901,59.2492 263.068,60.4158 259,58.5C 256.893,55.6293 257.059,52.9627 259.5,50.5 Z"/></g>
<g><path style="opacity:1" fill="#3cc6ee" d="M 228.5,50.5 C 233.947,50.4555 234.447,51.4555 230,53.5C 229.517,54.448 229.351,55.448 229.5,56.5C 230.833,56.5 232.167,56.5 233.5,56.5C 233.5,57.5 233.5,58.5 233.5,59.5C 226.432,59.4802 224.765,56.4802 228.5,50.5 Z"/></g>
<g><path style="opacity:1" fill="#51cdf0" d="M 235.5,50.5 C 236.5,50.5 237.5,50.5 238.5,50.5C 238.5,53.5 238.5,56.5 238.5,59.5C 237.5,59.5 236.5,59.5 235.5,59.5C 235.5,56.5 235.5,53.5 235.5,50.5 Z"/></g>
<g><path style="opacity:1" fill="#e5f8fd" d="M 261.5,52.5 C 263.912,52.6941 264.912,54.0274 264.5,56.5C 263.167,56.5 261.833,56.5 260.5,56.5C 260.433,55.0413 260.766,53.7079 261.5,52.5 Z"/></g>
<g><path style="opacity:1" fill="#fcfdfb" d="M 139.5,67.5 C 139.611,66.8826 139.944,66.3826 140.5,66C 143.5,65.6667 146.5,65.3333 149.5,65C 145.789,64.8253 142.122,64.3253 138.5,63.5C 139.246,62.2638 139.579,60.9305 139.5,59.5C 148.468,52.4444 156.968,53.1111 165,61.5C 166.559,63.2166 167.392,65.2166 167.5,67.5C 165.94,67.5191 164.44,67.8524 163,68.5C 159.096,66.1948 154.929,65.3615 150.5,66C 153.883,66.8755 157.216,67.8755 160.5,69C 153.297,70.0458 146.297,69.5458 139.5,67.5 Z"/></g>
<g><path style="opacity:1" fill="#4dc9ef" d="M 241.5,50.5 C 243.288,50.2148 244.955,50.5481 246.5,51.5C 245.624,52.2508 244.624,52.7508 243.5,53C 247.462,54.2108 248.129,56.2108 245.5,59C 243.866,59.4935 242.199,59.6602 240.5,59.5C 240.281,58.325 240.614,57.325 241.5,56.5C 242.396,57.5063 243.062,57.5063 243.5,56.5C 240.61,55.1627 239.943,53.1627 241.5,50.5 Z"/></g>
<g><path style="opacity:1" fill="#36c4ee" d="M 250.5,50.5 C 255.947,50.4555 256.447,51.4555 252,53.5C 251.517,54.448 251.351,55.448 251.5,56.5C 252.833,56.5 254.167,56.5 255.5,56.5C 255.5,57.5 255.5,58.5 255.5,59.5C 248.998,59.0229 247.331,56.0229 250.5,50.5 Z"/></g>
<g><path style="opacity:1" fill="#9fd488" d="M 139.5,59.5 C 139.579,60.9305 139.246,62.2638 138.5,63.5C 142.122,64.3253 145.789,64.8253 149.5,65C 146.5,65.3333 143.5,65.6667 140.5,66C 139.944,66.3826 139.611,66.8826 139.5,67.5C 138.075,65.9689 137.409,66.3023 137.5,68.5C 136.609,67.8902 135.609,67.5569 134.5,67.5C 134.5,66.5 134.5,65.5 134.5,64.5C 135.496,64.4142 136.329,64.7476 137,65.5C 137.037,63.0261 137.87,61.0261 139.5,59.5 Z"/></g>
<g><path style="opacity:1" fill="#fdcd76" d="M 317.5,66.5 C 318.391,64.3911 319.558,62.3911 321,60.5C 321.149,63.1957 319.982,65.1957 317.5,66.5 Z"/></g>
<g><path style="opacity:1" fill="#fdcf7c" d="M 329.5,46.5 C 332.188,47.0241 333.688,48.6908 334,51.5C 333.923,62.0802 328.757,68.7469 318.5,71.5C 320.273,70.1077 322.273,68.941 324.5,68C 332.855,62.1211 334.522,54.9544 329.5,46.5 Z"/></g>
<g><path style="opacity:1" fill="#fbfdfa" d="M 134.5,67.5 C 135.609,67.5569 136.609,67.8902 137.5,68.5C 137.664,71.1873 137.497,73.854 137,76.5C 135.102,78.6838 132.936,79.0171 130.5,77.5C 130.186,73.4682 131.519,70.1348 134.5,67.5 Z"/></g>
<g><path style="opacity:1" fill="#a4d68f" d="M 134.5,67.5 C 131.519,70.1348 130.186,73.4682 130.5,77.5C 128.499,72.8779 129.832,69.5446 134.5,67.5 Z"/></g>
<g><path style="opacity:1" fill="#fed07f" d="M 317.5,66.5 C 316.797,68.7157 315.464,70.549 313.5,72C 315.107,71.9813 316.774,71.8146 318.5,71.5C 318.389,72.1174 318.056,72.6174 317.5,73C 315.527,73.4955 313.527,73.6621 311.5,73.5C 312.757,70.5726 314.757,68.2393 317.5,66.5 Z"/></g>
<g><path style="opacity:1" fill="#fdd182" d="M 296.5,45.5 C 293.303,51.4259 291.303,57.7592 290.5,64.5C 290.639,70.4874 293.639,73.4874 299.5,73.5C 299.4,64.7796 302.4,57.4462 308.5,51.5C 305.833,55.5011 303.666,59.8345 302,64.5C 301.502,67.4816 301.335,70.4816 301.5,73.5C 304.833,73.5 308.167,73.5 311.5,73.5C 310.587,75.5617 309.087,75.895 307,74.5C 305.596,74.5093 304.43,75.0093 303.5,76C 306.288,78.9827 309.621,80.816 313.5,81.5C 312.833,81.5 312.5,81.8333 312.5,82.5C 310.321,81.9408 308.154,81.2741 306,80.5C 294.425,89.964 293.925,89.464 304.5,79C 303.5,78 302.5,77 301.5,76C 291.339,74.5421 287.506,68.7087 290,58.5C 291.143,53.5469 293.31,49.2136 296.5,45.5 Z"/></g>
<g><path style="opacity:1" fill="#acda99" d="M 198.5,65.5 C 188.362,59.4784 179.029,60.4784 170.5,68.5C 172.148,73.7586 173.481,79.0919 174.5,84.5C 177.326,85.4823 178.66,87.4823 178.5,90.5C 178.213,93.8655 177.046,96.8655 175,99.5C 175.261,107.643 172.261,114.31 166,119.5C 165.333,118.833 165.333,118.167 166,117.5C 173.856,111.216 175.356,103.883 170.5,95.5C 172.451,95.2267 173.951,95.8934 175,97.5C 176.337,93.9743 176.837,90.3076 176.5,86.5C 175.448,86.3505 174.448,86.5172 173.5,87C 171.917,88.7583 170.25,90.2583 168.5,91.5C 170.301,89.0423 171.634,86.3756 172.5,83.5C 171.624,78.4534 170.624,73.4534 169.5,68.5C 167.897,68.3118 166.563,68.8118 165.5,70C 169.78,73.8021 170.447,77.9687 167.5,82.5C 169.353,77.9354 168.353,74.102 164.5,71C 157.508,71.1653 150.508,71.1653 143.5,71C 141.456,70.5017 140.122,69.335 139.5,67.5C 146.297,69.5458 153.297,70.0458 160.5,69C 157.216,67.8755 153.883,66.8755 150.5,66C 154.929,65.3615 159.096,66.1948 163,68.5C 164.44,67.8524 165.94,67.5191 167.5,67.5C 167.392,65.2166 166.559,63.2166 165,61.5C 156.968,53.1111 148.468,52.4444 139.5,59.5C 141.59,54.9415 145.257,52.6081 150.5,52.5C 159.086,53.7092 165.586,58.0426 170,65.5C 176.893,60.9672 184.393,59.4672 192.5,61C 195.106,61.7918 197.106,63.2918 198.5,65.5 Z"/></g>
<g><path style="opacity:1" fill="#acda99" d="M 137.5,68.5 C 139.938,71.2244 140.105,74.2244 138,77.5C 135.27,81.5009 132.77,81.5009 130.5,77.5C 132.936,79.0171 135.102,78.6838 137,76.5C 137.497,73.854 137.664,71.1873 137.5,68.5 Z"/></g>
<g><path style="opacity:1" fill="#aeda9a" d="M 198.5,65.5 C 200.193,66.4749 201.693,67.8082 203,69.5C 204.016,72.5678 205.183,75.5678 206.5,78.5C 208.419,79.6125 210.086,80.9458 211.5,82.5C 211.5,83.1667 211.167,83.5 210.5,83.5C 209.086,81.9458 207.419,80.6125 205.5,79.5C 202.984,86.3471 198.484,88.3471 192,85.5C 189.687,79.4886 191.854,76.4886 198.5,76.5C 200.1,76.5507 201.6,76.8841 203,77.5C 203.484,75.0871 203.15,72.7538 202,70.5C 200.331,69.1537 199.164,67.487 198.5,65.5 Z"/></g>
<g><path style="opacity:1" fill="#fcfdfb" d="M 193.5,78.5 C 196.833,78.5 200.167,78.5 203.5,78.5C 202.509,84.7483 199.009,86.7483 193,84.5C 192.322,82.4024 192.489,80.4024 193.5,78.5 Z"/></g>
<g><path style="opacity:1" fill="#2359a8" d="M 108.5,81.5 C 112.027,82.2603 115.36,83.5936 118.5,85.5C 119.429,86.6888 119.762,88.0222 119.5,89.5C 116.01,89.1506 113.677,90.6506 112.5,94C 111.833,94.6667 111.167,94.6667 110.5,94C 108.592,89.911 107.926,85.7444 108.5,81.5 Z"/></g>
<g><path style="opacity:1" fill="#afdb9b" d="M 167.5,82.5 C 166.942,83.7899 165.942,84.6232 164.5,85C 157.699,86.1566 151.032,87.4899 144.5,89C 146.377,87.8147 148.377,86.8147 150.5,86C 156.296,85.2374 161.963,84.0707 167.5,82.5 Z"/></g>
<g><path style="opacity:1" fill="#24cfdb" d="M 226.5,78.5 C 227.873,78.3433 229.207,78.51 230.5,79C 226.332,82.3362 222.332,85.8362 218.5,89.5C 214.524,90.2952 210.524,90.9619 206.5,91.5C 207.5,90.1667 208.5,88.8333 209.5,87.5C 215.048,84.2268 220.714,81.2268 226.5,78.5 Z"/></g>
<g><path style="opacity:1" fill="#fffbf4" d="M 319.5,85.5 C 320.833,85.5 322.167,85.5 323.5,85.5C 317.516,88.9115 316.849,93.4115 321.5,99C 323.167,99.6667 324.833,99.6667 326.5,99C 328.409,97.6443 330.076,96.1443 331.5,94.5C 332.666,96.166 332.666,97.8327 331.5,99.5C 329.396,100.519 327.396,101.519 325.5,102.5C 323.097,102.552 320.764,102.219 318.5,101.5C 316.769,97.3178 316.269,92.9844 317,88.5C 318.045,87.6266 318.878,86.6266 319.5,85.5 Z"/></g>
<g><path style="opacity:1" fill="#fdcb72" d="M 325.5,102.5 C 327.396,101.519 329.396,100.519 331.5,99.5C 332.666,97.8327 332.666,96.166 331.5,94.5C 330.076,96.1443 328.409,97.6443 326.5,99C 324.833,99.6667 323.167,99.6667 321.5,99C 316.849,93.4115 317.516,88.9115 323.5,85.5C 322.167,85.5 320.833,85.5 319.5,85.5C 321.932,84.0418 324.599,82.8751 327.5,82C 322.544,82.2512 317.544,82.4178 312.5,82.5C 312.5,81.8333 312.833,81.5 313.5,81.5C 319.008,81.3601 324.341,80.3601 329.5,78.5C 330.074,76.9411 330.74,75.4411 331.5,74C 330.446,72.6124 330.28,71.1124 331,69.5C 333.391,65.3871 335.224,61.0538 336.5,56.5C 340.297,60.4251 342.797,65.0918 344,70.5C 345.815,72.4049 347.815,74.0716 350,75.5C 350.496,77.0349 350.33,78.5349 349.5,80C 351.328,81.5064 351.662,83.1731 350.5,85C 351.357,85.6891 352.023,86.5224 352.5,87.5C 350.933,89.8961 350.1,92.5628 350,95.5C 345.205,99.0427 340.205,99.376 335,96.5C 333.305,100.609 330.138,102.609 325.5,102.5 Z"/></g>
<g><path style="opacity:1" fill="#fffaf1" d="M 331.5,94.5 C 331.027,93.0937 330.027,92.427 328.5,92.5C 328.532,97.2129 326.199,98.7129 321.5,97C 318.028,92.2086 319.028,88.8753 324.5,87C 326.441,86.2571 328.274,86.4238 330,87.5C 330.97,89.2738 331.804,91.1072 332.5,93C 332.43,93.7648 332.097,94.2648 331.5,94.5 Z"/></g>
<g><path style="opacity:1" fill="#fff8ed" d="M 333.5,73.5 C 335.885,74.8673 335.552,76.2007 332.5,77.5C 332.167,77.3333 331.833,77.1667 331.5,77C 332.305,75.8873 332.972,74.7206 333.5,73.5 Z"/></g>
<g><path style="opacity:1" fill="#fffcf9" d="M 323.5,85.5 C 325.019,84.5902 326.685,83.7568 328.5,83C 331.43,80.2806 334.264,77.4473 337,74.5C 338.133,76.2112 339.633,76.7112 341.5,76C 341.962,74.2784 342.128,72.445 342,70.5C 344.22,73.021 346.72,75.1877 349.5,77C 347.968,79.33 348.302,81.33 350.5,83C 349.124,85.5425 347.957,85.7092 347,83.5C 342.732,85.8982 343.232,87.8982 348.5,89.5C 350.147,92.4538 349.481,94.6205 346.5,96C 342.406,96.7673 338.406,96.434 334.5,95C 333.722,91.7745 332.388,88.7745 330.5,86C 328.19,85.5034 325.857,85.3367 323.5,85.5 Z"/></g>
<g><path style="opacity:1" fill="#fffaf2" d="M 336.5,60.5 C 339.682,62.1927 341.348,64.8593 341.5,68.5C 337.406,67.7046 334.239,69.038 332,72.5C 333.166,68.4791 334.666,64.4791 336.5,60.5 Z"/></g>
<g><path style="opacity:1" fill="#fbb231" d="M 328.5,92.5 C 326.272,91.6782 325.605,90.3448 326.5,88.5C 327.705,89.5769 328.372,90.9102 328.5,92.5 Z"/></g>
<g><path style="opacity:1" fill="#abd997" d="M 168.5,91.5 C 167.251,93.1361 165.584,94.3028 163.5,95C 160.167,95.3333 156.833,95.6667 153.5,96C 154.694,98.6578 153.694,99.8244 150.5,99.5C 150.5,98.5 150.5,97.5 150.5,96.5C 147.525,96.6931 145.025,95.6931 143,93.5C 142.329,90.2523 142.829,89.9189 144.5,92.5C 145.265,91.3881 146.265,90.7214 147.5,90.5C 151.203,88.5922 155.203,87.7588 159.5,88C 160.833,89 160.833,90 159.5,91C 156.911,92.1965 154.244,93.1965 151.5,94C 157.499,95.1086 163.166,94.2753 168.5,91.5 Z"/></g>
<g><path style="opacity:1" fill="#f8fcf7" d="M 147.5,90.5 C 161.881,89.0002 161.881,90.0002 147.5,93.5C 146.438,92.5754 146.438,91.5754 147.5,90.5 Z"/></g>
<g><path style="opacity:1" fill="#18b6e8" d="M 279.5,84.5 C 281.55,86.5475 283.883,88.2141 286.5,89.5C 290.608,93.27 293.941,97.6034 296.5,102.5C 296.392,103.442 296.059,104.275 295.5,105C 291.459,105.827 287.459,105.66 283.5,104.5C 278.96,92.9001 271.294,84.0668 260.5,78C 267.07,79.2462 273.404,81.4129 279.5,84.5 Z"/></g>
<g><path style="opacity:1" fill="#fdd080" d="M 319.5,85.5 C 318.878,86.6266 318.045,87.6266 317,88.5C 316.269,92.9844 316.769,97.3178 318.5,101.5C 315.027,97.8971 313.86,93.5637 315,88.5C 316.129,86.8588 317.629,85.8588 319.5,85.5 Z"/></g>
<g><path style="opacity:1" fill="#a7d893" d="M 134.5,64.5 C 123.372,62.1305 120.206,66.1305 125,76.5C 127.667,79.1667 130.333,81.8333 133,84.5C 133.687,86.5675 133.52,88.5675 132.5,90.5C 134.423,91.3078 136.423,91.8078 138.5,92C 139.337,93.0113 139.67,94.1779 139.5,95.5C 136.881,95.7683 134.381,95.435 132,94.5C 131.517,95.448 131.351,96.448 131.5,97.5C 141.028,95.8603 145.194,99.8603 144,109.5C 144.903,110.701 146.069,111.535 147.5,112C 146.672,112.915 145.672,113.581 144.5,114C 149.03,115.227 153.03,114.394 156.5,111.5C 156.833,111.833 157.167,112.167 157.5,112.5C 155.83,115.035 153.83,117.201 151.5,119C 148.947,119.851 146.614,119.518 144.5,118C 147.812,119.091 150.812,118.424 153.5,116C 150.183,115.502 146.85,115.335 143.5,115.5C 143.33,114.178 143.663,113.011 144.5,112C 143.667,111.167 142.833,110.333 142,109.5C 141.667,106.5 141.333,103.5 141,100.5C 140.311,99.6433 139.478,98.9767 138.5,98.5C 138.678,99.956 137.844,101.289 136,102.5C 134.018,99.8403 133.185,100.34 133.5,104C 133.542,105.967 134.042,107.801 135,109.5C 137.127,111.114 138.627,113.114 139.5,115.5C 136.832,113.664 134.666,111.331 133,108.5C 132.618,103.755 131.784,99.0879 130.5,94.5C 131.061,91.4297 131.561,88.4297 132,85.5C 129.333,82.8333 126.667,80.1667 124,77.5C 121.702,73.7824 121.035,69.7824 122,65.5C 125.992,60.7203 130.159,60.387 134.5,64.5 Z"/></g>
<g><path style="opacity:1" fill="#f2f9ef" d="M 133.5,92.5 C 135.429,92.2308 137.095,92.7308 138.5,94C 137.667,94.1667 136.833,94.3333 136,94.5C 134.624,94.3158 133.791,93.6491 133.5,92.5 Z"/></g>
<g><path style="opacity:1" fill="#fcc561" d="M 318.5,101.5 C 320.764,102.219 323.097,102.552 325.5,102.5C 324.726,103.147 323.726,103.48 322.5,103.5C 320.645,103.66 319.312,102.993 318.5,101.5 Z"/></g>
<g><path style="opacity:1" fill="#e3f7fb" d="M 279.5,84.5 C 273.404,81.4129 267.07,79.2462 260.5,78C 271.294,84.0668 278.96,92.9001 283.5,104.5C 287.459,105.66 291.459,105.827 295.5,105C 296.059,104.275 296.392,103.442 296.5,102.5C 293.941,97.6034 290.608,93.27 286.5,89.5C 289.731,91.2199 292.564,93.5532 295,96.5C 298.155,100.48 300.655,104.814 302.5,109.5C 300.096,107.028 297.096,106.028 293.5,106.5C 291.5,106.667 289.5,106.833 287.5,107C 287,107.5 286.5,108 286,108.5C 286.55,114.685 287.716,120.685 289.5,126.5C 289.5,132.5 289.5,138.5 289.5,144.5C 288.833,140.167 288.167,135.833 287.5,131.5C 287.747,128.061 287.414,124.728 286.5,121.5C 286.074,117.573 285.074,113.907 283.5,110.5C 283.573,108.973 282.906,107.973 281.5,107.5C 258.167,106.167 234.833,106.167 211.5,107.5C 210.143,108.59 209.143,109.924 208.5,111.5C 208.771,109.62 208.104,108.287 206.5,107.5C 202.354,106.353 198.02,106.186 193.5,107C 192.956,107.717 192.289,108.217 191.5,108.5C 195.342,99.6579 201.342,92.6579 209.5,87.5C 208.5,88.8333 207.5,90.1667 206.5,91.5C 202.272,94.5608 198.939,98.3941 196.5,103C 196.57,103.765 196.903,104.265 197.5,104.5C 201.311,105.645 205.311,105.812 209.5,105C 210.973,102.552 212.307,100.052 213.5,97.5C 213.833,97.5 214.167,97.5 214.5,97.5C 215.399,94.605 216.733,91.9384 218.5,89.5C 222.332,85.8362 226.332,82.3362 230.5,79C 229.207,78.51 227.873,78.3433 226.5,78.5C 229.503,76.7383 232.837,75.5717 236.5,75C 248.159,73.6104 259.493,74.9437 270.5,79C 273.898,80.3571 276.898,82.1904 279.5,84.5 Z"/></g>
<g><path style="opacity:1" fill="#0adfc7" d="M 213.5,97.5 C 212.307,100.052 210.973,102.552 209.5,105C 205.311,105.812 201.311,105.645 197.5,104.5C 200.99,97.9989 206.323,95.6656 213.5,97.5 Z"/></g>
<g><path style="opacity:1" fill="#13dbc9" d="M 218.5,92.5 C 221.199,92.0464 223.865,92.713 226.5,94.5C 229.205,98.5258 232.205,102.192 235.5,105.5C 228.137,105.831 220.803,105.497 213.5,104.5C 213.167,103.833 212.833,103.167 212.5,102.5C 213.456,100.925 214.123,99.258 214.5,97.5C 216.063,96.0552 217.396,94.3885 218.5,92.5 Z"/></g>
<g><path style="opacity:1" fill="#18d7d1" d="M 218.5,89.5 C 216.733,91.9384 215.399,94.605 214.5,97.5C 214.167,97.5 213.833,97.5 213.5,97.5C 206.323,95.6656 200.99,97.9989 197.5,104.5C 196.903,104.265 196.57,103.765 196.5,103C 198.939,98.3941 202.272,94.5608 206.5,91.5C 210.524,90.9619 214.524,90.2952 218.5,89.5 Z"/></g>
<g><path style="opacity:1" fill="#03d0d1" d="M 223.5,87.5 C 228.584,89.7194 234.251,91.7194 240.5,93.5C 245.392,96.0484 247.726,100.048 247.5,105.5C 243.5,105.5 239.5,105.5 235.5,105.5C 232.205,102.192 229.205,98.5258 226.5,94.5C 223.865,92.713 221.199,92.0464 218.5,92.5C 219.833,90.5 221.5,88.8333 223.5,87.5 Z"/></g>
<g><path style="opacity:1" fill="#00c6d7" d="M 228.5,82.5 C 236.931,86.0568 245.598,89.5568 254.5,93C 255.811,96.3539 256.644,99.8539 257,103.5C 257.995,104.066 258.828,104.733 259.5,105.5C 255.5,105.5 251.5,105.5 247.5,105.5C 247.726,100.048 245.392,96.0484 240.5,93.5C 234.251,91.7194 228.584,89.7194 223.5,87.5C 224.833,85.5 226.5,83.8333 228.5,82.5 Z"/></g>
<g><path style="opacity:1" fill="#10bbe3" d="M 269.5,105.5 C 268.391,104.71 267.058,104.21 265.5,104C 265.91,99.9241 265.91,95.7574 265.5,91.5C 258.025,87.0957 250.358,83.2623 242.5,80C 239.964,79.8138 237.631,79.3138 235.5,78.5C 252.527,73.4112 266.027,78.4112 276,93.5C 277.742,96.4005 279.242,99.4005 280.5,102.5C 280.392,103.442 280.059,104.275 279.5,105C 276.183,105.498 272.85,105.665 269.5,105.5 Z"/></g>
<g><path style="opacity:1" fill="#02c0dd" d="M 235.5,78.5 C 237.631,79.3138 239.964,79.8138 242.5,80C 250.358,83.2623 258.025,87.0957 265.5,91.5C 265.91,95.7574 265.91,99.9241 265.5,104C 267.058,104.21 268.391,104.71 269.5,105.5C 266.167,105.5 262.833,105.5 259.5,105.5C 258.828,104.733 257.995,104.066 257,103.5C 256.644,99.8539 255.811,96.3539 254.5,93C 245.598,89.5568 236.931,86.0568 228.5,82.5C 230.336,80.412 232.669,79.0787 235.5,78.5 Z"/></g>
<g><path style="opacity:1" fill="#72748d" d="M 356.5,108.5 C 353.423,106.632 350.09,105.299 346.5,104.5C 344.307,104.719 342.307,105.385 340.5,106.5C 341.692,104.078 343.692,103.078 346.5,103.5C 350.694,103.597 354.027,105.263 356.5,108.5 Z"/></g>
<g><path style="opacity:1" fill="#10e4c2" d="M 206.5,107.5 C 208.104,108.287 208.771,109.62 208.5,111.5C 205.571,118.057 204.237,125.057 204.5,132.5C 199.482,134.122 194.982,133.122 191,129.5C 189.86,122.167 190.86,115.167 194,108.5C 198.066,107.536 202.233,107.203 206.5,107.5 Z"/></g>
<g><path style="opacity:1" fill="#03dfc4" d="M 211.5,107.5 C 216.5,107.5 221.5,107.5 226.5,107.5C 228.347,110.594 228.847,113.928 228,117.5C 224.796,120.369 221.963,123.535 219.5,127C 215.805,129.349 211.805,130.849 207.5,131.5C 206.534,129.604 206.201,127.604 206.5,125.5C 207.037,120.814 207.704,116.147 208.5,111.5C 209.143,109.924 210.143,108.59 211.5,107.5 Z"/></g>
<g><path style="opacity:1" fill="#33c8d9" d="M 211.5,107.5 C 234.833,106.167 258.167,106.167 281.5,107.5C 276.156,107.334 270.823,107.501 265.5,108C 266.61,110.737 266.777,113.571 266,116.5C 264.539,120.107 263.372,123.773 262.5,127.5C 258.604,125.868 254.937,126.202 251.5,128.5C 250.513,125.232 250.18,121.898 250.5,118.5C 255.179,118.666 259.845,118.499 264.5,118C 259.511,117.501 254.511,117.334 249.5,117.5C 249.334,122.179 249.501,126.845 250,131.5C 253.189,128.549 256.689,127.882 260.5,129.5C 258.404,131.901 255.737,133.568 252.5,134.5C 251.575,135.357 250.908,136.357 250.5,137.5C 249.167,137.5 248.5,138.167 248.5,139.5C 247.732,138.737 247.232,137.737 247,136.5C 243.573,138.129 240.073,139.629 236.5,141C 239.365,141.183 242.031,141.683 244.5,142.5C 240.116,142.826 235.783,142.492 231.5,141.5C 234.818,137.682 238.318,134.015 242,130.5C 244.468,127.036 244.968,123.37 243.5,119.5C 244.703,115.248 243.703,111.415 240.5,108C 235.845,107.501 231.179,107.334 226.5,107.5C 221.5,107.5 216.5,107.5 211.5,107.5 Z"/></g>
<g><path style="opacity:1" fill="#0ab4de" d="M 281.5,107.5 C 282.906,107.973 283.573,108.973 283.5,110.5C 280.45,121.965 274.45,131.631 265.5,139.5C 266.231,134.927 265.231,130.927 262.5,127.5C 263.372,123.773 264.539,120.107 266,116.5C 266.777,113.571 266.61,110.737 265.5,108C 270.823,107.501 276.156,107.334 281.5,107.5 Z"/></g>
<g><path style="opacity:1" fill="#6e7089" d="M 340.5,106.5 C 340.539,107.756 340.039,108.756 339,109.5C 338.415,108.002 338.915,107.002 340.5,106.5 Z"/></g>
<g><path style="opacity:1" fill="#1aaae8" d="M 302.5,109.5 C 303.492,112.823 304.492,116.156 305.5,119.5C 299.668,119.224 294.835,121.224 291,125.5C 289.913,123.068 289.413,123.402 289.5,126.5C 287.716,120.685 286.55,114.685 286,108.5C 286.5,108 287,107.5 287.5,107C 289.5,106.833 291.5,106.667 293.5,106.5C 297.096,106.028 300.096,107.028 302.5,109.5 Z"/></g>
<g><path style="opacity:1" fill="#d7eff9" d="M 302.5,109.5 C 306.125,114.866 308.291,120.866 309,127.5C 311.844,159.325 299.011,182.158 270.5,196C 258.453,200.274 246.12,201.44 233.5,199.5C 224.111,196.974 215.445,192.807 207.5,187C 203.561,183.571 200.228,179.737 197.5,175.5C 192.965,171.104 189.965,165.77 188.5,159.5C 190.059,161.608 191.392,163.941 192.5,166.5C 197.456,167.494 202.456,167.827 207.5,167.5C 207.014,161.406 206.014,155.406 204.5,149.5C 204.5,147.167 204.5,144.833 204.5,142.5C 204.5,139.167 204.5,135.833 204.5,132.5C 204.237,125.057 205.571,118.057 208.5,111.5C 207.704,116.147 207.037,120.814 206.5,125.5C 205.514,129.97 205.181,134.637 205.5,139.5C 205.19,142.713 205.523,145.713 206.5,148.5C 206.205,150.735 206.539,152.735 207.5,154.5C 207.232,156.099 207.566,157.432 208.5,158.5C 208.278,161.39 208.945,164.057 210.5,166.5C 215.456,167.494 220.456,167.827 225.5,167.5C 233.833,167.5 242.167,167.5 250.5,167.5C 261.172,167.667 271.839,167.5 282.5,167C 285.581,160.538 287.248,153.704 287.5,146.5C 288.338,146.842 288.672,147.508 288.5,148.5C 287.589,154.54 286.756,160.54 286,166.5C 290.748,167.635 295.581,167.802 300.5,167C 304.14,160.246 306.474,153.079 307.5,145.5C 309.078,136.779 308.412,128.113 305.5,119.5C 304.492,116.156 303.492,112.823 302.5,109.5 Z"/></g>
<g><path style="opacity:1" fill="#4ccaed" d="M 285.5,85.5 C 284.761,85.369 284.094,85.5357 283.5,86C 284.71,87.0391 285.71,88.2058 286.5,89.5C 283.883,88.2141 281.55,86.5475 279.5,84.5C 276.898,82.1904 273.898,80.3571 270.5,79C 259.493,74.9437 248.159,73.6104 236.5,75C 232.837,75.5717 229.503,76.7383 226.5,78.5C 220.714,81.2268 215.048,84.2268 209.5,87.5C 201.342,92.6579 195.342,99.6579 191.5,108.5C 188.473,112.237 186.807,116.57 186.5,121.5C 183.03,130.523 182.53,139.856 185,149.5C 185.572,153.163 186.738,156.497 188.5,159.5C 189.965,165.77 192.965,171.104 197.5,175.5C 200.228,179.737 203.561,183.571 207.5,187C 215.445,192.807 224.111,196.974 233.5,199.5C 232.761,199.369 232.094,199.536 231.5,200C 232.416,200.278 233.082,200.778 233.5,201.5C 210.953,196.735 195.287,183.735 186.5,162.5C 185.833,161.833 185.167,161.167 184.5,160.5C 175.869,128.805 184.536,103.139 210.5,83.5C 211.167,83.5 211.5,83.1667 211.5,82.5C 236.896,68.4309 261.563,69.4309 285.5,85.5 Z"/></g>
<g><path style="opacity:1" fill="#e0f9fa" d="M 191.5,108.5 C 190.075,113.001 188.409,117.334 186.5,121.5C 186.807,116.57 188.473,112.237 191.5,108.5 Z"/></g>
<g><path style="opacity:1" fill="#fcfcfc" d="M 333.5,129.5 C 321.117,130.153 317.784,125.153 323.5,114.5C 331.517,113.485 336.183,117.152 337.5,125.5C 337.469,128.175 336.136,129.509 333.5,129.5 Z"/></g>
<g><path style="opacity:1" fill="#7b7d94" d="M 356.5,108.5 C 359.938,110.759 363.271,113.259 366.5,116C 369.536,118.006 372.869,118.84 376.5,118.5C 376.832,122.676 375.498,126.176 372.5,129C 369.918,129.542 367.918,128.708 366.5,126.5C 372.647,128.68 374.98,126.68 373.5,120.5C 366.572,118.21 360.906,114.21 356.5,108.5 Z"/></g>
<g><path style="opacity:1" fill="#a8d894" d="M 139.5,115.5 C 141.914,116.911 143.581,118.911 144.5,121.5C 142.086,120.089 140.419,118.089 139.5,115.5 Z"/></g>
<g><path style="opacity:1" fill="#6f718a" d="M 347.5,118.5 C 346.833,119.833 345.833,120.833 344.5,121.5C 344.5,119.5 345.5,118.5 347.5,118.5 Z"/></g>
<g><path style="opacity:1" fill="#787a92" d="M 360.5,121.5 C 356.6,118.963 352.266,117.963 347.5,118.5C 351.064,116.104 354.731,116.27 358.5,119C 359.381,119.708 360.047,120.542 360.5,121.5 Z"/></g>
<g><path style="opacity:1" fill="#eefbfb" d="M 243.5,119.5 C 244.968,123.37 244.468,127.036 242,130.5C 238.318,134.015 234.818,137.682 231.5,141.5C 235.783,142.492 240.116,142.826 244.5,142.5C 244.5,142.833 244.5,143.167 244.5,143.5C 239.167,143.5 233.833,143.5 228.5,143.5C 228.351,142.448 228.517,141.448 229,140.5C 231.372,138.297 233.539,135.963 235.5,133.5C 240.533,130.986 242.7,126.986 242,121.5C 241.292,120.619 240.458,119.953 239.5,119.5C 234.732,117.392 231.066,118.725 228.5,123.5C 227.479,122.998 227.312,122.332 228,121.5C 232.457,115.649 237.623,114.983 243.5,119.5 Z"/></g>
<g><path style="opacity:1" fill="#88899e" d="M 323.5,114.5 C 317.784,125.153 321.117,130.153 333.5,129.5C 332.537,130.363 332.537,131.03 333.5,131.5C 335.957,129.775 338.623,129.275 341.5,130C 342.252,130.671 342.586,131.504 342.5,132.5C 338.85,132.358 335.35,133.025 332,134.5C 330.174,133.99 330.007,133.156 331.5,132C 320.376,130.935 316.876,125.435 321,115.5C 321.671,114.748 322.504,114.414 323.5,114.5 Z"/></g>
<g><path style="opacity:1" fill="#0fd5cb" d="M 226.5,107.5 C 231.179,107.334 235.845,107.501 240.5,108C 243.703,111.415 244.703,115.248 243.5,119.5C 237.623,114.983 232.457,115.649 228,121.5C 227.312,122.332 227.479,122.998 228.5,123.5C 231.066,118.725 234.732,117.392 239.5,119.5C 239.698,123.265 238.031,126.432 234.5,129C 225.622,133.948 216.289,137.448 206.5,139.5C 206.167,139.5 205.833,139.5 205.5,139.5C 205.181,134.637 205.514,129.97 206.5,125.5C 206.201,127.604 206.534,129.604 207.5,131.5C 211.805,130.849 215.805,129.349 219.5,127C 221.963,123.535 224.796,120.369 228,117.5C 228.847,113.928 228.347,110.594 226.5,107.5 Z"/></g>
<g><path style="opacity:1" fill="#14cdd2" d="M 239.5,119.5 C 240.458,119.953 241.292,120.619 242,121.5C 242.7,126.986 240.533,130.986 235.5,133.5C 226.105,137.676 216.438,139.676 206.5,139.5C 216.289,137.448 225.622,133.948 234.5,129C 238.031,126.432 239.698,123.265 239.5,119.5 Z"/></g>
<g><path style="opacity:1" fill="#73758d" d="M 360.5,121.5 C 363.089,122.419 365.089,124.086 366.5,126.5C 363.911,125.581 361.911,123.914 360.5,121.5 Z"/></g>
<g><path style="opacity:1" fill="#72738c" d="M 344.5,121.5 C 344.262,123.404 343.262,124.738 341.5,125.5C 341.738,123.596 342.738,122.262 344.5,121.5 Z"/></g>
<g><path style="opacity:1" fill="#109de9" d="M 305.5,119.5 C 308.412,128.113 309.078,136.779 307.5,145.5C 307.666,141.154 307.499,136.821 307,132.5C 306.683,134.301 306.016,134.634 305,133.5C 298.102,135.908 292.936,140.241 289.5,146.5C 289.5,145.833 289.5,145.167 289.5,144.5C 289.5,138.5 289.5,132.5 289.5,126.5C 289.413,123.402 289.913,123.068 291,125.5C 294.835,121.224 299.668,119.224 305.5,119.5 Z"/></g>
<g><path style="opacity:1" fill="#b2dca0" d="M 144.5,121.5 C 145.962,122.458 147.295,123.624 148.5,125C 153.022,125.679 157.356,125.346 161.5,124C 158.041,127.114 154.041,128.114 149.5,127C 146.921,125.924 145.254,124.091 144.5,121.5 Z"/></g>
<g><path style="opacity:1" fill="#08a2e5" d="M 286.5,121.5 C 287.414,124.728 287.747,128.061 287.5,131.5C 287.5,132.833 287.5,134.167 287.5,135.5C 286.698,136.952 286.198,138.618 286,140.5C 280.022,146.81 273.688,152.81 267,158.5C 266.667,157.5 266.333,156.5 266,155.5C 265.722,156.416 265.222,157.082 264.5,157.5C 263.969,155.376 262.635,153.876 260.5,153C 261.549,152.508 262.549,152.674 263.5,153.5C 264.773,152.743 264.773,152.077 263.5,151.5C 262.391,150.71 261.058,150.21 259.5,150C 271.099,142.902 280.099,133.402 286.5,121.5 Z"/></g>
<g><path style="opacity:1" fill="#16b9de" d="M 260.5,129.5 C 264.142,132.871 264.475,136.705 261.5,141C 257.879,143.09 254.379,142.923 251,140.5C 250.517,139.552 250.351,138.552 250.5,137.5C 250.908,136.357 251.575,135.357 252.5,134.5C 255.737,133.568 258.404,131.901 260.5,129.5 Z"/></g>
<g><path style="opacity:1" fill="#f5f5f8" d="M 359.5,154.5 C 352.373,161.569 345.873,160.902 340,152.5C 338.476,150.102 336.976,147.769 335.5,145.5C 334.865,142.507 334.699,139.507 335,136.5C 335.333,136.167 335.667,135.833 336,135.5C 336.118,137.573 337.118,138.907 339,139.5C 340.716,136.505 342.882,134.505 345.5,133.5C 345.522,137.918 346.855,141.752 349.5,145C 348.582,147.967 346.582,149.801 343.5,150.5C 346.996,152.261 350.663,152.761 354.5,152C 357.017,149.91 357.017,148.077 354.5,146.5C 353.432,145.566 352.099,145.232 350.5,145.5C 351.08,141.858 351.58,138.191 352,134.5C 354.242,135.042 356.742,135.709 359.5,136.5C 359.286,132.743 360.286,132.076 362.5,134.5C 363.386,133.675 363.719,132.675 363.5,131.5C 364.822,131.33 365.989,131.663 367,132.5C 367.652,135.594 367.318,138.594 366,141.5C 365.257,139.355 364.424,139.189 363.5,141C 363.833,142 364.167,143 364.5,144C 362.942,147.613 361.275,151.113 359.5,154.5 Z"/></g>
<g><path style="opacity:1" fill="#ecf9fc" d="M 262.5,127.5 C 265.231,130.927 266.231,134.927 265.5,139.5C 262.523,143.314 258.523,144.981 253.5,144.5C 251.527,143.194 249.861,141.527 248.5,139.5C 248.5,138.167 249.167,137.5 250.5,137.5C 250.351,138.552 250.517,139.552 251,140.5C 254.379,142.923 257.879,143.09 261.5,141C 264.475,136.705 264.142,132.871 260.5,129.5C 256.689,127.882 253.189,128.549 250,131.5C 249.501,126.845 249.334,122.179 249.5,117.5C 254.511,117.334 259.511,117.501 264.5,118C 259.845,118.499 255.179,118.666 250.5,118.5C 250.18,121.898 250.513,125.232 251.5,128.5C 254.937,126.202 258.604,125.868 262.5,127.5 Z"/></g>
<g><path style="opacity:1" fill="#c9f2f9" d="M 186.5,121.5 C 186.296,124.518 185.963,127.518 185.5,130.5C 185.178,136.358 185.511,142.025 186.5,147.5C 186.958,151.538 187.624,155.538 188.5,159.5C 186.738,156.497 185.572,153.163 185,149.5C 182.53,139.856 183.03,130.523 186.5,121.5 Z"/></g>
<g><path style="opacity:1" fill="#22d4d4" d="M 206.5,107.5 C 202.233,107.203 198.066,107.536 194,108.5C 190.86,115.167 189.86,122.167 191,129.5C 194.982,133.122 199.482,134.122 204.5,132.5C 204.5,135.833 204.5,139.167 204.5,142.5C 203.842,141.602 203.176,140.602 202.5,139.5C 194.155,141.186 188.488,138.186 185.5,130.5C 185.963,127.518 186.296,124.518 186.5,121.5C 188.409,117.334 190.075,113.001 191.5,108.5C 192.289,108.217 192.956,107.717 193.5,107C 198.02,106.186 202.354,106.353 206.5,107.5 Z"/></g>
<g><path style="opacity:1" fill="#6c6e88" d="M 341.5,125.5 C 341.047,126.458 340.381,127.292 339.5,128C 342.468,128.762 344.468,130.595 345.5,133.5C 342.882,134.505 340.716,136.505 339,139.5C 337.118,138.907 336.118,137.573 336,135.5C 335.667,135.833 335.333,136.167 335,136.5C 334.699,139.507 334.865,142.507 335.5,145.5C 333.362,142.913 332.529,139.913 333,136.5C 336.366,135.302 339.532,133.969 342.5,132.5C 342.586,131.504 342.252,130.671 341.5,130C 338.623,129.275 335.957,129.775 333.5,131.5C 332.537,131.03 332.537,130.363 333.5,129.5C 336.136,129.509 337.469,128.175 337.5,125.5C 336.183,117.152 331.517,113.485 323.5,114.5C 323.953,113.542 324.619,112.708 325.5,112C 319.479,108.218 314.146,109.051 309.5,114.5C 310.254,111.909 311.921,110.076 314.5,109C 319.694,107.758 324.36,108.758 328.5,112C 330.5,112.333 332.5,112.667 334.5,113C 333.833,113.333 333.167,113.667 332.5,114C 335.807,116.778 337.974,120.278 339,124.5C 339.671,125.252 340.504,125.586 341.5,125.5 Z"/></g>
<g><path style="opacity:1" fill="#20c8da" d="M 235.5,133.5 C 233.539,135.963 231.372,138.297 229,140.5C 228.517,141.448 228.351,142.448 228.5,143.5C 233.833,143.5 239.167,143.5 244.5,143.5C 241.854,144.164 239.021,144.498 236,144.5C 232.515,144.368 229.182,143.701 226,142.5C 219.523,143.345 213.023,144.011 206.5,144.5C 206.5,145.833 206.5,147.167 206.5,148.5C 205.523,145.713 205.19,142.713 205.5,139.5C 205.833,139.5 206.167,139.5 206.5,139.5C 216.438,139.676 226.105,137.676 235.5,133.5 Z"/></g>
<g><path style="opacity:1" fill="#676883" d="M 362.5,130.5 C 364.679,128.836 366.512,129.17 368,131.5C 368.667,134.833 368.667,138.167 368,141.5C 365.653,146.207 362.819,150.54 359.5,154.5C 361.275,151.113 362.942,147.613 364.5,144C 364.167,143 363.833,142 363.5,141C 364.424,139.189 365.257,139.355 366,141.5C 367.318,138.594 367.652,135.594 367,132.5C 365.989,131.663 364.822,131.33 363.5,131.5C 363.719,132.675 363.386,133.675 362.5,134.5C 360.286,132.076 359.286,132.743 359.5,136.5C 356.742,135.709 354.242,135.042 352,134.5C 351.58,138.191 351.08,141.858 350.5,145.5C 352.099,145.232 353.432,145.566 354.5,146.5C 357.017,148.077 357.017,149.91 354.5,152C 350.663,152.761 346.996,152.261 343.5,150.5C 346.582,149.801 348.582,147.967 349.5,145C 346.855,141.752 345.522,137.918 345.5,133.5C 346.117,133.611 346.617,133.944 347,134.5C 347.118,137.371 347.784,140.038 349,142.5C 350.244,139.362 350.911,136.028 351,132.5C 351.273,130.671 352.107,129.171 353.5,128C 356.167,127.333 358.833,127.333 361.5,128C 362.252,128.671 362.586,129.504 362.5,130.5 Z"/></g>
<g><path style="opacity:1" fill="#e8e8ec" d="M 362.5,130.5 C 359.582,131.365 356.582,132.365 353.5,133.5C 352.396,132.369 352.729,131.535 354.5,131C 357.146,130.503 359.813,130.336 362.5,130.5 Z"/></g>
<g><path style="opacity:1" fill="#0dc7dd" d="M 185.5,130.5 C 188.488,138.186 194.155,141.186 202.5,139.5C 203.176,140.602 203.842,141.602 204.5,142.5C 204.5,144.833 204.5,147.167 204.5,149.5C 199.556,148.454 194.556,147.62 189.5,147C 187.443,143.7 186.443,143.867 186.5,147.5C 185.511,142.025 185.178,136.358 185.5,130.5 Z"/></g>
<g><path style="opacity:1" fill="#7fcbf2" d="M 287.5,131.5 C 288.167,135.833 288.833,140.167 289.5,144.5C 289.5,145.167 289.5,145.833 289.5,146.5C 289.672,147.492 289.338,148.158 288.5,148.5C 288.672,147.508 288.338,146.842 287.5,146.5C 287.5,142.833 287.5,139.167 287.5,135.5C 287.5,134.167 287.5,132.833 287.5,131.5 Z"/></g>
<g><path style="opacity:1" fill="#098de9" d="M 307.5,145.5 C 306.474,153.079 304.14,160.246 300.5,167C 295.581,167.802 290.748,167.635 286,166.5C 286.756,160.54 287.589,154.54 288.5,148.5C 289.338,148.158 289.672,147.492 289.5,146.5C 292.936,140.241 298.102,135.908 305,133.5C 306.016,134.634 306.683,134.301 307,132.5C 307.499,136.821 307.666,141.154 307.5,145.5 Z"/></g>
<g><path style="opacity:1" fill="#70d8f3" d="M 184.5,160.5 C 185.167,161.167 185.833,161.833 186.5,162.5C 183.926,165.032 182.592,168.199 182.5,172C 183.153,177.485 183.653,182.985 184,188.5C 185.989,190.732 188.489,192.232 191.5,193C 193.68,195.418 194.013,198.084 192.5,201C 190.5,201.667 188.5,201.667 186.5,201C 184.804,198.413 183.804,195.579 183.5,192.5C 180.482,192.665 177.482,192.498 174.5,192C 172.881,191.764 171.881,190.931 171.5,189.5C 169.623,188.341 169.123,186.674 170,184.5C 171.961,181.537 174.294,178.871 177,176.5C 178.696,174.44 179.863,172.107 180.5,169.5C 179.078,159.707 175.078,151.207 168.5,144C 161.879,138.853 155.045,138.353 148,142.5C 145.926,145.791 146.092,148.957 148.5,152C 159.222,150.454 167.722,153.954 174,162.5C 174.291,167.602 173.625,172.602 172,177.5C 170.491,178.09 168.991,178.756 167.5,179.5C 165.706,184.261 163.04,188.427 159.5,192C 154.931,194.219 150.598,193.886 146.5,191C 142.833,190.667 139.167,190.333 135.5,190C 127.508,175.845 127.675,161.678 136,147.5C 140.771,143.213 143.604,144.38 144.5,151C 141.842,155.831 139.842,160.998 138.5,166.5C 145.138,167.138 148.805,170.804 149.5,177.5C 150.226,173.726 151.226,170.059 152.5,166.5C 151.065,164.335 151.731,162.835 154.5,162C 158.225,161.24 161.892,161.407 165.5,162.5C 166.833,161.833 167.833,160.833 168.5,159.5C 167.076,157.282 165.076,155.782 162.5,155C 157.31,154.046 152.143,153.213 147,152.5C 143.884,141.607 148.051,136.774 159.5,138C 166.046,140.018 171.213,143.852 175,149.5C 177.922,155.264 180.255,161.264 182,167.5C 182.698,164.996 183.531,162.663 184.5,160.5 Z"/></g>
<g><path style="opacity:1" fill="#2b5daa" d="M 388.5,142.5 C 389.5,142.5 390.5,142.5 391.5,142.5C 390.833,145.5 390.167,148.5 389.5,151.5C 386.939,150.29 384.605,148.624 382.5,146.5C 384.397,144.983 386.397,143.65 388.5,142.5 Z"/></g>
<g><path style="opacity:1" fill="#15bcdf" d="M 248.5,139.5 C 249.861,141.527 251.527,143.194 253.5,144.5C 247.205,144.154 241.538,145.821 236.5,149.5C 236.565,149.062 236.399,148.728 236,148.5C 234.108,153.248 232.274,153.415 230.5,149C 229.563,148.308 228.897,148.475 228.5,149.5C 226.217,148.971 223.883,148.637 221.5,148.5C 216.826,149.169 212.159,149.836 207.5,150.5C 207.5,151.833 207.5,153.167 207.5,154.5C 206.539,152.735 206.205,150.735 206.5,148.5C 206.5,147.167 206.5,145.833 206.5,144.5C 213.023,144.011 219.523,143.345 226,142.5C 229.182,143.701 232.515,144.368 236,144.5C 239.021,144.498 241.854,144.164 244.5,143.5C 244.5,143.167 244.5,142.833 244.5,142.5C 242.031,141.683 239.365,141.183 236.5,141C 240.073,139.629 243.573,138.129 247,136.5C 247.232,137.737 247.732,138.737 248.5,139.5 Z"/></g>
<g><path style="opacity:1" fill="#fafdfe" d="M 138.5,146.5 C 141.585,146.418 143.252,147.918 143.5,151C 139.834,157.168 136.834,163.668 134.5,170.5C 137.693,176.383 141.026,182.216 144.5,188C 140.131,190.462 136.631,189.629 134,185.5C 129.532,171.695 131.032,158.695 138.5,146.5 Z"/></g>
<g><path style="opacity:1" fill="#c5c6d0" d="M 354.5,146.5 C 355.233,150.903 353.233,152.403 348.5,151C 354.146,150.11 354.479,149.11 349.5,148C 350.905,146.731 352.571,146.231 354.5,146.5 Z"/></g>
<g><path style="opacity:1" fill="#0db9e9" d="M 204.5,149.5 C 206.014,155.406 207.014,161.406 207.5,167.5C 202.456,167.827 197.456,167.494 192.5,166.5C 191.392,163.941 190.059,161.608 188.5,159.5C 187.624,155.538 186.958,151.538 186.5,147.5C 186.443,143.867 187.443,143.7 189.5,147C 194.556,147.62 199.556,148.454 204.5,149.5 Z"/></g>
<g><path style="opacity:1" fill="#05b4e5" d="M 228.5,149.5 C 230.025,151.216 231.025,153.216 231.5,155.5C 223.853,156.757 216.187,156.757 208.5,155.5C 208.5,156.5 208.5,157.5 208.5,158.5C 207.566,157.432 207.232,156.099 207.5,154.5C 207.5,153.167 207.5,151.833 207.5,150.5C 212.159,149.836 216.826,149.169 221.5,148.5C 223.883,148.637 226.217,148.971 228.5,149.5 Z"/></g>
<g><path style="opacity:1" fill="#0297e8" d="M 287.5,135.5 C 287.5,139.167 287.5,142.833 287.5,146.5C 287.248,153.704 285.581,160.538 282.5,167C 271.839,167.5 261.172,167.667 250.5,167.5C 253.958,164.6 257.958,162.433 262.5,161C 261.5,160.667 260.5,160.333 259.5,160C 261.058,159.79 262.391,159.29 263.5,158.5C 264.167,158.5 264.5,158.167 264.5,157.5C 265.222,157.082 265.722,156.416 266,155.5C 266.333,156.5 266.667,157.5 267,158.5C 273.688,152.81 280.022,146.81 286,140.5C 286.198,138.618 286.698,136.952 287.5,135.5 Z"/></g>
<g><path style="opacity:1" fill="#e5f6fc" d="M 236.5,149.5 C 234.432,152.124 233.099,155.124 232.5,158.5C 231.614,157.675 231.281,156.675 231.5,155.5C 231.025,153.216 230.025,151.216 228.5,149.5C 228.897,148.475 229.563,148.308 230.5,149C 232.274,153.415 234.108,153.248 236,148.5C 236.399,148.728 236.565,149.062 236.5,149.5 Z"/></g>
<g><path style="opacity:1" fill="#696b86" d="M 335.5,145.5 C 336.976,147.769 338.476,150.102 340,152.5C 345.873,160.902 352.373,161.569 359.5,154.5C 356.936,160.064 352.603,161.898 346.5,160C 340.696,156.707 337.029,151.874 335.5,145.5 Z"/></g>
<g><path style="opacity:1" fill="#15afe7" d="M 283.5,110.5 C 285.074,113.907 286.074,117.573 286.5,121.5C 280.099,133.402 271.099,142.902 259.5,150C 261.058,150.21 262.391,150.71 263.5,151.5C 261.302,151.12 259.635,151.787 258.5,153.5C 257.5,153.5 256.5,153.5 255.5,153.5C 255.5,155.5 255.5,157.5 255.5,159.5C 251.958,159.813 248.625,159.479 245.5,158.5C 247.5,158.5 249.5,158.5 251.5,158.5C 252.926,152.64 250.926,150.64 245.5,152.5C 246.687,152.554 248.02,152.887 249.5,153.5C 248.311,154.429 246.978,154.762 245.5,154.5C 245.5,155.5 245.5,156.5 245.5,157.5C 244.833,157.5 244.167,157.5 243.5,157.5C 241.954,157.276 240.287,156.943 238.5,156.5C 240.045,155.548 241.712,155.215 243.5,155.5C 243.22,151.775 241.22,150.608 237.5,152C 236.232,154.163 236.232,156.33 237.5,158.5C 233.489,161.507 229.155,164.007 224.5,166C 225.056,166.383 225.389,166.883 225.5,167.5C 220.456,167.827 215.456,167.494 210.5,166.5C 208.945,164.057 208.278,161.39 208.5,158.5C 208.5,157.5 208.5,156.5 208.5,155.5C 216.187,156.757 223.853,156.757 231.5,155.5C 231.281,156.675 231.614,157.675 232.5,158.5C 233.099,155.124 234.432,152.124 236.5,149.5C 241.538,145.821 247.205,144.154 253.5,144.5C 258.523,144.981 262.523,143.314 265.5,139.5C 274.45,131.631 280.45,121.965 283.5,110.5 Z"/></g>
<g><path style="opacity:1" fill="#e4f5fc" d="M 243.5,157.5 C 241.735,158.461 239.735,158.795 237.5,158.5C 236.232,156.33 236.232,154.163 237.5,152C 241.22,150.608 243.22,151.775 243.5,155.5C 241.712,155.215 240.045,155.548 238.5,156.5C 240.287,156.943 241.954,157.276 243.5,157.5 Z"/></g>
<g><path style="opacity:1" fill="#d6edfa" d="M 245.5,158.5 C 245.5,158.167 245.5,157.833 245.5,157.5C 245.5,156.5 245.5,155.5 245.5,154.5C 246.978,154.762 248.311,154.429 249.5,153.5C 248.02,152.887 246.687,152.554 245.5,152.5C 250.926,150.64 252.926,152.64 251.5,158.5C 249.5,158.5 247.5,158.5 245.5,158.5 Z"/></g>
<g><path style="opacity:1" fill="#fcfefe" d="M 255.5,153.5 C 254.698,154.952 254.198,156.618 254,158.5C 253.503,156.19 253.337,153.857 253.5,151.5C 254.873,151.343 256.207,151.51 257.5,152C 256.584,152.278 255.918,152.778 255.5,153.5 Z"/></g>
<g><path style="opacity:1" fill="#10a3e9" d="M 255.5,153.5 C 256.5,153.5 257.5,153.5 258.5,153.5C 259.483,154.85 260.816,155.85 262.5,156.5C 261.167,156.833 259.833,157.167 258.5,157.5C 260.045,158.452 261.712,158.785 263.5,158.5C 262.391,159.29 261.058,159.79 259.5,160C 260.5,160.333 261.5,160.667 262.5,161C 257.958,162.433 253.958,164.6 250.5,167.5C 242.167,167.5 233.833,167.5 225.5,167.5C 225.389,166.883 225.056,166.383 224.5,166C 229.155,164.007 233.489,161.507 237.5,158.5C 239.735,158.795 241.735,158.461 243.5,157.5C 244.167,157.5 244.833,157.5 245.5,157.5C 245.5,157.833 245.5,158.167 245.5,158.5C 248.625,159.479 251.958,159.813 255.5,159.5C 255.5,157.5 255.5,155.5 255.5,153.5 Z"/></g>
<g><path style="opacity:1" fill="#e4f4fc" d="M 263.5,151.5 C 264.773,152.077 264.773,152.743 263.5,153.5C 262.549,152.674 261.549,152.508 260.5,153C 262.635,153.876 263.969,155.376 264.5,157.5C 264.5,158.167 264.167,158.5 263.5,158.5C 261.712,158.785 260.045,158.452 258.5,157.5C 259.833,157.167 261.167,156.833 262.5,156.5C 260.816,155.85 259.483,154.85 258.5,153.5C 259.635,151.787 261.302,151.12 263.5,151.5 Z"/></g>
<g><path style="opacity:1" fill="#f8fdfe" d="M 152.5,166.5 C 152.756,164.224 154.09,163.057 156.5,163C 159.871,162.256 163.037,162.756 166,164.5C 170.704,160.067 173.037,161.067 173,167.5C 172.685,170.147 171.518,170.813 169.5,169.5C 168.174,170.99 166.674,172.324 165,173.5C 166.12,180.448 163.953,186.282 158.5,191C 154.371,193.404 150.704,192.904 147.5,189.5C 144.081,185.669 141.414,181.335 139.5,176.5C 140.522,175.646 141.355,174.646 142,173.5C 143.406,174.668 144.572,174.335 145.5,172.5C 146.298,174.078 146.798,175.744 147,177.5C 152.394,179.182 152.561,180.516 147.5,181.5C 147.426,186.94 149.759,188.44 154.5,186C 155.167,184.667 155.833,183.333 156.5,182C 155.234,181.691 154.067,181.191 153,180.5C 152.333,176.833 152.333,173.167 153,169.5C 153.324,171.569 154.158,171.902 155.5,170.5C 156.192,171.025 156.692,171.692 157,172.5C 158,171.167 159,171.167 160,172.5C 160.772,171.151 161.939,170.318 163.5,170C 162.663,168.989 162.33,167.822 162.5,166.5C 159.167,166.5 155.833,166.5 152.5,166.5 Z"/></g>
<g><path style="opacity:1" fill="#fefafa" d="M 342.5,164.5 C 348.367,164.067 353.534,165.734 358,169.5C 358.495,171.473 358.662,173.473 358.5,175.5C 357,174.412 355.667,173.079 354.5,171.5C 354.167,172 353.833,172.5 353.5,173C 354.414,174.406 355.08,175.906 355.5,177.5C 352.983,182.267 349.65,182.767 345.5,179C 343.833,178.333 342.167,178.333 340.5,179C 338.428,182.202 336.928,185.702 336,189.5C 334.267,187.398 332.267,187.065 330,188.5C 329.578,186.574 328.411,185.574 326.5,185.5C 325.942,184.21 324.942,183.377 323.5,183C 325.749,180.244 328.416,178.078 331.5,176.5C 333.664,174.178 335.331,171.511 336.5,168.5C 338.777,167.551 340.777,166.218 342.5,164.5 Z"/></g>
<g><path style="opacity:1" fill="#f08584" d="M 342.5,164.5 C 347.756,162.814 352.756,163.647 357.5,167C 360.754,169.751 361.088,172.584 358.5,175.5C 358.662,173.473 358.495,171.473 358,169.5C 353.534,165.734 348.367,164.067 342.5,164.5 Z"/></g>
<g><path style="opacity:1" fill="#f59a98" d="M 342.5,164.5 C 340.777,166.218 338.777,167.551 336.5,168.5C 337.708,165.956 339.708,164.622 342.5,164.5 Z"/></g>
<g><path style="opacity:1" fill="#16b5e8" d="M 212.5,173.5 C 216.005,182.855 222.005,190.355 230.5,196C 222.505,194.339 215.172,191.006 208.5,186C 204.964,182.296 201.298,178.796 197.5,175.5C 196.464,173.609 196.464,171.776 197.5,170C 201.5,169.333 205.5,169.333 209.5,170C 210.636,171.145 211.636,172.312 212.5,173.5 Z"/></g>
<g><path style="opacity:1" fill="#f07f7e" d="M 336.5,168.5 C 335.331,171.511 333.664,174.178 331.5,176.5C 332.169,173.151 333.836,170.484 336.5,168.5 Z"/></g>
<g><path style="opacity:1" fill="#fbfefe" d="M 171.5,189.5 C 171.338,187.473 171.505,185.473 172,183.5C 175.37,180.465 178.37,177.132 181,173.5C 181.373,179.189 181.873,184.855 182.5,190.5C 178.766,190.677 175.099,190.344 171.5,189.5 Z"/></g>
<g><path style="opacity:1" fill="#138ddb" d="M 283.5,169.5 C 287.514,169.334 291.514,169.501 295.5,170C 296.554,171.388 296.72,172.888 296,174.5C 287.382,185.812 276.215,192.979 262.5,196C 272.284,189.381 279.284,180.548 283.5,169.5 Z"/></g>
<g><path style="opacity:1" fill="#fef9f9" d="M 355.5,177.5 C 358.456,178.455 360.456,180.455 361.5,183.5C 360.009,185.012 358.176,186.012 356,186.5C 355.79,190.781 355.623,194.948 355.5,199C 354.551,199.617 353.718,199.451 353,198.5C 354.248,192.154 351.915,188.154 346,186.5C 343.293,187.205 341.126,188.705 339.5,191C 342.811,190.785 346.144,190.785 349.5,191C 346.638,191.27 343.972,192.104 341.5,193.5C 342.874,194.711 344.374,195.711 346,196.5C 347.667,194.935 349.333,193.269 351,191.5C 349.995,197.29 352.162,201.123 357.5,203C 355.075,204.213 352.741,205.379 350.5,206.5C 350.414,207.496 350.748,208.329 351.5,209C 353.387,209.78 355.054,209.613 356.5,208.5C 357.959,208.567 359.292,208.234 360.5,207.5C 358.994,214.046 354.994,216.213 348.5,214C 346.146,213.153 343.812,212.32 341.5,211.5C 338.171,209.166 335.504,206.166 333.5,202.5C 334.243,201.818 334.909,201.151 335.5,200.5C 336.791,199.458 336.791,198.292 335.5,197C 334.002,196.415 333.002,196.915 332.5,198.5C 331.5,199.833 330.5,199.833 329.5,198.5C 329.336,195.813 329.503,193.146 330,190.5C 333.468,188.786 335.802,189.786 337,193.5C 337.511,188.605 339.011,184.105 341.5,180C 344.713,180.338 347.879,181.171 351,182.5C 354.082,182.252 355.582,180.585 355.5,177.5 Z"/></g>
<g><path style="opacity:1" fill="#0c9fdd" d="M 242.5,169.5 C 241.972,170.721 241.305,171.887 240.5,173C 238.221,173.473 236.221,174.473 234.5,176C 237.514,176.128 240.514,176.128 243.5,176C 239.833,178.333 236.833,181.333 234.5,185C 235.672,185.353 236.838,185.187 238,184.5C 239.098,185.384 239.598,186.384 239.5,187.5C 240.62,186.167 241.953,185.667 243.5,186C 241.84,187.488 240.84,189.321 240.5,191.5C 239.659,193.379 239.325,195.379 239.5,197.5C 240.791,197.263 241.791,197.596 242.5,198.5C 237.292,198.063 232.625,196.23 228.5,193C 225.333,189.833 222.167,186.667 219,183.5C 217.058,179.931 214.892,176.598 212.5,173.5C 212.33,172.178 212.663,171.011 213.5,170C 223.161,169.5 232.828,169.334 242.5,169.5 Z"/></g>
<g><path style="opacity:1" fill="#0389d5" d="M 242.5,169.5 C 254.838,169.333 267.171,169.5 279.5,170C 280.554,171.388 280.72,172.888 280,174.5C 277.39,178.742 274.557,182.742 271.5,186.5C 260.335,182.873 250.002,184.54 240.5,191.5C 240.84,189.321 241.84,187.488 243.5,186C 241.953,185.667 240.62,186.167 239.5,187.5C 239.598,186.384 239.098,185.384 238,184.5C 236.838,185.187 235.672,185.353 234.5,185C 236.833,181.333 239.833,178.333 243.5,176C 240.514,176.128 237.514,176.128 234.5,176C 236.221,174.473 238.221,173.473 240.5,173C 241.305,171.887 241.972,170.721 242.5,169.5 Z"/></g>
<g><path style="opacity:1" fill="#f7b0ae" d="M 362.5,185.5 C 362.721,186.735 363.388,187.735 364.5,188.5C 364.376,189.107 364.043,189.44 363.5,189.5C 354.833,189.053 354.5,187.719 362.5,185.5 Z"/></g>
<g><path style="opacity:1" fill="#f07c7a" d="M 302.5,171.5 C 304.726,177.318 309.059,180.818 315.5,182C 318.23,182.728 320.897,182.562 323.5,181.5C 323.419,179.061 323.919,176.728 325,174.5C 326.59,177.391 328.756,178.058 331.5,176.5C 328.416,178.078 325.749,180.244 323.5,183C 324.942,183.377 325.942,184.21 326.5,185.5C 328.411,185.574 329.578,186.574 330,188.5C 332.267,187.065 334.267,187.398 336,189.5C 336.928,185.702 338.428,182.202 340.5,179C 342.167,178.333 343.833,178.333 345.5,179C 349.65,182.767 352.983,182.267 355.5,177.5C 355.582,180.585 354.082,182.252 351,182.5C 347.879,181.171 344.713,180.338 341.5,180C 339.011,184.105 337.511,188.605 337,193.5C 335.802,189.786 333.468,188.786 330,190.5C 329.503,193.146 329.336,195.813 329.5,198.5C 328.073,196.852 327.24,194.852 327,192.5C 324.46,193.876 322.46,193.21 321,190.5C 320.808,188.423 320.308,186.423 319.5,184.5C 314.568,183.356 309.901,181.522 305.5,179C 303.549,177.266 302.549,175.099 302.5,172.5C 302.5,172.167 302.5,171.833 302.5,171.5 Z"/></g>
<g><path style="opacity:1" fill="#fef4f4" d="M 326.5,185.5 C 329.711,189.713 328.711,191.546 323.5,191C 321.675,189.534 321.175,187.701 322,185.5C 323.414,184.587 324.914,184.587 326.5,185.5 Z"/></g>
<g><path style="opacity:1" fill="#0b7bbd" d="M 271.5,186.5 C 264.036,195.55 254.369,199.55 242.5,198.5C 241.791,197.596 240.791,197.263 239.5,197.5C 239.325,195.379 239.659,193.379 240.5,191.5C 250.002,184.54 260.335,182.873 271.5,186.5 Z"/></g>
<g><path style="opacity:1" fill="#fafdfe" d="M 184.5,193.5 C 186.605,192.181 188.605,192.514 190.5,194.5C 193.592,198.078 192.925,199.911 188.5,200C 186.372,198.208 185.039,196.042 184.5,193.5 Z"/></g>
<g><path style="opacity:1" fill="#ef7472" d="M 358.5,175.5 C 359.75,177.932 361.25,180.266 363,182.5C 363.74,183.749 363.573,184.749 362.5,185.5C 354.5,187.719 354.833,189.053 363.5,189.5C 365.398,198.963 363.398,207.463 357.5,215C 353.074,215.791 348.741,215.457 344.5,214C 343.058,213.623 342.058,212.79 341.5,211.5C 343.812,212.32 346.146,213.153 348.5,214C 354.994,216.213 358.994,214.046 360.5,207.5C 359.292,208.234 357.959,208.567 356.5,208.5C 357.429,207.685 358.429,206.852 359.5,206C 356.587,206.29 353.587,206.457 350.5,206.5C 352.741,205.379 355.075,204.213 357.5,203C 352.162,201.123 349.995,197.29 351,191.5C 349.333,193.269 347.667,194.935 346,196.5C 344.374,195.711 342.874,194.711 341.5,193.5C 343.972,192.104 346.638,191.27 349.5,191C 346.144,190.785 342.811,190.785 339.5,191C 341.126,188.705 343.293,187.205 346,186.5C 351.915,188.154 354.248,192.154 353,198.5C 353.718,199.451 354.551,199.617 355.5,199C 355.623,194.948 355.79,190.781 356,186.5C 358.176,186.012 360.009,185.012 361.5,183.5C 360.456,180.455 358.456,178.455 355.5,177.5C 355.08,175.906 354.414,174.406 353.5,173C 353.833,172.5 354.167,172 354.5,171.5C 355.667,173.079 357,174.412 358.5,175.5 Z"/></g>
<g><path style="opacity:1" fill="#fef3f2" d="M 360.5,207.5 C 361.275,203.818 359.941,201.318 356.5,200C 357.222,196.898 357.389,193.732 357,190.5C 358.979,195.537 360.646,195.537 362,190.5C 362.667,195.167 362.667,199.833 362,204.5C 361.768,205.737 361.268,206.737 360.5,207.5 Z"/></g>
<g><path style="opacity:1" fill="#f1807f" d="M 335.5,200.5 C 335.179,198.952 334.179,198.285 332.5,198.5C 333.002,196.915 334.002,196.415 335.5,197C 336.791,198.292 336.791,199.458 335.5,200.5 Z"/></g>
<g><path style="opacity:1" fill="#fce4e4" d="M 332.5,198.5 C 334.179,198.285 335.179,198.952 335.5,200.5C 333.821,200.715 332.821,200.048 332.5,198.5 Z"/></g>
<g><path style="opacity:1" fill="#2fb1e4" d="M 285.5,85.5 C 296.129,93.063 303.629,103.063 308,115.5C 308.383,114.944 308.883,114.611 309.5,114.5C 311.397,126.085 311.897,137.751 311,149.5C 309.385,157.82 306.552,165.153 302.5,171.5C 302.5,171.833 302.5,172.167 302.5,172.5C 285.45,196.189 262.45,205.855 233.5,201.5C 233.082,200.778 232.416,200.278 231.5,200C 232.094,199.536 232.761,199.369 233.5,199.5C 246.12,201.44 258.453,200.274 270.5,196C 299.011,182.158 311.844,159.325 309,127.5C 308.291,120.866 306.125,114.866 302.5,109.5C 300.655,104.814 298.155,100.48 295,96.5C 292.564,93.5532 289.731,91.2199 286.5,89.5C 285.71,88.2058 284.71,87.0391 283.5,86C 284.094,85.5357 284.761,85.369 285.5,85.5 Z"/></g>
<g><path style="opacity:1" fill="#71bf50" d="M 162.5,203.5 C 163.496,203.414 164.329,203.748 165,204.5C 166.43,207.353 167.263,210.353 167.5,213.5C 163.833,213.5 160.167,213.5 156.5,213.5C 156.343,212.127 156.51,210.793 157,209.5C 159.04,207.63 160.873,205.63 162.5,203.5 Z"/></g>
<g><path style="opacity:1" fill="#fbb02c" d="M 295.5,205.5 C 298.785,205.736 301.785,206.736 304.5,208.5C 302.64,209.939 300.973,211.605 299.5,213.5C 297.113,211.393 295.78,208.727 295.5,205.5 Z"/></g>
<g><path style="opacity:1" fill="#ee7271" d="M 329.5,198.5 C 330.5,199.833 331.5,199.833 332.5,198.5C 332.821,200.048 333.821,200.715 335.5,200.5C 334.909,201.151 334.243,201.818 333.5,202.5C 335.504,206.166 338.171,209.166 341.5,211.5C 338.357,210.866 335.857,209.2 334,206.5C 332.838,203.521 331.338,200.855 329.5,198.5 Z"/></g>
<g><path style="opacity:1" fill="#f5aaa9" d="M 356.5,208.5 C 355.054,209.613 353.387,209.78 351.5,209C 350.748,208.329 350.414,207.496 350.5,206.5C 353.587,206.457 356.587,206.29 359.5,206C 358.429,206.852 357.429,207.685 356.5,208.5 Z"/></g>
<g><path style="opacity:1" fill="#46cbf0" d="M 270.5,217.5 C 272.337,217.639 272.67,218.306 271.5,219.5C 270.702,219.043 270.369,218.376 270.5,217.5 Z"/></g>
<g><path style="opacity:1" fill="#abe9f8" d="M 210.5,231.5 C 210.666,227.154 210.499,222.821 210,218.5C 209.667,221.833 209.333,225.167 209,228.5C 208.283,227.956 207.783,227.289 207.5,226.5C 208.477,223.713 208.81,220.713 208.5,217.5C 209.5,217.5 210.5,217.5 211.5,217.5C 211.819,222.363 211.486,227.03 210.5,231.5 Z"/></g>
<g><path style="opacity:1" fill="#46c8ef" d="M 223.5,219.5 C 225.078,220.066 226.412,221.066 227.5,222.5C 224.887,225.418 224.887,228.251 227.5,231C 226.216,231.684 225.049,231.517 224,230.5C 223.095,226.745 222.928,223.079 223.5,219.5 Z"/></g>
<g><path style="opacity:1" fill="#45c9ef" d="M 207.5,226.5 C 207.783,227.289 208.283,227.956 209,228.5C 209.333,225.167 209.667,221.833 210,218.5C 210.499,222.821 210.666,227.154 210.5,231.5C 208.983,231.489 207.816,230.823 207,229.5C 205.333,226.833 203.667,224.167 202,221.5C 201.824,224.882 201.324,228.215 200.5,231.5C 199.507,226.88 199.173,222.214 199.5,217.5C 203.286,219.337 205.953,222.337 207.5,226.5 Z"/></g>
<g><path style="opacity:1" fill="#3dccf0" d="M 270.5,221.5 C 271.777,222.694 272.444,224.36 272.5,226.5C 272.167,228.167 271.833,229.833 271.5,231.5C 270.513,228.232 270.18,224.898 270.5,221.5 Z"/></g>
<g><path style="opacity:1" fill="#49caf0" d="M 261.5,217.5 C 263.197,219.305 264.03,221.639 264,224.5C 265.171,222.384 266.671,221.718 268.5,222.5C 267.019,223.48 265.685,224.647 264.5,226C 266.167,227.667 267.833,229.333 269.5,231C 267.097,231.63 265.263,230.797 264,228.5C 263.751,229.624 263.251,230.624 262.5,231.5C 261.507,226.88 261.173,222.214 261.5,217.5 Z"/></g>
<g><path style="opacity:1" fill="#4accf0" d="M 254.5,221.5 C 259.242,220.812 260.075,221.812 257,224.5C 256.814,226.9 256.314,229.234 255.5,231.5C 254.513,228.232 254.18,224.898 254.5,221.5 Z"/></g>
<g><path style="opacity:1" fill="#47cbf0" d="M 274.5,221.5 C 277.119,221.232 279.619,221.565 282,222.5C 282.821,225.554 282.655,228.554 281.5,231.5C 280.52,228.914 280.187,226.247 280.5,223.5C 279.167,223.5 277.833,223.5 276.5,223.5C 276.813,226.247 276.48,228.914 275.5,231.5C 274.513,228.232 274.18,224.898 274.5,221.5 Z"/></g>
<g><path style="opacity:1" fill="#48cbf0" d="M 286.5,221.5 C 288.877,221.784 291.044,221.784 293,221.5C 293.667,225.5 293.667,229.5 293,233.5C 290.415,236.128 287.915,236.128 285.5,233.5C 287.424,233.433 289.424,233.1 291.5,232.5C 284.358,231.296 282.691,227.629 286.5,221.5 Z"/></g>
<g><path style="opacity:1" fill="#f8fdfe" d="M 286.5,223.5 C 288.167,223.5 289.833,223.5 291.5,223.5C 291.5,225.5 291.5,227.5 291.5,229.5C 287.092,229.938 285.425,227.938 286.5,223.5 Z"/></g>
<g><path style="opacity:1" fill="#55cef0" d="M 214.5,221.5 C 219.787,220.138 222.454,222.138 222.5,227.5C 219.813,227.336 217.146,227.503 214.5,228C 216.365,230.912 218.365,231.078 220.5,228.5C 221.711,229.274 221.711,230.107 220.5,231C 212.424,231.805 210.424,228.638 214.5,221.5 Z"/></g>
<g><path style="opacity:1" fill="#effafd" d="M 216.5,222.5 C 217.995,222.415 218.995,223.081 219.5,224.5C 217.926,225.631 216.259,225.798 214.5,225C 215.381,224.292 216.047,223.458 216.5,222.5 Z"/></g>
<g><path style="opacity:1" fill="#51cdf0" d="M 228.5,221.5 C 229.496,221.414 230.329,221.748 231,222.5C 232.349,229.027 233.516,229.027 234.5,222.5C 235.325,221.614 236.325,221.281 237.5,221.5C 238.08,228.618 239.246,228.951 241,222.5C 242.018,221.294 242.518,221.627 242.5,223.5C 241.22,233.577 239.053,233.911 236,224.5C 235.273,227.155 234.106,229.488 232.5,231.5C 230.582,228.416 229.249,225.082 228.5,221.5 Z"/></g>
<g><path style="opacity:1" fill="#48caef" d="M 245.5,221.5 C 250.422,220.238 253.089,222.071 253.5,227C 252.472,231.206 249.805,232.539 245.5,231C 242.888,227.836 242.888,224.669 245.5,221.5 Z"/></g>
<g><path style="opacity:1" fill="#f1fbfd" d="M 247.5,222.5 C 249.818,222.818 251.152,224.152 251.5,226.5C 250.875,229.986 249.042,230.986 246,229.5C 245.167,226.829 245.667,224.496 247.5,222.5 Z"/></g>
<g><path style="opacity:1" fill="#a5adbb" d="M 249.5,236.5 C 249.665,239.518 249.498,242.518 249,245.5C 248.283,244.956 247.783,244.289 247.5,243.5C 248.167,241.167 248.833,238.833 249.5,236.5 Z"/></g>
<g><path style="opacity:1" fill="#364464" d="M 297.5,243.5 C 298.497,243.47 299.164,243.97 299.5,245C 300.861,248.889 302.361,252.722 304,256.5C 305.925,252.232 307.758,247.898 309.5,243.5C 309.833,244 310.167,244.5 310.5,245C 308.366,251.15 306.199,257.317 304,263.5C 302.867,265.211 301.367,265.711 299.5,265C 301.708,264.064 303.042,262.398 303.5,260C 301.072,254.646 299.072,249.146 297.5,243.5 Z"/></g>
<g><path style="opacity:1" fill="#3a4a69" d="M 276.5,242.5 C 279.39,242.278 282.057,242.945 284.5,244.5C 292.384,240.533 295.718,243.033 294.5,252C 294.167,254.5 293.833,257 293.5,259.5C 292.672,254.868 292.172,250.202 292,245.5C 289.408,244.018 287.075,244.352 285,246.5C 283.869,263.505 282.869,263.171 282,245.5C 279.408,244.018 277.075,244.352 275,246.5C 274.828,250.871 274.328,255.204 273.5,259.5C 272.167,254.167 272.167,248.833 273.5,243.5C 274.922,244.777 275.922,244.443 276.5,242.5 Z"/></g>
<g><path style="opacity:1" fill="#314060" d="M 207.5,242.5 C 211.849,241.577 215.183,242.91 217.5,246.5C 217.167,246.833 216.833,247.167 216.5,247.5C 214.408,244.848 211.742,244.014 208.5,245C 204.691,249.227 204.691,253.56 208.5,258C 212.21,259.224 214.877,258.058 216.5,254.5C 217.731,255.651 217.731,256.817 216.5,258C 206.35,261.672 202.183,258.172 204,247.5C 204.997,245.677 206.164,244.01 207.5,242.5 Z"/></g>
<g><path style="opacity:1" fill="#2e3e5f" d="M 223.5,242.5 C 231.161,241.495 234.495,244.828 233.5,252.5C 233.167,254.833 232.833,257.167 232.5,259.5C 231.676,257.252 230.676,257.086 229.5,259C 223.021,261.168 220.188,259.001 221,252.5C 223.984,249.9 227.484,248.9 231.5,249.5C 231.714,247.856 231.38,246.356 230.5,245C 226.795,243.777 223.795,244.61 221.5,247.5C 221.167,247.167 220.833,246.833 220.5,246.5C 221.524,245.148 222.524,243.815 223.5,242.5 Z"/></g>
<g><path style="opacity:1" fill="#2c3c5d" d="M 191.5,236.5 C 193.888,237.219 195.388,238.885 196,241.5C 198.167,247.167 200.333,252.833 202.5,258.5C 202.167,258.833 201.833,259.167 201.5,259.5C 200.248,257.999 199.248,256.332 198.5,254.5C 194.541,253.34 190.541,253.173 186.5,254C 185.74,255.441 185.074,256.941 184.5,258.5C 183.833,259.833 183.167,259.833 182.5,258.5C 185.508,251.138 188.508,243.804 191.5,236.5 Z"/></g>
<g><path style="opacity:1" fill="#eceef1" d="M 191.5,239.5 C 194.168,242.577 196.168,246.244 197.5,250.5C 194.167,251.833 190.833,251.833 187.5,250.5C 189.238,246.951 190.571,243.284 191.5,239.5 Z"/></g>
<g><path style="opacity:1" fill="#f1f2f4" d="M 224.5,251.5 C 226.833,251.5 229.167,251.5 231.5,251.5C 231.356,256.813 228.69,258.979 223.5,258C 222.144,255.586 222.478,253.419 224.5,251.5 Z"/></g>
<g><path style="opacity:1" fill="#bec4ce" d="M 268.5,247.5 C 269.451,248.919 269.784,250.585 269.5,252.5C 265.167,252.5 260.833,252.5 256.5,252.5C 260.298,251.517 264.298,251.183 268.5,251.5C 268.5,250.167 268.5,248.833 268.5,247.5 Z"/></g>
<g><path style="opacity:1" fill="#253557" d="M 249.5,236.5 C 250.656,243.989 250.822,251.655 250,259.5C 249.549,257.071 248.715,256.904 247.5,259C 237.902,260.389 234.402,256.222 237,246.5C 239.689,242.581 243.189,241.581 247.5,243.5C 247.783,244.289 248.283,244.956 249,245.5C 249.498,242.518 249.665,239.518 249.5,236.5 Z"/></g>
<g><path style="opacity:1" fill="#f1f2f4" d="M 240.5,244.5 C 247.327,243.825 250.16,246.825 249,253.5C 246.773,259.279 243.439,259.946 239,255.5C 238.112,251.598 238.612,247.931 240.5,244.5 Z"/></g>
<g><path style="opacity:1" fill="#2e3e5f" d="M 268.5,247.5 C 268.5,248.833 268.5,250.167 268.5,251.5C 264.298,251.183 260.298,251.517 256.5,252.5C 257.123,257.288 259.79,259.121 264.5,258C 265.618,256.926 266.618,255.76 267.5,254.5C 268.9,256.782 268.234,258.282 265.5,259C 255.902,260.389 252.402,256.222 255,246.5C 258.07,242.293 261.903,241.46 266.5,244C 267.823,244.816 268.489,245.983 268.5,247.5 Z"/></g>
<g><path style="opacity:1" fill="#e9ebee" d="M 258.5,244.5 C 263.709,243.396 266.709,245.396 267.5,250.5C 263.833,250.5 260.167,250.5 256.5,250.5C 256.253,248.142 256.919,246.142 258.5,244.5 Z"/></g>
</svg>
