<?xml version="1.0" encoding="UTF-8"?>
<!DOCTYPE svg PUBLIC "-//W3C//DTD SVG 1.1//EN" "http://www.w3.org/Graphics/SVG/1.1/DTD/svg11.dtd">
<svg xmlns="http://www.w3.org/2000/svg" version="1.1" width="536px" height="261px" style="shape-rendering:geometricPrecision; text-rendering:geometricPrecision; image-rendering:optimizeQuality; fill-rule:evenodd; clip-rule:evenodd" xmlns:xlink="http://www.w3.org/1999/xlink">
<g><path style="opacity:1" fill="#fdfefe" d="M -0.5,-0.5 C 178.167,-0.5 356.833,-0.5 535.5,-0.5C 535.5,86.5 535.5,173.5 535.5,260.5C 356.833,260.5 178.167,260.5 -0.5,260.5C -0.5,173.5 -0.5,86.5 -0.5,-0.5 Z"/></g>
<g><path style="opacity:1" fill="#dcfdfe" d="M 155.5,13.5 C 151.534,12.8379 147.534,12.5045 143.5,12.5C 133.657,11.3559 123.657,11.3559 113.5,12.5C 113.611,11.8826 113.944,11.3826 114.5,11C 126.167,10.3333 137.833,10.3333 149.5,11C 151.723,11.5662 153.723,12.3995 155.5,13.5 Z"/></g>
<g><path style="opacity:1" fill="#32b4d6" d="M 143.5,12.5 C 127.681,12.5695 112.014,14.2362 96.5,17.5C 102.026,15.3682 107.693,13.7016 113.5,12.5C 123.657,11.3559 133.657,11.3559 143.5,12.5 Z"/></g>
<g><path style="opacity:1" fill="#e8fbfb" d="M 196.5,64.5 C 197.51,67.3301 199.177,69.8301 201.5,72C 208.5,72.6667 215.5,72.6667 222.5,72C 223.044,71.2828 223.711,70.7828 224.5,70.5C 225.167,68.8333 225.833,67.1667 226.5,65.5C 228.95,67.6291 230.617,70.2957 231.5,73.5C 223.5,74.1667 215.5,74.8333 207.5,75.5C 204.95,75.8844 203.617,77.3844 203.5,80C 204.869,86.3942 206.536,92.5609 208.5,98.5C 208.5,100.167 208.5,101.833 208.5,103.5C 208.815,107.371 208.482,111.038 207.5,114.5C 206.827,102.13 204.327,90.1299 200,78.5C 199.292,77.6195 198.458,76.9528 197.5,76.5C 197.5,75.8333 197.167,75.5 196.5,75.5C 194.469,75.0276 192.802,74.0276 191.5,72.5C 192.5,71.5 193.5,70.5 194.5,69.5C 195.167,67.8333 195.833,66.1667 196.5,64.5 Z"/></g>
<g><path style="opacity:1" fill="#27b9e2" d="M 143.5,12.5 C 147.534,12.5045 151.534,12.8379 155.5,13.5C 192.909,21.4264 220.742,42.0931 239,75.5C 242.572,81.7085 245.072,88.3752 246.5,95.5C 245.351,95.7911 244.684,96.6244 244.5,98C 245.867,102.401 246.533,106.901 246.5,111.5C 244.551,103.14 242.051,94.8062 239,86.5C 236.978,81.7768 234.478,77.4434 231.5,73.5C 230.617,70.2957 228.95,67.6291 226.5,65.5C 212.436,44.7873 193.436,30.4539 169.5,22.5C 118.195,7.71639 75.5285,20.7164 41.5,61.5C 38.917,64.9974 36.5836,68.6641 34.5,72.5C 19.381,97.5421 14.7143,124.542 20.5,153.5C 18.974,151.55 17.974,149.217 17.5,146.5C 16.8155,150.446 16.8155,154.446 17.5,158.5C 6.34046,102.98 24.3405,59.4802 71.5,28C 79.4053,23.3778 87.7386,19.8778 96.5,17.5C 112.014,14.2362 127.681,12.5695 143.5,12.5 Z"/></g>
<g><path style="opacity:1" fill="#00bff6" d="M 194.5,76.5 C 194.271,78.433 193.438,80.0997 192,81.5C 191.517,80.552 191.351,79.552 191.5,78.5C 152.167,78.5 112.833,78.5 73.5,78.5C 73.5,80.8333 73.5,83.1667 73.5,85.5C 72.5,85.5 71.5,85.5 70.5,85.5C 70.8333,83.5 71.1667,81.5 71.5,79.5C 70.5,79.5 69.5,79.5 68.5,79.5C 68.7989,81.604 68.4656,83.604 67.5,85.5C 66.5713,84.3112 66.238,82.9778 66.5,81.5C 66.2965,79.6096 66.9632,78.1096 68.5,77C 110.499,76.5 152.499,76.3333 194.5,76.5 Z"/></g>
<g><path style="opacity:1" fill="#1daed1" d="M 69.5,75.5 C 111.833,75.5 154.167,75.5 196.5,75.5C 197.167,75.5 197.5,75.8333 197.5,76.5C 196.5,76.5 195.5,76.5 194.5,76.5C 152.499,76.3333 110.499,76.5 68.5,77C 66.9632,78.1096 66.2965,79.6096 66.5,81.5C 65.8333,82.5 65.1667,83.5 64.5,84.5C 64.5,83.8333 64.5,83.1667 64.5,82.5C 64.5647,78.8931 66.2314,76.5597 69.5,75.5 Z"/></g>
<g><path style="opacity:1" fill="#bbf3f7" d="M 74.5,72.5 C 75.5,72.5 76.5,72.5 77.5,72.5C 115.5,72.5 153.5,72.5 191.5,72.5C 192.802,74.0276 194.469,75.0276 196.5,75.5C 154.167,75.5 111.833,75.5 69.5,75.5C 71.5313,75.0276 73.1979,74.0276 74.5,72.5 Z"/></g>
<g><path style="opacity:1" fill="#1ba9d1" d="M 193.5,64.5 C 194.451,65.9187 194.784,67.5853 194.5,69.5C 193.5,70.5 192.5,71.5 191.5,72.5C 153.5,72.5 115.5,72.5 77.5,72.5C 114.664,71.6674 151.998,71.1674 189.5,71C 192.723,70.0619 194.056,67.8952 193.5,64.5 Z"/></g>
<g><path style="opacity:1" fill="#ebfcfa" d="M 41.5,61.5 C 42.4916,61.3284 43.1583,61.6618 43.5,62.5C 40.6225,65.9601 40.9559,69.1268 44.5,72C 51.5,72.6667 58.5,72.6667 65.5,72C 66.6364,70.8549 67.6364,69.6883 68.5,68.5C 69.7777,68.7822 70.7777,69.4489 71.5,70.5C 72.5,71.1667 73.5,71.8333 74.5,72.5C 73.1979,74.0276 71.5313,75.0276 69.5,75.5C 66.2314,76.5597 64.5647,78.8931 64.5,82.5C 63.8333,80.8333 63.1667,79.1667 62.5,77.5C 61.3172,76.4955 59.9839,75.6622 58.5,75C 50.754,74.2019 43.0873,74.3686 35.5,75.5C 34.596,74.791 34.2627,73.791 34.5,72.5C 36.5836,68.6641 38.917,64.9974 41.5,61.5 Z"/></g>
<g><path style="opacity:1" fill="#12bae8" d="M 168.5,23.5 C 190.278,31.1669 208.444,44.1669 223,62.5C 224.252,65.0135 224.752,67.6802 224.5,70.5C 223.711,70.7828 223.044,71.2828 222.5,72C 215.5,72.6667 208.5,72.6667 201.5,72C 199.177,69.8301 197.51,67.3301 196.5,64.5C 188.226,46.3929 175.559,32.2263 158.5,22C 161.878,21.9525 165.211,22.4525 168.5,23.5 Z"/></g>
<g><path style="opacity:1" fill="#05bbea" d="M 151.5,22.5 C 158.194,24.3472 164.194,27.5138 169.5,32C 180.066,41.0476 188.066,51.881 193.5,64.5C 194.056,67.8952 192.723,70.0619 189.5,71C 151.998,71.1674 114.664,71.6674 77.5,72.5C 76.5,72.5 75.5,72.5 74.5,72.5C 73.5,71.8333 72.5,71.1667 71.5,70.5C 71.3512,67.3926 71.8512,64.3926 73,61.5C 82.0487,44.6188 94.882,31.6188 111.5,22.5C 113.117,21.962 114.784,21.6287 116.5,21.5C 118.401,21.5668 120.234,21.2335 122,20.5C 122.5,20.8333 123,21.1667 123.5,21.5C 120.771,23.3671 121.104,24.3671 124.5,24.5C 124.343,23.1266 124.51,21.7932 125,20.5C 125.414,20.9574 125.914,21.2907 126.5,21.5C 129.225,19.5714 132.225,19.0714 135.5,20C 133.779,20.7393 132.113,21.5726 130.5,22.5C 134.599,23.1769 138.599,24.1769 142.5,25.5C 145.199,23.6532 148.199,22.6532 151.5,22.5 Z"/></g>
<g><path style="opacity:1" fill="#d1f9fc" d="M 169.5,22.5 C 193.436,30.4539 212.436,44.7873 226.5,65.5C 225.833,67.1667 225.167,68.8333 224.5,70.5C 224.752,67.6802 224.252,65.0135 223,62.5C 208.444,44.1669 190.278,31.1669 168.5,23.5C 169.167,23.5 169.5,23.1667 169.5,22.5 Z"/></g>
<g><path style="opacity:1" fill="#13bae8" d="M 108.5,22.5 C 89.6035,32.9362 76.2701,48.2695 68.5,68.5C 67.6364,69.6883 66.6364,70.8549 65.5,72C 58.5,72.6667 51.5,72.6667 44.5,72C 40.9559,69.1268 40.6225,65.9601 43.5,62.5C 59.9323,42.0985 80.9323,28.4318 106.5,21.5C 107.416,21.5427 108.083,21.8761 108.5,22.5 Z"/></g>
<g><path style="opacity:1" fill="#cef8fb" d="M 108.5,22.5 C 109.5,22.5 110.5,22.5 111.5,22.5C 94.882,31.6188 82.0487,44.6188 73,61.5C 71.8512,64.3926 71.3512,67.3926 71.5,70.5C 70.7777,69.4489 69.7777,68.7822 68.5,68.5C 76.2701,48.2695 89.6035,32.9362 108.5,22.5 Z"/></g>
<g><path style="opacity:1" fill="#e3fcfc" d="M 169.5,22.5 C 169.5,23.1667 169.167,23.5 168.5,23.5C 165.211,22.4525 161.878,21.9525 158.5,22C 175.559,32.2263 188.226,46.3929 196.5,64.5C 195.833,66.1667 195.167,67.8333 194.5,69.5C 194.784,67.5853 194.451,65.9187 193.5,64.5C 188.066,51.881 180.066,41.0476 169.5,32C 164.194,27.5138 158.194,24.3472 151.5,22.5C 145.298,19.5261 138.631,18.1927 131.5,18.5C 128.5,18.6667 125.5,18.8333 122.5,19C 120.148,19.2401 118.148,20.0735 116.5,21.5C 114.784,21.6287 113.117,21.962 111.5,22.5C 110.5,22.5 109.5,22.5 108.5,22.5C 108.083,21.8761 107.416,21.5427 106.5,21.5C 80.9323,28.4318 59.9323,42.0985 43.5,62.5C 43.1583,61.6618 42.4916,61.3284 41.5,61.5C 75.5285,20.7164 118.195,7.71639 169.5,22.5 Z"/></g>
<g><path style="opacity:1" fill="#1ab9e1" d="M 151.5,22.5 C 148.199,22.6532 145.199,23.6532 142.5,25.5C 138.599,24.1769 134.599,23.1769 130.5,22.5C 132.113,21.5726 133.779,20.7393 135.5,20C 132.225,19.0714 129.225,19.5714 126.5,21.5C 125.914,21.2907 125.414,20.9574 125,20.5C 124.51,21.7932 124.343,23.1266 124.5,24.5C 121.104,24.3671 120.771,23.3671 123.5,21.5C 123,21.1667 122.5,20.8333 122,20.5C 120.234,21.2335 118.401,21.5668 116.5,21.5C 118.148,20.0735 120.148,19.2401 122.5,19C 125.5,18.8333 128.5,18.6667 131.5,18.5C 138.631,18.1927 145.298,19.5261 151.5,22.5 Z"/></g>
<g><path style="opacity:1" fill="#55b9d6" d="M 412.5,85.5 C 413.5,85.5 414.5,85.5 415.5,85.5C 415.762,86.9778 415.429,88.3112 414.5,89.5C 412.889,88.6798 412.222,87.3464 412.5,85.5 Z"/></g>
<g><path style="opacity:1" fill="#e9fdfd" d="M 310.5,89.5 C 311.165,91.6979 311.832,94.0312 312.5,96.5C 313.901,94.7227 315.401,93.056 317,91.5C 319.405,92.2744 321.905,92.7744 324.5,93C 325.056,93.3826 325.389,93.8826 325.5,94.5C 315.643,93.6861 311.976,98.0195 314.5,107.5C 313.883,107.389 313.383,107.056 313,106.5C 312.667,103.5 312.333,100.5 312,97.5C 311.826,102.351 311.326,107.018 310.5,111.5C 310.5,104.167 310.5,96.8333 310.5,89.5 Z"/></g>
<g><path style="opacity:1" fill="#e8fcfb" d="M 365.5,94.5 C 364.325,94.281 363.325,94.6143 362.5,95.5C 361.772,99.302 360.606,102.969 359,106.5C 357.47,102.91 356.136,99.2432 355,95.5C 353.286,94.0745 351.953,94.4078 351,96.5C 350.156,100.211 349.156,103.877 348,107.5C 347.209,106.255 346.709,104.922 346.5,103.5C 348.358,100.229 349.692,96.5622 350.5,92.5C 353.144,92.8399 355.477,92.1733 357.5,90.5C 360.441,91.6131 363.108,92.9464 365.5,94.5 Z"/></g>
<g><path style="opacity:1" fill="#defafd" d="M 382.5,98.5 C 377.827,93.6253 372.827,93.2919 367.5,97.5C 367.286,95.8561 367.62,94.3561 368.5,93C 372.848,92.5845 377.181,92.7512 381.5,93.5C 381.629,95.2161 381.962,96.8828 382.5,98.5 Z"/></g>
<g><path style="opacity:1" fill="#12bbe8" d="M 48.5,166.5 C 48.3436,153.887 49.0102,141.72 50.5,130C 50.3333,125.5 50.1667,121 50,116.5C 48.7475,119.014 48.2475,121.68 48.5,124.5C 42.8333,124.5 37.1667,124.5 31.5,124.5C 30.5323,118.219 30.5323,112.053 31.5,106C 31.3699,104.941 30.8699,104.108 30,103.5C 28.9147,107.039 27.748,110.539 26.5,114C 27.2104,117.421 28.2104,120.754 29.5,124C 28.4719,127.222 27.3053,130.388 26,133.5C 25.6667,133.167 25.3333,132.833 25,132.5C 24.6667,127.5 24.3333,122.5 24,117.5C 23.6667,117.833 23.3333,118.167 23,118.5C 22.5003,126.827 22.3336,135.16 22.5,143.5C 23.8333,143.5 25.1667,143.5 26.5,143.5C 25.6114,145.91 24.9448,148.41 24.5,151C 24.6667,152.167 24.8333,153.333 25,154.5C 26.2616,149.375 27.4282,149.541 28.5,155C 27.1055,157.679 26.4388,160.512 26.5,163.5C 17.6035,137.304 18.9368,111.637 30.5,86.5C 30.3379,88.5273 30.5045,90.5273 31,92.5C 31.49,91.2068 31.6567,89.8734 31.5,88.5C 32.5,88.5 33.5,88.5 34.5,88.5C 34.1667,85.5 35.5,84.1667 38.5,84.5C 37.8085,88.2265 36.8085,91.8932 35.5,95.5C 34.4763,94.1468 33.143,93.4802 31.5,93.5C 31.5,94.5 31.5,95.5 31.5,96.5C 36.8437,96.334 42.1771,96.5006 47.5,97C 48.1466,98.6095 48.98,100.109 50,101.5C 51.4597,110.769 52.293,120.103 52.5,129.5C 52.6215,139.598 51.9548,149.432 50.5,159C 52.4889,163.395 52.8223,167.895 51.5,172.5C 50.4824,170.406 49.4824,168.406 48.5,166.5 Z"/></g>
<g><path style="opacity:1" fill="#44badb" d="M 310.5,89.5 C 310.5,96.8333 310.5,104.167 310.5,111.5C 308.097,111.607 306.264,110.607 305,108.5C 302.64,103.76 299.807,99.4263 296.5,95.5C 296.539,94.2438 296.039,93.2438 295,92.5C 294.5,98.8246 294.334,105.158 294.5,111.5C 293.5,111.5 292.5,111.5 291.5,111.5C 291.5,103.833 291.5,96.1667 291.5,88.5C 293.288,88.2148 294.955,88.5481 296.5,89.5C 300,95.1667 303.5,100.833 307,106.5C 307.5,100.175 307.666,93.8421 307.5,87.5C 309.179,87.2852 310.179,87.9519 310.5,89.5 Z"/></g>
<g><path style="opacity:1" fill="#25b0d8" d="M 333.5,90.5 C 335.176,91.1834 335.843,92.5168 335.5,94.5C 340.833,95.1667 340.833,95.8333 335.5,96.5C 335.334,100.514 335.501,104.514 336,108.5C 337.205,109.071 338.372,109.738 339.5,110.5C 337.647,111.76 335.814,111.76 334,110.5C 333.501,105.845 333.334,101.179 333.5,96.5C 329.5,95.8333 329.5,95.1667 333.5,94.5C 333.5,93.1667 333.5,91.8333 333.5,90.5 Z"/></g>
<g><path style="opacity:1" fill="#42b8d9" d="M 419.5,94.5 C 423.091,94.915 426.758,95.0816 430.5,95C 431.333,95.8333 432.167,96.6667 433,97.5C 433.499,102.155 433.666,106.821 433.5,111.5C 432.5,111.5 431.5,111.5 430.5,111.5C 430.666,106.821 430.499,102.155 430,97.5C 427.408,96.0183 425.075,96.3517 423,98.5C 422.501,102.821 422.334,107.154 422.5,111.5C 421.5,111.5 420.5,111.5 419.5,111.5C 419.5,105.833 419.5,100.167 419.5,94.5 Z"/></g>
<g><path style="opacity:1" fill="#d0f5f8" d="M 399.5,88.5 C 397.535,95.7605 396.868,103.427 397.5,111.5C 396.514,107.03 396.181,102.363 396.5,97.5C 394.097,97.448 391.764,97.7814 389.5,98.5C 390.79,97.0652 392.456,96.0652 394.5,95.5C 391.815,95.1854 389.149,94.8521 386.5,94.5C 385.511,99.9753 385.178,105.642 385.5,111.5C 384.347,105.681 384.181,99.6812 385,93.5C 388.169,92.7646 391.502,92.7646 395,93.5C 395.495,91.5273 395.662,89.5273 395.5,87.5C 397.099,87.2322 398.432,87.5655 399.5,88.5 Z"/></g>
<g><path style="opacity:1" fill="#2fafcf" d="M 386.5,94.5 C 389.149,94.8521 391.815,95.1854 394.5,95.5C 392.456,96.0652 390.79,97.0652 389.5,98.5C 388.57,102.4 388.237,106.4 388.5,110.5C 386.554,105.604 385.887,100.271 386.5,94.5 Z"/></g>
<g><path style="opacity:1" fill="#35b4d9" d="M 449.5,94.5 C 451.453,100.074 452.12,106.074 451.5,112.5C 451.084,114.752 449.751,116.252 447.5,117C 443.163,118.418 439.829,117.252 437.5,113.5C 438,113.167 438.5,112.833 439,112.5C 440.011,113.056 440.844,113.722 441.5,114.5C 447.011,116.481 449.511,114.481 449,108.5C 446.865,110.278 444.365,110.945 441.5,110.5C 435.278,105.422 434.945,99.9221 440.5,94C 443.377,93.2751 446.043,93.7751 448.5,95.5C 449.107,95.3764 449.44,95.0431 449.5,94.5 Z"/></g>
<g><path style="opacity:1" fill="#b2f2f9" d="M 449.5,94.5 C 450.209,93.596 451.209,93.2627 452.5,93.5C 452.823,100.022 452.49,106.355 451.5,112.5C 452.12,106.074 451.453,100.074 449.5,94.5 Z"/></g>
<g><path style="opacity:1" fill="#33b7da" d="M 399.5,88.5 C 399.334,92.5138 399.501,96.5138 400,100.5C 402.274,96.8482 405.441,95.0149 409.5,95C 407.291,97.3785 404.958,99.5452 402.5,101.5C 405.355,104.52 408.021,107.687 410.5,111C 409.5,111.667 408.5,111.667 407.5,111C 405,108.5 402.5,106 400,103.5C 400.053,106.675 399.22,109.342 397.5,111.5C 396.868,103.427 397.535,95.7605 399.5,88.5 Z"/></g>
<g><path style="opacity:1" fill="#07bbea" d="M 207.5,75.5 C 215.528,75.169 223.528,75.5023 231.5,76.5C 246.025,102.704 249.525,130.371 242,159.5C 239.586,168.324 236.086,176.657 231.5,184.5C 223.528,185.498 215.528,185.831 207.5,185.5C 206.391,185.443 205.391,185.11 204.5,184.5C 204.106,183.033 203.773,181.533 203.5,180C 204.958,173.984 206.625,168.151 208.5,162.5C 208.56,163.043 208.893,163.376 209.5,163.5C 212.014,144.558 213.181,125.558 213,106.5C 212.586,106.957 212.086,107.291 211.5,107.5C 210.277,104.003 210.277,100.503 211.5,97C 210.075,95.4853 209.075,95.9853 208.5,98.5C 206.536,92.5609 204.869,86.3942 203.5,80C 203.617,77.3844 204.95,75.8844 207.5,75.5 Z"/></g>
<g><path style="opacity:1" fill="#cefeff" d="M 296.5,95.5 C 295.833,100.833 295.167,106.167 294.5,111.5C 294.334,105.158 294.5,98.8246 295,92.5C 296.039,93.2438 296.539,94.2438 296.5,95.5 Z"/></g>
<g><path style="opacity:1" fill="#39b5d6" d="M 346.5,103.5 C 346.709,104.922 347.209,106.255 348,107.5C 349.156,103.877 350.156,100.211 351,96.5C 351.953,94.4078 353.286,94.0745 355,95.5C 356.136,99.2432 357.47,102.91 359,106.5C 360.606,102.969 361.772,99.302 362.5,95.5C 363.325,94.6143 364.325,94.281 365.5,94.5C 363.911,99.4368 362.411,104.437 361,109.5C 360.29,110.973 359.124,111.64 357.5,111.5C 356.691,106.906 355.191,102.573 353,98.5C 351.673,102.809 350.506,107.142 349.5,111.5C 348.167,111.5 346.833,111.5 345.5,111.5C 344.875,106.166 343.541,100.999 341.5,96C 342.01,94.1739 342.844,94.0072 344,95.5C 344.941,98.154 345.774,100.821 346.5,103.5 Z"/></g>
<g><path style="opacity:1" fill="#f0fbf9" d="M 441.5,96.5 C 448.182,95.8251 450.682,98.8251 449,105.5C 446.294,108.978 443.294,109.311 440,106.5C 439.037,102.851 439.537,99.518 441.5,96.5 Z"/></g>
<g><path style="opacity:1" fill="#68d9f1" d="M 386.5,94.5 C 385.887,100.271 386.554,105.604 388.5,110.5C 387.791,111.404 386.791,111.737 385.5,111.5C 385.178,105.642 385.511,99.9753 386.5,94.5 Z"/></g>
<g><path style="opacity:1" fill="#16b3e1" d="M 413.5,94.5 C 414.814,96.9151 415.481,99.7485 415.5,103C 415.167,105.833 414.833,108.667 414.5,111.5C 413.505,105.872 413.171,100.206 413.5,94.5 Z"/></g>
<g><path style="opacity:1" fill="#bff5f9" d="M 62.5,77.5 C 63.1667,79.1667 63.8333,80.8333 64.5,82.5C 64.5,83.1667 64.5,83.8333 64.5,84.5C 63.0762,86.5145 62.4095,88.8478 62.5,91.5C 60.0264,99.8944 58.3598,108.561 57.5,117.5C 56.8333,118.167 56.1667,118.833 55.5,119.5C 57.1998,105.374 59.5331,91.3741 62.5,77.5 Z"/></g>
<g><path style="opacity:1" fill="#1bbae4" d="M 62.5,91.5 C 61.654,97.1588 61.154,102.826 61,108.5C 62.1628,106.715 62.8295,104.715 63,102.5C 73.5768,104.463 84.4101,105.13 95.5,104.5C 95.238,103.022 95.5713,101.689 96.5,100.5C 97.6951,102.297 99.3618,103.297 101.5,103.5C 101.5,101.5 101.5,99.5 101.5,97.5C 104.5,97.5 107.5,97.5 110.5,97.5C 110.5,99.5 110.5,101.5 110.5,103.5C 109.209,103.263 108.209,103.596 107.5,104.5C 106.507,112.984 106.174,121.651 106.5,130.5C 106.33,131.822 106.663,132.989 107.5,134C 110.779,134.973 113.779,136.473 116.5,138.5C 117.167,138.167 117.833,137.833 118.5,137.5C 119.057,139.332 120.057,140.665 121.5,141.5C 121.5,142.833 121.5,144.167 121.5,145.5C 118.664,144.787 116.664,143.454 115.5,141.5C 115.672,140.508 115.338,139.842 114.5,139.5C 113.833,139.5 113.167,139.5 112.5,139.5C 111.511,144.975 111.178,150.642 111.5,156.5C 112.5,156.5 113.5,156.5 114.5,156.5C 112.735,157.461 110.735,157.795 108.5,157.5C 107.572,152.977 107.572,148.477 108.5,144C 108.088,139.637 107.088,139.47 105.5,143.5C 105.714,141.856 105.38,140.356 104.5,139C 100.974,138.31 97.6402,138.81 94.5,140.5C 94.4208,139.07 94.7542,137.736 95.5,136.5C 95.1924,135.692 94.6924,135.025 94,134.5C 91.1527,136.861 89.3193,139.861 88.5,143.5C 85.7802,141.889 82.7802,141.056 79.5,141C 81.3103,137.761 83.8103,136.928 87,138.5C 89.3756,135.955 91.8756,133.622 94.5,131.5C 96.2705,132.035 96.6039,132.869 95.5,134C 99.3,134.562 99.9666,133.562 97.5,131C 99.5,130 101.5,129 103.5,128C 102.342,126.991 101.675,125.658 101.5,124C 102.267,119.202 102.267,114.368 101.5,109.5C 106.613,110.573 106.78,109.573 102,106.5C 101.147,108.125 100.147,108.458 99,107.5C 97.8118,108.563 97.3118,109.897 97.5,111.5C 98.5,111.5 99.5,111.5 100.5,111.5C 100.666,116.511 100.499,121.511 100,126.5C 98.324,127.061 96.9906,128.061 96,129.5C 95.5172,128.552 95.3505,127.552 95.5,126.5C 96.5,126.5 97.5,126.5 98.5,126.5C 98.5,121.833 98.5,117.167 98.5,112.5C 97.1667,112.5 95.8333,112.5 94.5,112.5C 94.5,116.833 94.5,121.167 94.5,125.5C 90.4758,126.528 88.4758,129.195 88.5,133.5C 87.5,133.5 86.5,133.5 85.5,133.5C 85.9539,131.259 85.9539,129.259 85.5,127.5C 86.4025,124.609 86.7359,121.609 86.5,118.5C 85.5,118.5 84.5,118.5 83.5,118.5C 84.8845,117.199 86.3845,117.199 88,118.5C 88.3333,120.833 88.6667,123.167 89,125.5C 89.9147,124.672 90.5814,123.672 91,122.5C 91.3333,122.833 91.6667,123.167 92,123.5C 92.3263,120.015 91.8263,116.682 90.5,113.5C 91.675,113.719 92.675,113.386 93.5,112.5C 92.2713,111.719 90.938,111.219 89.5,111C 92.5443,110.641 92.8776,109.974 90.5,109C 81.5062,108.5 72.5062,108.334 63.5,108.5C 62.9193,120.157 62.2526,131.824 61.5,143.5C 60.6676,132.849 60.1676,122.182 60,111.5C 58.6254,122.111 58.1254,132.778 58.5,143.5C 57.507,135.016 57.1736,126.349 57.5,117.5C 58.3598,108.561 60.0264,99.8944 62.5,91.5 Z"/></g>
<g><path style="opacity:1" fill="#d3f8fa" d="M 208.5,103.5 C 210.343,111.256 211.343,119.256 211.5,127.5C 210.92,139.213 209.92,150.88 208.5,162.5C 206.625,168.151 204.958,173.984 203.5,180C 203.773,181.533 204.106,183.033 204.5,184.5C 202.883,183.411 202.05,181.744 202,179.5C 201.768,180.737 201.268,181.737 200.5,182.5C 207.129,160.288 209.462,137.621 207.5,114.5C 208.482,111.038 208.815,107.371 208.5,103.5 Z"/></g>
<g><path style="opacity:1" fill="#37b4d6" d="M 325.5,94.5 C 328.184,96.8707 329.518,99.8707 329.5,103.5C 325.167,103.5 320.833,103.5 316.5,103.5C 318.48,110.167 322.147,111.167 327.5,106.5C 328.471,107.962 328.138,109.295 326.5,110.5C 321.561,112.566 317.561,111.566 314.5,107.5C 311.976,98.0195 315.643,93.6861 325.5,94.5 Z"/></g>
<g><path style="opacity:1" fill="#c7feff" d="M 325.5,98.5 C 326.404,99.209 326.737,100.209 326.5,101.5C 323.102,101.82 319.768,101.487 316.5,100.5C 316.624,99.8933 316.957,99.56 317.5,99.5C 318.622,100.156 319.955,100.489 321.5,100.5C 323.333,100.415 324.666,99.7479 325.5,98.5 Z"/></g>
<g><path style="opacity:1" fill="#fff3e7" d="M 325.5,98.5 C 324.666,99.7479 323.333,100.415 321.5,100.5C 319.955,100.489 318.622,100.156 317.5,99.5C 320.054,98.612 322.721,98.2786 325.5,98.5 Z"/></g>
<g><path style="opacity:1" fill="#d5fefe" d="M 325.5,98.5 C 322.721,98.2786 320.054,98.612 317.5,99.5C 317.685,97.1104 319.018,96.1104 321.5,96.5C 323.355,96.3402 324.688,97.0069 325.5,98.5 Z"/></g>
<g><path style="opacity:1" fill="#36b5d8" d="M 382.5,98.5 C 383.954,108.21 379.954,112.377 370.5,111C 366.541,107.174 365.541,102.674 367.5,97.5C 372.827,93.2919 377.827,93.6253 382.5,98.5 Z"/></g>
<g><path style="opacity:1" fill="#f4fcfb" d="M 371.5,96.5 C 379.003,95.8526 381.503,99.186 379,106.5C 377.695,109.306 375.528,110.14 372.5,109C 371.333,108.5 370.5,107.667 370,106.5C 369.037,102.851 369.537,99.518 371.5,96.5 Z"/></g>
<g><path style="opacity:1" fill="#defbf6" d="M 441.5,114.5 C 442.873,114.657 444.207,114.49 445.5,114C 443.676,113.34 442.343,112.173 441.5,110.5C 444.365,110.945 446.865,110.278 449,108.5C 449.511,114.481 447.011,116.481 441.5,114.5 Z"/></g>
<g><path style="opacity:1" fill="#08c3f9" d="M 246.5,95.5 C 247.412,101.862 248.579,108.196 250,114.5C 250.17,125.008 250.67,135.341 251.5,145.5C 251.5,146.167 251.5,146.833 251.5,147.5C 251.5,148.167 251.167,148.5 250.5,148.5C 248.76,137.345 247.927,126.011 248,114.5C 247.617,113.944 247.117,113.611 246.5,113.5C 246.5,112.833 246.5,112.167 246.5,111.5C 246.533,106.901 245.867,102.401 244.5,98C 244.684,96.6244 245.351,95.7911 246.5,95.5 Z"/></g>
<g><path style="opacity:1" fill="#e6fefe" d="M 250.5,107.5 C 251.117,107.611 251.617,107.944 252,108.5C 252.368,115.767 253.201,122.934 254.5,130C 254.176,136.077 253.176,141.911 251.5,147.5C 251.5,146.833 251.5,146.167 251.5,145.5C 252.83,132.788 252.497,120.121 250.5,107.5 Z"/></g>
<g><path style="opacity:1" fill="#3db5d5" d="M 246.5,95.5 C 248.128,99.3194 249.461,103.319 250.5,107.5C 252.497,120.121 252.83,132.788 251.5,145.5C 250.67,135.341 250.17,125.008 250,114.5C 248.579,108.196 247.412,101.862 246.5,95.5 Z"/></g>
<g><path style="opacity:1" fill="#2db8df" d="M 301.5,121.5 C 303.467,121.261 305.301,121.594 307,122.5C 312.016,135.57 317.183,148.57 322.5,161.5C 321.311,162.429 319.978,162.762 318.5,162.5C 317.301,158.901 316.301,155.235 315.5,151.5C 308.137,151.169 300.803,151.503 293.5,152.5C 292.167,155.5 290.833,158.5 289.5,161.5C 288.675,162.386 287.675,162.719 286.5,162.5C 291.306,148.746 296.306,135.079 301.5,121.5 Z"/></g>
<g><path style="opacity:1" fill="#02bdf1" d="M 48.5,171.5 C 47.1667,169.833 47.1667,168.167 48.5,166.5C 49.4824,168.406 50.4824,170.406 51.5,172.5C 52.8223,167.895 52.4889,163.395 50.5,159C 51.9548,149.432 52.6215,139.598 52.5,129.5C 52.293,120.103 51.4597,110.769 50,101.5C 48.98,100.109 48.1466,98.6095 47.5,97C 42.1771,96.5006 36.8437,96.334 31.5,96.5C 31.5,95.5 31.5,94.5 31.5,93.5C 33.143,93.4802 34.4763,94.1468 35.5,95.5C 36.8085,91.8932 37.8085,88.2265 38.5,84.5C 35.5,84.1667 34.1667,85.5 34.5,88.5C 33.5,88.5 32.5,88.5 31.5,88.5C 31.6567,89.8734 31.49,91.2068 31,92.5C 30.5045,90.5273 30.3379,88.5273 30.5,86.5C 30.5569,85.391 30.8902,84.391 31.5,83.5C 33.284,82.4262 34.4506,80.7596 35,78.5C 37.5946,79.2309 39.2613,80.8975 40,83.5C 41.353,82.3147 42.5197,80.9814 43.5,79.5C 43.8333,79.6667 44.1667,79.8333 44.5,80C 41.6532,84.7186 40.3199,89.8853 40.5,95.5C 44.1569,95.8799 45.1569,94.5466 43.5,91.5C 43.5565,90.263 44.0565,89.263 45,88.5C 45.8614,91.0507 47.028,93.384 48.5,95.5C 49.35,93.0962 50.35,90.7628 51.5,88.5C 51.8333,89.1667 52.1667,89.8333 52.5,90.5C 51.7308,92.974 51.0641,95.474 50.5,98C 52.6685,102.184 53.8352,106.684 54,111.5C 54.6667,124.5 54.6667,137.5 54,150.5C 53.3076,151.025 52.8076,151.692 52.5,152.5C 53.1662,153.831 53.1662,155.331 52.5,157C 52.8333,157.833 53.1667,158.667 53.5,159.5C 54.2432,158.092 55.0766,156.759 56,155.5C 56.6667,157.833 56.6667,160.167 56,162.5C 54.8842,165.561 54.0508,168.728 53.5,172C 54.6141,173.449 55.6141,174.783 56.5,176C 55.5494,176.718 55.3828,177.551 56,178.5C 57.3333,179.167 58.6667,179.833 60,180.5C 60.7494,181.635 60.5827,182.635 59.5,183.5C 58.6143,182.675 58.281,181.675 58.5,180.5C 54.4309,180.996 50.4309,180.996 46.5,180.5C 45.8333,180.833 45.1667,181.167 44.5,181.5C 46.1128,182.427 47.7795,183.261 49.5,184C 39.6927,186.489 38.026,184.155 44.5,177C 46.3914,176.691 47.7248,177.525 48.5,179.5C 49.7388,177.993 49.4054,176.826 47.5,176C 49.5785,174.73 49.9118,173.23 48.5,171.5 Z"/></g>
<g><path style="opacity:1" fill="#2ab6dc" d="M 457.5,132.5 C 463.52,131.22 468.353,132.887 472,137.5C 472.833,135.333 474.333,133.833 476.5,133C 479.833,132.333 483.167,132.333 486.5,133C 488.464,134.451 489.797,136.284 490.5,138.5C 490.831,146.528 490.498,154.528 489.5,162.5C 488.833,155.011 488.167,147.678 487.5,140.5C 487.249,138.83 486.582,137.33 485.5,136C 481.091,134.738 477.257,135.572 474,138.5C 472.562,146.723 472.062,155.057 472.5,163.5C 471.5,163.5 470.5,163.5 469.5,163.5C 469.941,154.724 469.441,146.058 468,137.5C 464.067,134.901 460.067,134.901 456,137.5C 455.209,138.745 454.709,140.078 454.5,141.5C 453.509,148.313 453.175,155.313 453.5,162.5C 452.5,162.5 451.5,162.5 450.5,162.5C 450.5,152.833 450.5,143.167 450.5,133.5C 451.5,133.5 452.5,133.5 453.5,133.5C 453.351,134.552 453.517,135.552 454,136.5C 455.376,135.295 456.542,133.962 457.5,132.5 Z"/></g>
<g><path style="opacity:1" fill="#f8fcfb" d="M 310.5,141.5 C 310.509,146.809 307.842,148.809 302.5,147.5C 300.5,147.333 298.5,147.167 296.5,147C 297.38,145.644 297.714,144.144 297.5,142.5C 299.653,136.854 301.82,131.188 304,125.5C 306.653,130.623 308.82,135.956 310.5,141.5 Z"/></g>
<g><path style="opacity:1" fill="#33b7db" d="M 444.5,148.5 C 436.5,148.5 428.5,148.5 420.5,148.5C 420.232,150.099 420.566,151.432 421.5,152.5C 422.042,158.204 425.208,160.871 431,160.5C 435.466,160.852 438.633,159.019 440.5,155C 441.448,154.517 442.448,154.351 443.5,154.5C 443.21,158.961 440.877,161.795 436.5,163C 427.696,165.679 421.529,162.846 418,154.5C 417.333,149.833 417.333,145.167 418,140.5C 422.836,132.479 429.669,130.313 438.5,134C 442.934,137.798 444.934,142.631 444.5,148.5 Z"/></g>
<g><path style="opacity:1" fill="#f6fcfa" d="M 440.5,145.5 C 433.745,146.123 427.412,145.456 421.5,143.5C 422.042,137.796 425.208,135.129 431,135.5C 437.413,135.747 440.58,139.08 440.5,145.5 Z"/></g>
<g><path style="opacity:1" fill="#d0f9fd" d="M 457.5,132.5 C 456.542,133.962 455.376,135.295 454,136.5C 453.517,135.552 453.351,134.552 453.5,133.5C 452.5,133.5 451.5,133.5 450.5,133.5C 450.5,143.167 450.5,152.833 450.5,162.5C 451.5,162.5 452.5,162.5 453.5,162.5C 453.175,155.313 453.509,148.313 454.5,141.5C 454.5,148.833 454.5,156.167 454.5,163.5C 452.833,163.5 451.167,163.5 449.5,163.5C 449.5,153.167 449.5,142.833 449.5,132.5C 452.167,132.5 454.833,132.5 457.5,132.5 Z"/></g>
<g><path style="opacity:1" fill="#2cb7da" d="M 208.5,162.5 C 209.92,150.88 210.92,139.213 211.5,127.5C 211.343,119.256 210.343,111.256 208.5,103.5C 208.5,101.833 208.5,100.167 208.5,98.5C 209.075,95.9853 210.075,95.4853 211.5,97C 210.277,100.503 210.277,104.003 211.5,107.5C 212.086,107.291 212.586,106.957 213,106.5C 213.181,125.558 212.014,144.558 209.5,163.5C 208.893,163.376 208.56,163.043 208.5,162.5 Z"/></g>
<g><path style="opacity:1" fill="#8ceefe" d="M 421.5,143.5 C 427.412,145.456 433.745,146.123 440.5,145.5C 434.021,146.491 427.354,146.824 420.5,146.5C 420.263,145.209 420.596,144.209 421.5,143.5 Z"/></g>
<g><path style="opacity:1" fill="#65cce5" d="M 490.5,138.5 C 491.493,146.65 491.826,154.983 491.5,163.5C 490.167,163.5 488.833,163.5 487.5,163.5C 487.5,155.833 487.5,148.167 487.5,140.5C 488.167,147.678 488.833,155.011 489.5,162.5C 490.498,154.528 490.831,146.528 490.5,138.5 Z"/></g>
<g><path style="opacity:1" fill="#31b2d4" d="M 246.5,113.5 C 247.117,113.611 247.617,113.944 248,114.5C 247.927,126.011 248.76,137.345 250.5,148.5C 250.023,155.572 248.357,162.239 245.5,168.5C 246.321,165.446 246.321,162.446 245.5,159.5C 244.989,161.884 243.989,163.884 242.5,165.5C 247.267,148.437 248.6,131.103 246.5,113.5 Z"/></g>
<g><path style="opacity:1" fill="#d1fdfe" d="M 310.5,141.5 C 311.481,143.396 312.481,145.396 313.5,147.5C 307.537,148.496 301.537,148.829 295.5,148.5C 295.595,146.214 296.262,144.214 297.5,142.5C 297.714,144.144 297.38,145.644 296.5,147C 298.5,147.167 300.5,147.333 302.5,147.5C 307.842,148.809 310.509,146.809 310.5,141.5 Z"/></g>
<g><path style="opacity:1" fill="#2fb4da" d="M 361.5,132.5 C 375.331,130.666 380.998,136.666 378.5,150.5C 378.167,154.833 377.833,159.167 377.5,163.5C 376.029,162.619 375.196,161.286 375,159.5C 373.786,161.049 372.286,162.215 370.5,163C 366.833,163.667 363.167,163.667 359.5,163C 352.345,155.451 353.678,149.784 363.5,146C 367.491,145.358 371.491,144.858 375.5,144.5C 375.206,135.679 370.873,132.846 362.5,136C 360.393,137.264 359.393,139.097 359.5,141.5C 358.167,141.5 356.833,141.5 355.5,141.5C 355.932,137.41 357.932,134.41 361.5,132.5 Z"/></g>
<g><path style="opacity:1" fill="#a4f6fd" d="M 444.5,148.5 C 437.018,149.492 429.352,149.825 421.5,149.5C 421.5,150.5 421.5,151.5 421.5,152.5C 420.566,151.432 420.232,150.099 420.5,148.5C 428.5,148.5 436.5,148.5 444.5,148.5 Z"/></g>
<g><path style="opacity:1" fill="#c3f4f9" d="M 231.5,73.5 C 234.478,77.4434 236.978,81.7768 239,86.5C 242.051,94.8062 244.551,103.14 246.5,111.5C 246.5,112.167 246.5,112.833 246.5,113.5C 248.6,131.103 247.267,148.437 242.5,165.5C 239.903,173.36 236.237,180.693 231.5,187.5C 223.5,186.833 215.5,186.167 207.5,185.5C 215.528,185.831 223.528,185.498 231.5,184.5C 236.086,176.657 239.586,168.324 242,159.5C 249.525,130.371 246.025,102.704 231.5,76.5C 223.528,75.5023 215.528,75.169 207.5,75.5C 215.5,74.8333 223.5,74.1667 231.5,73.5 Z"/></g>
<g><path style="opacity:1" fill="#f5fcfb" d="M 367.5,147.5 C 370.167,147.5 372.833,147.5 375.5,147.5C 375.98,158.421 370.98,162.421 360.5,159.5C 357.632,156.005 357.965,152.838 361.5,150C 363.611,149.155 365.611,148.322 367.5,147.5 Z"/></g>
<g><path style="opacity:1" fill="#02bbeb" d="M 48.5,166.5 C 47.1667,168.167 47.1667,169.833 48.5,171.5C 48.1961,172.15 47.8627,172.817 47.5,173.5C 42.1977,174.663 36.8643,174.829 31.5,174C 30.729,171.56 30.5624,169.06 31,166.5C 30.2904,167.973 29.1238,168.64 27.5,168.5C 26.962,166.883 26.6287,165.216 26.5,163.5C 26.4388,160.512 27.1055,157.679 28.5,155C 27.4282,149.541 26.2616,149.375 25,154.5C 24.8333,153.333 24.6667,152.167 24.5,151C 24.9448,148.41 25.6114,145.91 26.5,143.5C 25.1667,143.5 23.8333,143.5 22.5,143.5C 22.3336,135.16 22.5003,126.827 23,118.5C 23.3333,118.167 23.6667,117.833 24,117.5C 24.3333,122.5 24.6667,127.5 25,132.5C 25.3333,132.833 25.6667,133.167 26,133.5C 27.3053,130.388 28.4719,127.222 29.5,124C 28.2104,120.754 27.2104,117.421 26.5,114C 27.748,110.539 28.9147,107.039 30,103.5C 30.8699,104.108 31.3699,104.941 31.5,106C 30.5323,112.053 30.5323,118.219 31.5,124.5C 37.1667,124.5 42.8333,124.5 48.5,124.5C 48.2475,121.68 48.7475,119.014 50,116.5C 50.1667,121 50.3333,125.5 50.5,130C 49.0102,141.72 48.3436,153.887 48.5,166.5 Z"/></g>
<g><path style="opacity:1" fill="#cbf8fb" d="M 57.5,117.5 C 57.1736,126.349 57.507,135.016 58.5,143.5C 58.4658,155.536 60.4658,167.203 64.5,178.5C 63.8333,179.833 63.1667,181.167 62.5,182.5C 60.146,170.227 57.9793,157.893 56,145.5C 55.5002,136.84 55.3336,128.173 55.5,119.5C 56.1667,118.833 56.8333,118.167 57.5,117.5 Z"/></g>
<g><path style="opacity:1" fill="#32b9df" d="M 410.5,121.5 C 411.149,135.541 410.482,149.208 408.5,162.5C 407.732,161.737 407.232,160.737 407,159.5C 402.521,163.243 397.354,164.409 391.5,163C 384.502,156.47 382.668,148.636 386,139.5C 389.655,132.93 395.155,130.763 402.5,133C 404.286,133.785 405.786,134.951 407,136.5C 407.499,131.511 407.666,126.511 407.5,121.5C 408.5,121.5 409.5,121.5 410.5,121.5 Z"/></g>
<g><path style="opacity:1" fill="#f8fcfa" d="M 393.5,135.5 C 399.694,133.993 404.194,135.993 407,141.5C 407.667,145.833 407.667,150.167 407,154.5C 404.185,160.169 399.685,162.002 393.5,160C 391.652,158.482 390.152,156.649 389,154.5C 388.333,150.167 388.333,145.833 389,141.5C 390.332,139.34 391.832,137.34 393.5,135.5 Z"/></g>
<g><path style="opacity:1" fill="#7edef7" d="M 410.5,121.5 C 411.496,135.323 411.829,149.323 411.5,163.5C 410.209,163.737 409.209,163.404 408.5,162.5C 410.482,149.208 411.149,135.541 410.5,121.5 Z"/></g>
<g><path style="opacity:1" fill="#10bbe9" d="M 194.5,76.5 C 195.5,76.5 196.5,76.5 197.5,76.5C 198.458,76.9528 199.292,77.6195 200,78.5C 204.327,90.1299 206.827,102.13 207.5,114.5C 209.462,137.621 207.129,160.288 200.5,182.5C 199.684,184.144 198.35,185.31 196.5,186C 154.167,186.667 111.833,186.667 69.5,186C 66.722,184.287 65.0554,181.787 64.5,178.5C 60.4658,167.203 58.4658,155.536 58.5,143.5C 58.1254,132.778 58.6254,122.111 60,111.5C 60.1676,122.182 60.6676,132.849 61.5,143.5C 62.2526,131.824 62.9193,120.157 63.5,108.5C 72.5062,108.334 81.5062,108.5 90.5,109C 92.8776,109.974 92.5443,110.641 89.5,111C 90.938,111.219 92.2713,111.719 93.5,112.5C 92.675,113.386 91.675,113.719 90.5,113.5C 91.8263,116.682 92.3263,120.015 92,123.5C 91.6667,123.167 91.3333,122.833 91,122.5C 90.5814,123.672 89.9147,124.672 89,125.5C 88.6667,123.167 88.3333,120.833 88,118.5C 86.3845,117.199 84.8845,117.199 83.5,118.5C 82.3659,120.966 82.1993,123.633 83,126.5C 83.6708,127.252 84.5041,127.586 85.5,127.5C 85.9539,129.259 85.9539,131.259 85.5,133.5C 86.5,133.5 87.5,133.5 88.5,133.5C 88.4758,129.195 90.4758,126.528 94.5,125.5C 94.5,126.167 94.8333,126.5 95.5,126.5C 95.3505,127.552 95.5172,128.552 96,129.5C 96.9906,128.061 98.324,127.061 100,126.5C 100.499,121.511 100.666,116.511 100.5,111.5C 99.5,111.5 98.5,111.5 97.5,111.5C 97.3118,109.897 97.8118,108.563 99,107.5C 100.147,108.458 101.147,108.125 102,106.5C 106.78,109.573 106.613,110.573 101.5,109.5C 102.267,114.368 102.267,119.202 101.5,124C 101.675,125.658 102.342,126.991 103.5,128C 101.5,129 99.5,130 97.5,131C 99.9666,133.562 99.3,134.562 95.5,134C 96.6039,132.869 96.2705,132.035 94.5,131.5C 91.8756,133.622 89.3756,135.955 87,138.5C 83.8103,136.928 81.3103,137.761 79.5,141C 82.7802,141.056 85.7802,141.889 88.5,143.5C 89.3193,139.861 91.1527,136.861 94,134.5C 94.6924,135.025 95.1924,135.692 95.5,136.5C 94.7542,137.736 94.4208,139.07 94.5,140.5C 89.1403,151.102 92.4737,156.435 104.5,156.5C 104.5,155.167 104.5,153.833 104.5,152.5C 99.9168,153.657 97.2501,151.99 96.5,147.5C 96.5288,145.971 97.1955,144.804 98.5,144C 100.81,143.503 103.143,143.337 105.5,143.5C 107.088,139.47 108.088,139.637 108.5,144C 107.572,148.477 107.572,152.977 108.5,157.5C 110.735,157.795 112.735,157.461 114.5,156.5C 115.487,151.695 115.821,146.695 115.5,141.5C 116.664,143.454 118.664,144.787 121.5,145.5C 123.616,147.729 125.949,149.729 128.5,151.5C 126.257,152.474 123.924,152.808 121.5,152.5C 121.5,153.833 121.5,155.167 121.5,156.5C 125.839,157.154 129.673,156.154 133,153.5C 133.979,148.31 131.813,145.644 126.5,145.5C 126.5,144.5 126.5,143.5 126.5,142.5C 128.5,142.5 130.5,142.5 132.5,142.5C 132.412,139.691 130.912,138.358 128,138.5C 125.489,138.84 123.322,139.84 121.5,141.5C 120.057,140.665 119.057,139.332 118.5,137.5C 117.833,137.833 117.167,138.167 116.5,138.5C 113.779,136.473 110.779,134.973 107.5,134C 106.663,132.989 106.33,131.822 106.5,130.5C 108.01,131.728 109.51,131.728 111,130.5C 111.5,121.84 111.666,113.173 111.5,104.5C 110.167,104.5 108.833,104.5 107.5,104.5C 108.209,103.596 109.209,103.263 110.5,103.5C 110.5,101.5 110.5,99.5 110.5,97.5C 107.5,97.5 104.5,97.5 101.5,97.5C 101.5,99.5 101.5,101.5 101.5,103.5C 99.3618,103.297 97.6951,102.297 96.5,100.5C 95.5713,101.689 95.238,103.022 95.5,104.5C 84.4101,105.13 73.5768,104.463 63,102.5C 62.8295,104.715 62.1628,106.715 61,108.5C 61.154,102.826 61.654,97.1588 62.5,91.5C 62.4095,88.8478 63.0762,86.5145 64.5,84.5C 65.1667,83.5 65.8333,82.5 66.5,81.5C 66.238,82.9778 66.5713,84.3112 67.5,85.5C 68.4656,83.604 68.7989,81.604 68.5,79.5C 69.5,79.5 70.5,79.5 71.5,79.5C 71.1667,81.5 70.8333,83.5 70.5,85.5C 71.5,85.5 72.5,85.5 73.5,85.5C 73.5,83.1667 73.5,80.8333 73.5,78.5C 112.833,78.5 152.167,78.5 191.5,78.5C 191.351,79.552 191.517,80.552 192,81.5C 193.438,80.0997 194.271,78.433 194.5,76.5 Z"/></g>
<g><path style="opacity:1" fill="#effbfa" d="M 105.5,143.5 C 103.143,143.337 100.81,143.503 98.5,144C 97.1955,144.804 96.5288,145.971 96.5,147.5C 97.2501,151.99 99.9168,153.657 104.5,152.5C 104.5,153.833 104.5,155.167 104.5,156.5C 92.4737,156.435 89.1403,151.102 94.5,140.5C 97.6402,138.81 100.974,138.31 104.5,139C 105.38,140.356 105.714,141.856 105.5,143.5 Z"/></g>
<g><path style="opacity:1" fill="#e6fafb" d="M 143.5,138.5 C 145.857,138.337 148.19,138.503 150.5,139C 151.38,140.356 151.714,141.856 151.5,143.5C 149.143,143.337 146.81,143.503 144.5,144C 141.9,146.459 141.9,148.959 144.5,151.5C 146.5,152.833 148.5,152.833 150.5,151.5C 151.452,153.045 151.785,154.712 151.5,156.5C 142.002,157.827 137.502,153.827 138,144.5C 139.36,141.977 141.193,139.977 143.5,138.5 Z"/></g>
<g><path style="opacity:1" fill="#defefe" d="M 112.5,139.5 C 113.167,160.833 113.833,160.833 114.5,139.5C 115.338,139.842 115.672,140.508 115.5,141.5C 115.821,146.695 115.487,151.695 114.5,156.5C 113.5,156.5 112.5,156.5 111.5,156.5C 111.178,150.642 111.511,144.975 112.5,139.5 Z"/></g>
<g><path style="opacity:1" fill="#ecfbfb" d="M 159.5,140.5 C 162.833,140.5 166.167,140.5 169.5,140.5C 171.411,140.574 172.578,141.574 173,143.5C 174.652,154.514 170.152,158.347 159.5,155C 154.189,150.045 154.189,145.212 159.5,140.5 Z"/></g>
<g><path style="opacity:1" fill="#2bbbe3" d="M 161.5,143.5 C 168.716,142.688 170.716,145.355 167.5,151.5C 160.819,152.796 158.819,150.129 161.5,143.5 Z"/></g>
<g><path style="opacity:1" fill="#fef7ec" d="M 112.5,139.5 C 113.167,139.5 113.833,139.5 114.5,139.5C 113.833,160.833 113.167,160.833 112.5,139.5 Z"/></g>
<g><path style="opacity:1" fill="#d5fcfe" d="M 169.5,140.5 C 166.167,140.5 162.833,140.5 159.5,140.5C 162.868,137.954 166.201,137.954 169.5,140.5 Z"/></g>
<g><path style="opacity:1" fill="#eafcf9" d="M 121.5,145.5 C 121.5,144.167 121.5,142.833 121.5,141.5C 123.322,139.84 125.489,138.84 128,138.5C 130.912,138.358 132.412,139.691 132.5,142.5C 130.5,142.5 128.5,142.5 126.5,142.5C 126.5,143.5 126.5,144.5 126.5,145.5C 131.813,145.644 133.979,148.31 133,153.5C 129.673,156.154 125.839,157.154 121.5,156.5C 121.5,155.167 121.5,153.833 121.5,152.5C 123.924,152.808 126.257,152.474 128.5,151.5C 125.949,149.729 123.616,147.729 121.5,145.5 Z"/></g>
<g><path style="opacity:1" fill="#e3fafb" d="M 154.5,104.5 C 156.167,104.5 157.833,104.5 159.5,104.5C 159.666,113.173 159.5,121.84 159,130.5C 157.667,131.833 156.333,131.833 155,130.5C 154.5,121.84 154.334,113.173 154.5,104.5 Z"/></g>
<g><path style="opacity:1" fill="#d7f9fb" d="M 83.5,118.5 C 84.5,118.5 85.5,118.5 86.5,118.5C 86.7359,121.609 86.4025,124.609 85.5,127.5C 84.5041,127.586 83.6708,127.252 83,126.5C 82.1993,123.633 82.3659,120.966 83.5,118.5 Z"/></g>
<g><path style="opacity:1" fill="#e4f9f8" d="M 179.5,118.5 C 182.488,118.155 183.821,119.488 183.5,122.5C 183.597,125.911 181.93,127.245 178.5,126.5C 178.279,123.721 178.612,121.054 179.5,118.5 Z"/></g>
<g><path style="opacity:1" fill="#e9fdfd" d="M 95.5,126.5 C 94.8333,126.5 94.5,126.167 94.5,125.5C 94.5,121.167 94.5,116.833 94.5,112.5C 95.8333,112.5 97.1667,112.5 98.5,112.5C 98.5,117.167 98.5,121.833 98.5,126.5C 97.5,126.5 96.5,126.5 95.5,126.5 Z"/></g>
<g><path style="opacity:1" fill="#ebf8f6" d="M 170.5,113.5 C 171.833,117.5 171.833,121.5 170.5,125.5C 169.206,123.952 168.539,121.952 168.5,119.5C 168.539,117.048 169.206,115.048 170.5,113.5 Z"/></g>
<g><path style="opacity:1" fill="#4ebfdc" d="M 134.5,126.5 C 133.081,127.451 131.415,127.784 129.5,127.5C 129.335,124.482 129.502,121.482 130,118.5C 132.041,117.577 134.208,117.244 136.5,117.5C 136.324,120.727 135.657,123.727 134.5,126.5 Z"/></g>
<g><path style="opacity:1" fill="#e0fcfb" d="M 134.5,126.5 C 133.167,126.5 131.833,126.5 130.5,126.5C 130.337,124.143 130.503,121.81 131,119.5C 132.011,118.663 133.178,118.33 134.5,118.5C 134.5,121.167 134.5,123.833 134.5,126.5 Z"/></g>
<g><path style="opacity:1" fill="#dcfafc" d="M 119.5,112.5 C 120.822,112.33 121.989,112.663 123,113.5C 123.667,117.5 123.667,121.5 123,125.5C 121.644,126.38 120.144,126.714 118.5,126.5C 118.226,121.737 118.559,117.07 119.5,112.5 Z"/></g>
<g><path style="opacity:1" fill="#d5fdfd" d="M 170.5,113.5 C 169.206,115.048 168.539,117.048 168.5,119.5C 168.539,121.952 169.206,123.952 170.5,125.5C 169.86,127.332 168.86,127.665 167.5,126.5C 166.394,122.223 166.228,117.89 167,113.5C 168.292,112.209 169.458,112.209 170.5,113.5 Z"/></g>
<g><path style="opacity:1" fill="#d1f8fb" d="M 143.5,112.5 C 144.822,112.33 145.989,112.663 147,113.5C 147.499,117.821 147.666,122.154 147.5,126.5C 145.833,126.5 144.167,126.5 142.5,126.5C 142.226,121.737 142.559,117.07 143.5,112.5 Z"/></g>
<g><path style="opacity:1" fill="#fefdf6" d="M 144.5,114.5 C 145.777,115.694 146.444,117.36 146.5,119.5C 146.167,121.167 145.833,122.833 145.5,124.5C 144.513,121.232 144.18,117.898 144.5,114.5 Z"/></g>
<g><path style="opacity:1" fill="#e1f8f8" d="M 107.5,104.5 C 108.833,104.5 110.167,104.5 111.5,104.5C 111.666,113.173 111.5,121.84 111,130.5C 109.51,131.728 108.01,131.728 106.5,130.5C 106.174,121.651 106.507,112.984 107.5,104.5 Z"/></g>
<g><path style="opacity:1" fill="#20bdef" d="M 20.5,153.5 C 21.6336,156.37 22.3003,159.37 22.5,162.5C 22.6882,164.103 22.1882,165.437 21,166.5C 20.7996,164.68 19.9663,163.347 18.5,162.5C 17.5655,161.432 17.2322,160.099 17.5,158.5C 16.8155,154.446 16.8155,150.446 17.5,146.5C 17.974,149.217 18.974,151.55 20.5,153.5 Z"/></g>
<g><path style="opacity:1" fill="#3abade" d="M 332.5,132.5 C 340.753,130.429 346.753,133.096 350.5,140.5C 349.833,140.833 349.167,141.167 348.5,141.5C 346.6,140.553 345.267,139.053 344.5,137C 337.822,133.834 332.656,135.334 329,141.5C 328.333,145.5 328.333,149.5 329,153.5C 331.208,160.11 335.708,162.276 342.5,160C 344.635,159.241 345.968,157.741 346.5,155.5C 347.833,154.167 349.167,154.167 350.5,155.5C 346.746,163.066 340.746,165.566 332.5,163C 325.286,158.037 322.786,151.203 325,142.5C 326.306,138.199 328.806,134.866 332.5,132.5 Z"/></g>
<g><path style="opacity:1" fill="#2eb7df" d="M 494.5,132.5 C 495.822,132.33 496.989,132.663 498,133.5C 501.6,142.136 505.1,150.803 508.5,159.5C 511.652,151.227 514.652,142.893 517.5,134.5C 518.325,133.614 519.325,133.281 520.5,133.5C 516.645,145.899 512.478,158.232 508,170.5C 506.15,173.841 503.317,175.174 499.5,174.5C 499.5,173.5 499.5,172.5 499.5,171.5C 504.344,171.224 507.011,168.557 507.5,163.5C 502.584,153.421 498.251,143.087 494.5,132.5 Z"/></g>
<g><path style="opacity:1" fill="#dffcfd" d="M 34.5,72.5 C 34.2627,73.791 34.596,74.791 35.5,75.5C 33.6418,77.8831 32.3084,80.5498 31.5,83.5C 30.8902,84.391 30.5569,85.391 30.5,86.5C 18.9368,111.637 17.6035,137.304 26.5,163.5C 26.6287,165.216 26.962,166.883 27.5,168.5C 29.7877,174.372 32.4544,180.039 35.5,185.5C 34.9569,185.56 34.6236,185.893 34.5,186.5C 35.9501,187.85 36.6168,189.516 36.5,191.5C 30.4871,182.474 25.8205,172.808 22.5,162.5C 22.3003,159.37 21.6336,156.37 20.5,153.5C 14.7143,124.542 19.381,97.5421 34.5,72.5 Z"/></g>
<g><path style="opacity:1" fill="#01baef" d="M 191.5,178.5 C 153.181,180.494 114.514,181.161 75.5,180.5C 75.4142,179.504 75.7476,178.671 76.5,178C 114.84,177.274 153.174,177.441 191.5,178.5 Z"/></g>
<g><path style="opacity:1" fill="#07bae1" d="M 191.5,178.5 C 193.384,178.712 194.717,179.712 195.5,181.5C 153.796,182.172 112.129,182.839 70.5,183.5C 68.7295,182.965 68.3961,182.131 69.5,181C 71.4727,180.505 73.4727,180.338 75.5,180.5C 114.514,181.161 153.181,180.494 191.5,178.5 Z"/></g>
<g><path style="opacity:1" fill="#22bce6" d="M 62.5,77.5 C 59.5331,91.3741 57.1998,105.374 55.5,119.5C 55.3336,128.173 55.5002,136.84 56,145.5C 57.9793,157.893 60.146,170.227 62.5,182.5C 61.7101,183.794 60.7101,184.961 59.5,186C 51.3225,186.823 43.3225,186.656 35.5,185.5C 32.4544,180.039 29.7877,174.372 27.5,168.5C 29.1238,168.64 30.2904,167.973 31,166.5C 30.5624,169.06 30.729,171.56 31.5,174C 36.8643,174.829 42.1977,174.663 47.5,173.5C 47.8627,172.817 48.1961,172.15 48.5,171.5C 49.9118,173.23 49.5785,174.73 47.5,176C 49.4054,176.826 49.7388,177.993 48.5,179.5C 47.7248,177.525 46.3914,176.691 44.5,177C 38.026,184.155 39.6927,186.489 49.5,184C 47.7795,183.261 46.1128,182.427 44.5,181.5C 45.1667,181.167 45.8333,180.833 46.5,180.5C 50.4309,180.996 54.4309,180.996 58.5,180.5C 58.281,181.675 58.6143,182.675 59.5,183.5C 60.5827,182.635 60.7494,181.635 60,180.5C 58.6667,179.833 57.3333,179.167 56,178.5C 55.3828,177.551 55.5494,176.718 56.5,176C 55.6141,174.783 54.6141,173.449 53.5,172C 54.0508,168.728 54.8842,165.561 56,162.5C 56.6667,160.167 56.6667,157.833 56,155.5C 55.0766,156.759 54.2432,158.092 53.5,159.5C 53.1667,158.667 52.8333,157.833 52.5,157C 53.1662,155.331 53.1662,153.831 52.5,152.5C 52.8076,151.692 53.3076,151.025 54,150.5C 54.6667,137.5 54.6667,124.5 54,111.5C 53.8352,106.684 52.6685,102.184 50.5,98C 51.0641,95.474 51.7308,92.974 52.5,90.5C 52.1667,89.8333 51.8333,89.1667 51.5,88.5C 50.35,90.7628 49.35,93.0962 48.5,95.5C 47.028,93.384 45.8614,91.0507 45,88.5C 44.0565,89.263 43.5565,90.263 43.5,91.5C 45.1569,94.5466 44.1569,95.8799 40.5,95.5C 40.3199,89.8853 41.6532,84.7186 44.5,80C 44.1667,79.8333 43.8333,79.6667 43.5,79.5C 42.5197,80.9814 41.353,82.3147 40,83.5C 39.2613,80.8975 37.5946,79.2309 35,78.5C 34.4506,80.7596 33.284,82.4262 31.5,83.5C 32.3084,80.5498 33.6418,77.8831 35.5,75.5C 43.0873,74.3686 50.754,74.2019 58.5,75C 59.9839,75.6622 61.3172,76.4955 62.5,77.5 Z"/></g>
<g><path style="opacity:1" fill="#e0fcfc" d="M 64.5,178.5 C 65.0554,181.787 66.722,184.287 69.5,186C 111.833,186.667 154.167,186.667 196.5,186C 198.35,185.31 199.684,184.144 200.5,182.5C 201.268,181.737 201.768,180.737 202,179.5C 202.05,181.744 202.883,183.411 204.5,184.5C 205.391,185.11 206.391,185.443 207.5,185.5C 215.5,186.167 223.5,186.833 231.5,187.5C 230.617,190.704 228.95,193.371 226.5,195.5C 225.833,194.167 225.167,192.833 224.5,191.5C 224.047,190.542 223.381,189.708 222.5,189C 215.5,188.333 208.5,188.333 201.5,189C 199.266,190.638 197.933,192.805 197.5,195.5C 196.022,194.552 195.022,193.219 194.5,191.5C 194.167,191.5 193.833,191.5 193.5,191.5C 193.586,190.504 193.252,189.671 192.5,189C 153.168,188.5 113.835,188.333 74.5,188.5C 73.1667,189.167 72.1667,190.167 71.5,191.5C 70.8333,192.833 70.1667,194.167 69.5,195.5C 67.0074,188.988 62.1741,186.655 55,188.5C 51.5,188.667 48,188.833 44.5,189C 42.0807,190.509 41.0807,192.675 41.5,195.5C 41.1583,196.338 40.4916,196.672 39.5,196.5C 38.075,195.078 37.075,193.411 36.5,191.5C 36.6168,189.516 35.9501,187.85 34.5,186.5C 34.6236,185.893 34.9569,185.56 35.5,185.5C 43.3225,186.656 51.3225,186.823 59.5,186C 60.7101,184.961 61.7101,183.794 62.5,182.5C 63.1667,181.167 63.8333,179.833 64.5,178.5 Z"/></g>
<g><path style="opacity:1" fill="#1babd3" d="M 74.5,188.5 C 113.835,188.333 153.168,188.5 192.5,189C 193.252,189.671 193.586,190.504 193.5,191.5C 192.711,191.217 192.044,190.717 191.5,190C 152.331,189.833 113.331,189.333 74.5,188.5 Z"/></g>
<g><path style="opacity:1" fill="#14bae8" d="M 224.5,191.5 C 224.66,193.199 224.494,194.866 224,196.5C 207.56,219.127 185.727,233.294 158.5,239C 175.867,228.464 188.867,213.964 197.5,195.5C 197.933,192.805 199.266,190.638 201.5,189C 208.5,188.333 215.5,188.333 222.5,189C 223.381,189.708 224.047,190.542 224.5,191.5 Z"/></g>
<g><path style="opacity:1" fill="#15bbe7" d="M 69.5,195.5 C 77.2671,214.599 90.2671,228.933 108.5,238.5C 107.054,239.613 105.387,239.78 103.5,239C 77.9134,231.206 57.2467,216.706 41.5,195.5C 41.0807,192.675 42.0807,190.509 44.5,189C 48,188.833 51.5,188.667 55,188.5C 62.1741,186.655 67.0074,188.988 69.5,195.5 Z"/></g>
<g><path style="opacity:1" fill="#06bbe9" d="M 74.5,188.5 C 113.331,189.333 152.331,189.833 191.5,190C 192.044,190.717 192.711,191.217 193.5,191.5C 193.833,191.5 194.167,191.5 194.5,191.5C 187.511,213.334 173.511,229.167 152.5,239C 138.732,243.825 125.066,243.658 111.5,238.5C 91.6258,228.3 78.2924,212.634 71.5,191.5C 72.1667,190.167 73.1667,189.167 74.5,188.5 Z"/></g>
<g><path style="opacity:1" fill="#cef9fc" d="M 71.5,191.5 C 78.2924,212.634 91.6258,228.3 111.5,238.5C 110.5,238.5 109.5,238.5 108.5,238.5C 90.2671,228.933 77.2671,214.599 69.5,195.5C 70.1667,194.167 70.8333,192.833 71.5,191.5 Z"/></g>
<g><path style="opacity:1" fill="#defbfc" d="M 194.5,191.5 C 195.022,193.219 196.022,194.552 197.5,195.5C 188.867,213.964 175.867,228.464 158.5,239C 185.727,233.294 207.56,219.127 224,196.5C 224.494,194.866 224.66,193.199 224.5,191.5C 225.167,192.833 225.833,194.167 226.5,195.5C 213.919,214.564 196.919,228.397 175.5,237C 169.678,238.698 164.012,240.531 158.5,242.5C 148.236,244.075 137.903,244.742 127.5,244.5C 124.833,244.5 122.167,244.5 119.5,244.5C 115.382,243.291 111.049,242.624 106.5,242.5C 78.7405,235.074 56.4072,219.741 39.5,196.5C 40.4916,196.672 41.1583,196.338 41.5,195.5C 57.2467,216.706 77.9134,231.206 103.5,239C 105.387,239.78 107.054,239.613 108.5,238.5C 109.5,238.5 110.5,238.5 111.5,238.5C 125.066,243.658 138.732,243.825 152.5,239C 173.511,229.167 187.511,213.334 194.5,191.5 Z"/></g>
<g><path style="opacity:1" fill="#25bae3" d="M 18.5,162.5 C 19.9663,163.347 20.7996,164.68 21,166.5C 22.1882,165.437 22.6882,164.103 22.5,162.5C 25.8205,172.808 30.4871,182.474 36.5,191.5C 37.075,193.411 38.075,195.078 39.5,196.5C 56.4072,219.741 78.7405,235.074 106.5,242.5C 109.174,244.001 109.007,245.001 106,245.5C 103.863,244.923 101.696,244.59 99.5,244.5C 57.76,231.76 30.76,204.427 18.5,162.5 Z"/></g>
<g><path style="opacity:1" fill="#25b9e3" d="M 245.5,168.5 C 232.16,207.84 205.493,233.173 165.5,244.5C 161.109,244.234 156.943,244.9 153,246.5C 151.833,246.167 150.667,245.833 149.5,245.5C 152.786,244.958 155.786,243.958 158.5,242.5C 164.012,240.531 169.678,238.698 175.5,237C 196.919,228.397 213.919,214.564 226.5,195.5C 228.95,193.371 230.617,190.704 231.5,187.5C 236.237,180.693 239.903,173.36 242.5,165.5C 243.989,163.884 244.989,161.884 245.5,159.5C 246.321,162.446 246.321,165.446 245.5,168.5 Z"/></g>
<g><path style="opacity:1" fill="#36b7d8" d="M 106.5,242.5 C 111.049,242.624 115.382,243.291 119.5,244.5C 115.952,244.095 112.619,244.595 109.5,246C 116.489,246.42 123.322,247.253 130,248.5C 135.268,248.553 140.434,247.887 145.5,246.5C 139.346,245.833 133.346,245.167 127.5,244.5C 137.903,244.742 148.236,244.075 158.5,242.5C 155.786,243.958 152.786,244.958 149.5,245.5C 150.667,245.833 151.833,246.167 153,246.5C 156.943,244.9 161.109,244.234 165.5,244.5C 161.208,245.989 156.875,247.323 152.5,248.5C 143.524,249.308 134.524,249.642 125.5,249.5C 122.482,249.665 119.482,249.498 116.5,249C 110.6,247.917 104.933,246.417 99.5,244.5C 101.696,244.59 103.863,244.923 106,245.5C 109.007,245.001 109.174,244.001 106.5,242.5 Z"/></g>
<g><path style="opacity:1" fill="#0fbdef" d="M 119.5,244.5 C 122.167,244.5 124.833,244.5 127.5,244.5C 133.346,245.167 139.346,245.833 145.5,246.5C 140.434,247.887 135.268,248.553 130,248.5C 123.322,247.253 116.489,246.42 109.5,246C 112.619,244.595 115.952,244.095 119.5,244.5 Z"/></g>
<g><path style="opacity:1" fill="#e1fefe" d="M 152.5,248.5 C 152.389,249.117 152.056,249.617 151.5,250C 142.657,250.824 133.99,250.657 125.5,249.5C 134.524,249.642 143.524,249.308 152.5,248.5 Z"/></g>
</svg>
